  0
SECTION
  2
HEADER
  9
$ACADVER
  1
AC1014
  9
$HANDSEED
  5
FFFF
  9
$MEASUREMENT
 70
     1
  0
ENDSEC
  0
SECTION
  2
TABLES
  0
TABLE
  2
VPORT
  5
8
330
0
100
AcDbSymbolTable
 70
     4
  0
VPORT
  5
2E
330
8
100
AcDbSymbolTableRecord
100
AcDbViewportTableRecord
  2
*ACTIVE
 70
     0
 10
0.0
 20
0.0
 11
1.0
 21
1.0
 12
210.0
 22
148.5
 13
0.0
 23
0.0
 14
10.0
 24
10.0
 15
10.0
 25
10.0
 16
0.0
 26
0.0
 36
1.0
 17
0.0
 27
0.0
 37
0.0
 40
341.0
 41
1.24
 42
50.0
 43
0.0
 44
0.0
 50
0.0
 51
0.0
 71
     0
 72
   100
 73
     1
 74
     3
 75
     0
 76
     0
 77
     0
 78
     0
  0
ENDTAB
  0
TABLE
  2
LTYPE
  5
5
330
0
100
AcDbSymbolTable
 70
     1
  0
LTYPE
  5
14
330
5
100
AcDbSymbolTableRecord
100
AcDbLinetypeTableRecord
  2
BYBLOCK
 70
     0
  3

 72
    65
 73
     0
 40
0.0
  0
LTYPE
  5
15
330
5
100
AcDbSymbolTableRecord
100
AcDbLinetypeTableRecord
  2
BYLAYER
 70
     0
  3

 72
    65
 73
     0
 40
0.0
  0
LTYPE
  5
16
330
5
100
AcDbSymbolTableRecord
100
AcDbLinetypeTableRecord
  2
CONTINUOUS
 70
     0
  3
Solid line
 72
    65
 73
     0
 40
0.0
  0
ENDTAB
  0
TABLE
  2
LAYER
  5
2
100
AcDbSymbolTable
 70
1
  0
LAYER
  5
50
100
AcDbSymbolTableRecord
100
AcDbLayerTableRecord
  2
0
 70
0
  6
CONTINUOUS
  0
ENDTAB
  0
TABLE
  2
STYLE
  5
3
330
0
100
AcDbSymbolTable
 70
     1
  0
STYLE
  5
11
330
3
100
AcDbSymbolTableRecord
100
AcDbTextStyleTableRecord
  2
STANDARD
 70
     0
 40
0.0
 41
1.0
 50
0.0
 71
     0
 42
2.5
  3
txt
  4

  0
ENDTAB
  0
TABLE
  2
VIEW
  5
6
330
0
100
AcDbSymbolTable
 70
     0
  0
ENDTAB
  0
TABLE
  2
UCS
  5
7
330
0
100
AcDbSymbolTable
 70
     0
  0
ENDTAB
  0
TABLE
  2
APPID
  5
9
330
0
100
AcDbSymbolTable
 70
     2
  0
APPID
  5
12
330
9
100
AcDbSymbolTableRecord
100
AcDbRegAppTableRecord
  2
ACAD
 70
     0
  0
ENDTAB
  0
TABLE
  2
DIMSTYLE
  5
A
330
0
100
AcDbSymbolTable
 70
     1
  0
DIMSTYLE
105
27
330
A
100
AcDbSymbolTableRecord
100
AcDbDimStyleTableRecord
  2
ISO-25
 70
     0
  3

  4

  5

  6

  7

 40
1.0
 41
2.5
 42
0.625
 43
3.75
 44
1.25
 45
0.0
 46
0.0
 47
0.0
 48
0.0
140
2.5
141
2.5
142
0.0
143
0.03937007874016
144
1.0
145
0.0
146
1.0
147
0.625
 71
     0
 72
     0
 73
     0
 74
     0
 75
     0
 76
     0
 77
     1
 78
     8
170
     0
171
     3
172
     1
173
     0
174
     0
175
     0
176
     0
177
     0
178
     0
270
     2
271
     2
272
     2
273
     2
274
     3
340
11
275
     0
280
     0
281
     0
282
     0
283
     0
284
     8
285
     0
286
     0
287
     3
288
     0
  0
ENDTAB
  0
TABLE
  2
BLOCK_RECORD
  5
1
330
0
100
AcDbSymbolTable
 70
     1
  0
BLOCK_RECORD
  5
1F
330
1
100
AcDbSymbolTableRecord
100
AcDbBlockTableRecord
  2
*MODEL_SPACE
  0
BLOCK_RECORD
  5
1B
330
1
100
AcDbSymbolTableRecord
100
AcDbBlockTableRecord
  2
*PAPER_SPACE
  0
ENDTAB
  0
ENDSEC
  0
SECTION
  2
BLOCKS
  0
BLOCK
  5
20
330
1F
100
AcDbEntity
  8
0
100
AcDbBlockBegin
  2
*MODEL_SPACE
 70
     0
 10
0.0
 20
0.0
 30
0.0
  3
*MODEL_SPACE
  1

  0
ENDBLK
  5
21
330
1F
100
AcDbEntity
  8
0
100
AcDbBlockEnd
  0
BLOCK
  5
1C
330
1B
100
AcDbEntity
 67
     1
  8
0
100
AcDbBlockBegin
  2
*PAPER_SPACE
  1

  0
ENDBLK
  5
1D
330
1B
100
AcDbEntity
 67
     1
  8
0
100
AcDbBlockEnd
  0
ENDSEC
  0
SECTION
  2
ENTITIES
  0
LWPOLYLINE
  5
100
100
AcDbEntity
  8
0
 62
7
100
AcDbPolyline
 90
2
 70
0
 10
52.415824
 20
96.415507
 30
0.0
 10
51.176079
 20
94.229100
 30
0.0
  0
LWPOLYLINE
  5
101
100
AcDbEntity
  8
0
 62
7
100
AcDbPolyline
 90
2
 70
0
 10
51.176480
 20
94.229808
 30
0.0
 10
48.751579
 20
94.262413
 30
0.0
  0
LWPOLYLINE
  5
102
100
AcDbEntity
  8
0
 62
7
100
AcDbPolyline
 90
3
 70
0
 10
48.751763
 20
94.262738
 30
0.0
 10
49.936333
 20
92.042693
 30
0.0
 10
48.696588
 20
89.856285
 30
0.0
  0
LWPOLYLINE
  5
103
100
AcDbEntity
  8
0
 62
7
100
AcDbPolyline
 90
2
 70
0
 10
48.696957
 20
89.856935
 30
0.0
 10
46.272089
 20
89.889599
 30
0.0
  0
LWPOLYLINE
  5
104
100
AcDbEntity
  8
0
 62
7
100
AcDbPolyline
 90
2
 70
0
 10
46.272239
 20
89.889865
 30
0.0
 10
45.087334
 20
92.109319
 30
0.0
  0
LWPOLYLINE
  5
105
100
AcDbEntity
  8
0
 62
7
100
AcDbPolyline
 90
2
 70
0
 10
45.087702
 20
92.109969
 30
0.0
 10
43.847589
 20
89.922912
 30
0.0
  0
LWPOLYLINE
  5
106
100
AcDbEntity
  8
0
 62
7
100
AcDbPolyline
 90
2
 70
0
 10
43.847522
 20
89.922794
 30
0.0
 10
41.423080
 20
89.956210
 30
0.0
  0
LWPOLYLINE
  5
107
100
AcDbEntity
  8
0
 62
7
100
AcDbPolyline
 90
2
 70
0
 10
41.422804
 20
89.955724
 30
0.0
 10
42.607836
 20
87.736490
 30
0.0
  0
LWPOLYLINE
  5
108
100
AcDbEntity
  8
0
 62
7
100
AcDbPolyline
 90
2
 70
0
 10
42.608178
 20
87.737095
 30
0.0
 10
41.368090
 20
85.550083
 30
0.0
  0
LWPOLYLINE
  5
109
100
AcDbEntity
  8
0
 62
7
100
AcDbPolyline
 90
2
 70
0
 10
41.367998
 20
85.549920
 30
0.0
 10
43.792590
 20
85.516770
 30
0.0
  0
LWPOLYLINE
  5
10a
100
AcDbEntity
  8
0
 62
7
100
AcDbPolyline
 90
2
 70
0
 10
43.792715
 20
85.516990
 30
0.0
 10
44.977345
 20
83.297049
 30
0.0
  0
LWPOLYLINE
  5
10b
100
AcDbEntity
  8
0
 62
7
100
AcDbPolyline
 90
2
 70
0
 10
44.977253
 20
83.296887
 30
0.0
 10
43.737600
 20
81.110642
 30
0.0
  0
LWPOLYLINE
  5
10c
100
AcDbEntity
  8
0
 62
7
100
AcDbPolyline
 90
2
 70
0
 10
43.737909
 20
81.111188
 30
0.0
 10
41.313100
 20
81.143955
 30
0.0
  0
LWPOLYLINE
  5
10d
100
AcDbEntity
  8
0
 62
7
100
AcDbPolyline
 90
2
 70
0
 10
41.313192
 20
81.144117
 30
0.0
 10
42.497855
 20
78.924235
 30
0.0
  0
LWPOLYLINE
  5
10e
100
AcDbEntity
  8
0
 62
7
100
AcDbPolyline
 90
2
 70
0
 10
42.497729
 20
78.924013
 30
0.0
 10
41.258109
 20
76.737828
 30
0.0
  0
LWPOLYLINE
  5
10f
100
AcDbEntity
  8
0
 62
7
100
AcDbPolyline
 90
2
 70
0
 10
41.258386
 20
76.738315
 30
0.0
 10
38.833609
 20
76.771139
 30
0.0
  0
LWPOLYLINE
  5
110
100
AcDbEntity
  8
0
 62
7
100
AcDbPolyline
 90
2
 70
0
 10
38.833667
 20
76.771243
 30
0.0
 10
37.648855
 20
78.990861
 30
0.0
  0
LWPOLYLINE
  5
111
100
AcDbEntity
  8
0
 62
7
100
AcDbPolyline
 90
2
 70
0
 10
37.649131
 20
78.991348
 30
0.0
 10
36.409110
 20
76.804454
 30
0.0
  0
LWPOLYLINE
  5
112
100
AcDbEntity
  8
0
 62
7
100
AcDbPolyline
 90
2
 70
0
 10
36.408952
 20
76.804175
 30
0.0
 10
33.984610
 20
76.837767
 30
0.0
  0
LWPOLYLINE
  5
113
100
AcDbEntity
  8
0
 62
7
100
AcDbPolyline
 90
2
 70
0
 10
33.984233
 20
76.837103
 30
0.0
 10
32.799855
 20
79.057487
 30
0.0
  0
LWPOLYLINE
  5
114
100
AcDbEntity
  8
0
 62
7
100
AcDbPolyline
 90
2
 70
0
 10
32.799697
 20
79.057208
 30
0.0
 10
34.039600
 20
81.243895
 30
0.0
  0
LWPOLYLINE
  5
115
100
AcDbEntity
  8
0
 62
7
100
AcDbPolyline
 90
2
 70
0
 10
34.039877
 20
81.244382
 30
0.0
 10
31.615099
 20
81.277206
 30
0.0
  0
LWPOLYLINE
  5
116
100
AcDbEntity
  8
0
 62
7
100
AcDbPolyline
 90
2
 70
0
 10
31.615158
 20
81.277310
 30
0.0
 10
30.430345
 20
83.496928
 30
0.0
  0
LWPOLYLINE
  5
117
100
AcDbEntity
  8
0
 62
7
100
AcDbPolyline
 90
2
 70
0
 10
30.430622
 20
83.497415
 30
0.0
 10
29.190600
 20
81.310521
 30
0.0
  0
LWPOLYLINE
  5
118
100
AcDbEntity
  8
0
 62
7
100
AcDbPolyline
 90
2
 70
0
 10
29.190442
 20
81.310242
 30
0.0
 10
26.766101
 20
81.343834
 30
0.0
  0
LWPOLYLINE
  5
119
100
AcDbEntity
  8
0
 62
7
100
AcDbPolyline
 90
2
 70
0
 10
26.765725
 20
81.343170
 30
0.0
 10
27.950854
 20
79.124113
 30
0.0
  0
LWPOLYLINE
  5
11a
100
AcDbEntity
  8
0
 62
7
100
AcDbPolyline
 90
2
 70
0
 10
27.951097
 20
79.124541
 30
0.0
 10
26.711102
 20
76.937692
 30
0.0
  0
LWPOLYLINE
  5
11b
100
AcDbEntity
  8
0
 62
7
100
AcDbPolyline
 90
2
 70
0
 10
26.710918
 20
76.937367
 30
0.0
 10
24.286603
 20
76.971005
 30
0.0
  0
LWPOLYLINE
  5
11c
100
AcDbEntity
  8
0
 62
7
100
AcDbPolyline
 90
2
 70
0
 10
24.286201
 20
76.970296
 30
0.0
 10
23.101848
 20
79.190725
 30
0.0
  0
LWPOLYLINE
  5
11d
100
AcDbEntity
  8
0
 62
7
100
AcDbPolyline
 90
2
 70
0
 10
23.101664
 20
79.190401
 30
0.0
 10
21.862102
 20
77.004317
 30
0.0
  0
LWPOLYLINE
  5
11e
100
AcDbEntity
  8
0
 62
7
100
AcDbPolyline
 90
3
 70
0
 10
21.862320
 20
77.004702
 30
0.0
 10
19.437589
 20
77.037640
 30
0.0
 10
20.622344
 20
74.817921
 30
0.0
  0
LWPOLYLINE
  5
11f
100
AcDbEntity
  8
0
 62
7
100
AcDbPolyline
 90
2
 70
0
 10
20.622140
 20
74.817527
 30
0.0
 10
19.382598
 20
72.631513
 30
0.0
  0
LWPOLYLINE
  5
120
100
AcDbEntity
  8
0
 62
7
100
AcDbPolyline
 90
2
 70
0
 10
19.382796
 20
72.631828
 30
0.0
 10
21.807099
 20
72.598199
 30
0.0
  0
LWPOLYLINE
  5
121
100
AcDbEntity
  8
0
 62
7
100
AcDbPolyline
 90
2
 70
0
 10
21.807514
 20
72.598899
 30
0.0
 10
22.991852
 20
70.378479
 30
0.0
  0
LWPOLYLINE
  5
122
100
AcDbEntity
  8
0
 62
7
100
AcDbPolyline
 90
2
 70
0
 10
22.992051
 20
70.378795
 30
0.0
 10
21.752107
 20
68.192072
 30
0.0
  0
LWPOLYLINE
  5
123
100
AcDbEntity
  8
0
 62
7
100
AcDbPolyline
 90
2
 70
0
 10
21.751871
 20
68.191622
 30
0.0
 10
19.327600
 20
68.225370
 30
0.0
  0
LWPOLYLINE
  5
124
100
AcDbEntity
  8
0
 62
7
100
AcDbPolyline
 90
2
 70
0
 10
19.327990
 20
68.226025
 30
0.0
 10
20.512354
 20
66.005650
 30
0.0
  0
LWPOLYLINE
  5
125
100
AcDbEntity
  8
0
 62
7
100
AcDbPolyline
 90
2
 70
0
 10
20.512526
 20
66.005920
 30
0.0
 10
19.272610
 20
63.819244
 30
0.0
  0
LWPOLYLINE
  5
126
100
AcDbEntity
  8
0
 62
7
100
AcDbPolyline
 90
2
 70
0
 10
19.272346
 20
63.818746
 30
0.0
 10
21.697108
 20
63.785928
 30
0.0
  0
LWPOLYLINE
  5
127
100
AcDbEntity
  8
0
 62
7
100
AcDbPolyline
 90
2
 70
0
 10
21.697063
 20
63.785816
 30
0.0
 10
22.881865
 20
61.566210
 30
0.0
  0
LWPOLYLINE
  5
128
100
AcDbEntity
  8
0
 62
7
100
AcDbPolyline
 90
2
 70
0
 10
22.881601
 20
61.565712
 30
0.0
 10
24.121609
 20
63.752616
 30
0.0
  0
LWPOLYLINE
  5
129
100
AcDbEntity
  8
0
 62
7
100
AcDbPolyline
 90
2
 70
0
 10
24.121781
 20
63.752886
 30
0.0
 10
26.546131
 20
63.719309
 30
0.0
  0
LWPOLYLINE
  5
12a
100
AcDbEntity
  8
0
 62
7
100
AcDbPolyline
 90
2
 70
0
 10
26.546499
 20
63.719959
 30
0.0
 10
27.730885
 20
61.499587
 30
0.0
  0
LWPOLYLINE
  5
12b
100
AcDbEntity
  8
0
 62
7
100
AcDbPolyline
 90
2
 70
0
 10
27.731036
 20
61.499853
 30
0.0
 10
26.491141
 20
59.313182
 30
0.0
  0
LWPOLYLINE
  5
12c
100
AcDbEntity
  8
0
 62
7
100
AcDbPolyline
 90
2
 70
0
 10
26.490855
 20
59.312678
 30
0.0
 10
28.915641
 20
59.279870
 30
0.0
  0
LWPOLYLINE
  5
12d
100
AcDbEntity
  8
0
 62
7
100
AcDbPolyline
 90
2
 70
0
 10
28.915573
 20
59.279749
 30
0.0
 10
30.100388
 20
57.060135
 30
0.0
  0
LWPOLYLINE
  5
12e
100
AcDbEntity
  8
0
 62
7
100
AcDbPolyline
 90
2
 70
0
 10
30.100110
 20
57.059645
 30
0.0
 10
28.860641
 20
54.873725
 30
0.0
  0
LWPOLYLINE
  5
12f
100
AcDbEntity
  8
0
 62
7
100
AcDbPolyline
 90
2
 70
0
 10
28.860767
 20
54.873946
 30
0.0
 10
26.436143
 20
54.907041
 30
0.0
  0
LWPOLYLINE
  5
130
100
AcDbEntity
  8
0
 62
7
100
AcDbPolyline
 90
2
 70
0
 10
26.436049
 20
54.906875
 30
0.0
 10
27.620897
 20
52.687319
 30
0.0
  0
LWPOLYLINE
  5
131
100
AcDbEntity
  8
0
 62
7
100
AcDbPolyline
 90
2
 70
0
 10
27.620588
 20
52.686774
 30
0.0
 10
26.381151
 20
50.500910
 30
0.0
  0
LWPOLYLINE
  5
132
100
AcDbEntity
  8
0
 62
7
100
AcDbPolyline
 90
2
 70
0
 10
26.381245
 20
50.501075
 30
0.0
 10
23.956653
 20
50.534226
 30
0.0
  0
LWPOLYLINE
  5
133
100
AcDbEntity
  8
0
 62
7
100
AcDbPolyline
 90
2
 70
0
 10
23.956527
 20
50.534005
 30
0.0
 10
22.771896
 20
52.753944
 30
0.0
  0
LWPOLYLINE
  5
134
100
AcDbEntity
  8
0
 62
7
100
AcDbPolyline
 90
2
 70
0
 10
22.771990
 20
52.754109
 30
0.0
 10
21.532152
 20
50.567538
 30
0.0
  0
LWPOLYLINE
  5
135
100
AcDbEntity
  8
0
 62
7
100
AcDbPolyline
 90
2
 70
0
 10
21.531810
 20
50.566934
 30
0.0
 10
19.107644
 20
50.600837
 30
0.0
  0
LWPOLYLINE
  5
136
100
AcDbEntity
  8
0
 62
7
100
AcDbPolyline
 90
2
 70
0
 10
19.107929
 20
50.601340
 30
0.0
 10
20.292398
 20
48.381115
 30
0.0
  0
LWPOLYLINE
  5
137
100
AcDbEntity
  8
0
 62
7
100
AcDbPolyline
 90
2
 70
0
 10
20.292466
 20
48.381236
 30
0.0
 10
19.052654
 20
46.194709
 30
0.0
  0
LWPOLYLINE
  5
138
100
AcDbEntity
  8
0
 62
7
100
AcDbPolyline
 90
2
 70
0
 10
19.052285
 20
46.194059
 30
0.0
 10
21.477154
 20
46.161397
 30
0.0
  0
LWPOLYLINE
  5
139
100
AcDbEntity
  8
0
 62
7
100
AcDbPolyline
 90
2
 70
0
 10
21.477004
 20
46.161131
 30
0.0
 10
22.661908
 20
43.941675
 30
0.0
  0
LWPOLYLINE
  5
13a
100
AcDbEntity
  8
0
 62
7
100
AcDbPolyline
 90
3
 70
0
 10
22.661540
 20
43.941026
 30
0.0
 10
21.422164
 20
41.755270
 30
0.0
 10
18.997663
 20
41.788581
 30
0.0
  0
LWPOLYLINE
  5
13b
100
AcDbEntity
  8
0
 62
7
100
AcDbPolyline
 90
2
 70
0
 10
18.997479
 20
41.788257
 30
0.0
 10
20.182417
 20
39.568859
 30
0.0
  0
LWPOLYLINE
  5
13c
100
AcDbEntity
  8
0
 62
7
100
AcDbPolyline
 90
3
 70
0
 10
20.182016
 20
39.568153
 30
0.0
 10
18.942673
 20
37.382454
 30
0.0
 10
21.367173
 20
37.349142
 30
0.0
  0
LWPOLYLINE
  5
13d
100
AcDbEntity
  8
0
 62
7
100
AcDbPolyline
 90
3
 70
0
 10
21.367390
 20
37.349524
 30
0.0
 10
22.551927
 20
35.129420
 30
0.0
 10
23.791672
 20
37.315826
 30
0.0
  0
LWPOLYLINE
  5
13e
100
AcDbEntity
  8
0
 62
7
100
AcDbPolyline
 90
2
 70
0
 10
23.791271
 20
37.315119
 30
0.0
 10
26.216173
 20
37.282514
 30
0.0
  0
LWPOLYLINE
  5
13f
100
AcDbEntity
  8
0
 62
7
100
AcDbPolyline
 90
2
 70
0
 10
26.215988
 20
37.282189
 30
0.0
 10
27.400926
 20
35.062792
 30
0.0
  0
LWPOLYLINE
  5
140
100
AcDbEntity
  8
0
 62
7
100
AcDbPolyline
 90
3
 70
0
 10
27.400525
 20
35.062085
 30
0.0
 10
26.161182
 20
32.876387
 30
0.0
 10
28.585683
 20
32.843075
 30
0.0
  0
LWPOLYLINE
  5
141
100
AcDbEntity
  8
0
 62
7
100
AcDbPolyline
 90
3
 70
0
 10
28.585900
 20
32.843457
 30
0.0
 10
29.770437
 20
30.623353
 30
0.0
 10
31.010181
 20
32.809759
 30
0.0
  0
LWPOLYLINE
  5
142
100
AcDbEntity
  8
0
 62
7
100
AcDbPolyline
 90
2
 70
0
 10
31.009780
 20
32.809052
 30
0.0
 10
33.434681
 20
32.776447
 30
0.0
  0
LWPOLYLINE
  5
143
100
AcDbEntity
  8
0
 62
7
100
AcDbPolyline
 90
3
 70
0
 10
33.434497
 20
32.776123
 30
0.0
 10
32.249928
 20
34.996169
 30
0.0
 10
33.489672
 20
37.182574
 30
0.0
  0
LWPOLYLINE
  5
144
100
AcDbEntity
  8
0
 62
7
100
AcDbPolyline
 90
2
 70
0
 10
33.489304
 20
37.181925
 30
0.0
 10
35.914172
 20
37.149263
 30
0.0
  0
LWPOLYLINE
  5
145
100
AcDbEntity
  8
0
 62
7
100
AcDbPolyline
 90
2
 70
0
 10
35.914022
 20
37.148997
 30
0.0
 10
37.098926
 20
34.929541
 30
0.0
  0
LWPOLYLINE
  5
146
100
AcDbEntity
  8
0
 62
7
100
AcDbPolyline
 90
2
 70
0
 10
37.098558
 20
34.928892
 30
0.0
 10
38.338671
 20
37.115947
 30
0.0
  0
LWPOLYLINE
  5
147
100
AcDbEntity
  8
0
 62
7
100
AcDbPolyline
 90
2
 70
0
 10
38.338739
 20
37.116068
 30
0.0
 10
40.763179
 20
37.082648
 30
0.0
  0
LWPOLYLINE
  5
148
100
AcDbEntity
  8
0
 62
7
100
AcDbPolyline
 90
2
 70
0
 10
40.763457
 20
37.083138
 30
0.0
 10
41.947935
 20
34.862931
 30
0.0
  0
LWPOLYLINE
  5
149
100
AcDbEntity
  8
0
 62
7
100
AcDbPolyline
 90
2
 70
0
 10
41.947994
 20
34.863034
 30
0.0
 10
40.708188
 20
32.676521
 30
0.0
  0
LWPOLYLINE
  5
14a
100
AcDbEntity
  8
0
 62
7
100
AcDbPolyline
 90
2
 70
0
 10
40.707813
 20
32.675858
 30
0.0
 10
43.132689
 20
32.643209
 30
0.0
  0
LWPOLYLINE
  5
14b
100
AcDbEntity
  8
0
 62
7
100
AcDbPolyline
 90
2
 70
0
 10
43.132531
 20
32.642930
 30
0.0
 10
44.317444
 20
30.423486
 30
0.0
  0
LWPOLYLINE
  5
14c
100
AcDbEntity
  8
0
 62
7
100
AcDbPolyline
 90
3
 70
0
 10
44.317069
 20
30.422824
 30
0.0
 10
43.077700
 20
28.237081
 30
0.0
 10
40.653198
 20
28.270393
 30
0.0
  0
LWPOLYLINE
  5
14d
100
AcDbEntity
  8
0
 62
7
100
AcDbPolyline
 90
2
 70
0
 10
40.653006
 20
28.270055
 30
0.0
 10
41.837956
 20
26.050675
 30
0.0
  0
LWPOLYLINE
  5
14e
100
AcDbEntity
  8
0
 62
7
100
AcDbPolyline
 90
3
 70
0
 10
41.837545
 20
26.049950
 30
0.0
 10
40.598202
 20
23.864252
 30
0.0
 10
43.022699
 20
23.830942
 30
0.0
  0
LWPOLYLINE
  5
14f
100
AcDbEntity
  8
0
 62
7
100
AcDbPolyline
 90
3
 70
0
 10
43.022916
 20
23.831324
 30
0.0
 10
44.207455
 20
21.611219
 30
0.0
 10
45.447199
 20
23.797625
 30
0.0
  0
LWPOLYLINE
  5
150
100
AcDbEntity
  8
0
 62
7
100
AcDbPolyline
 90
2
 70
0
 10
45.446798
 20
23.796918
 30
0.0
 10
47.871707
 20
23.764326
 30
0.0
  0
LWPOLYLINE
  5
151
100
AcDbEntity
  8
0
 62
7
100
AcDbPolyline
 90
2
 70
0
 10
47.871516
 20
23.763988
 30
0.0
 10
49.056464
 20
21.544609
 30
0.0
  0
LWPOLYLINE
  5
152
100
AcDbEntity
  8
0
 62
7
100
AcDbPolyline
 90
3
 70
0
 10
49.056053
 20
21.543884
 30
0.0
 10
47.816717
 20
19.358199
 30
0.0
 10
50.241218
 20
19.324887
 30
0.0
  0
LWPOLYLINE
  5
153
100
AcDbEntity
  8
0
 62
7
100
AcDbPolyline
 90
3
 70
0
 10
50.241427
 20
19.325256
 30
0.0
 10
51.425964
 20
17.105152
 30
0.0
 10
52.665708
 20
19.291558
 30
0.0
  0
LWPOLYLINE
  5
154
100
AcDbEntity
  8
0
 62
7
100
AcDbPolyline
 90
2
 70
0
 10
52.665307
 20
19.290851
 30
0.0
 10
55.090209
 20
19.258246
 30
0.0
  0
LWPOLYLINE
  5
155
100
AcDbEntity
  8
0
 62
7
100
AcDbPolyline
 90
3
 70
0
 10
55.090025
 20
19.257921
 30
0.0
 10
53.905455
 20
21.477968
 30
0.0
 10
55.145199
 20
23.664373
 30
0.0
  0
LWPOLYLINE
  5
156
100
AcDbEntity
  8
0
 62
7
100
AcDbPolyline
 90
2
 70
0
 10
55.144831
 20
23.663724
 30
0.0
 10
57.569700
 20
23.631062
 30
0.0
  0
LWPOLYLINE
  5
157
100
AcDbEntity
  8
0
 62
7
100
AcDbPolyline
 90
2
 70
0
 10
57.569549
 20
23.630796
 30
0.0
 10
58.754455
 20
21.411339
 30
0.0
  0
LWPOLYLINE
  5
158
100
AcDbEntity
  8
0
 62
7
100
AcDbPolyline
 90
2
 70
0
 10
58.754087
 20
21.410690
 30
0.0
 10
59.994199
 20
23.597745
 30
0.0
  0
LWPOLYLINE
  5
159
100
AcDbEntity
  8
0
 62
7
100
AcDbPolyline
 90
2
 70
0
 10
59.994268
 20
23.597866
 30
0.0
 10
62.418705
 20
23.564448
 30
0.0
  0
LWPOLYLINE
  5
15a
100
AcDbEntity
  8
0
 62
7
100
AcDbPolyline
 90
2
 70
0
 10
62.418983
 20
23.564938
 30
0.0
 10
61.233954
 20
25.784168
 30
0.0
  0
LWPOLYLINE
  5
15b
100
AcDbEntity
  8
0
 62
7
100
AcDbPolyline
 90
2
 70
0
 10
61.233611
 20
25.783564
 30
0.0
 10
62.473698
 20
27.970574
 30
0.0
  0
LWPOLYLINE
  5
15c
100
AcDbEntity
  8
0
 62
7
100
AcDbPolyline
 90
2
 70
0
 10
62.473792
 20
27.970739
 30
0.0
 10
60.049198
 20
28.003891
 30
0.0
  0
LWPOLYLINE
  5
15d
100
AcDbEntity
  8
0
 62
7
100
AcDbPolyline
 90
2
 70
0
 10
60.049073
 20
28.003669
 30
0.0
 10
58.864442
 20
30.223608
 30
0.0
  0
LWPOLYLINE
  5
15e
100
AcDbEntity
  8
0
 62
7
100
AcDbPolyline
 90
2
 70
0
 10
58.864536
 20
30.223774
 30
0.0
 10
60.104188
 20
32.410017
 30
0.0
  0
LWPOLYLINE
  5
15f
100
AcDbEntity
  8
0
 62
7
100
AcDbPolyline
 90
2
 70
0
 10
60.103879
 20
32.409472
 30
0.0
 10
62.528689
 20
32.376705
 30
0.0
  0
LWPOLYLINE
  5
160
100
AcDbEntity
  8
0
 62
7
100
AcDbPolyline
 90
2
 70
0
 10
62.528595
 20
32.376540
 30
0.0
 10
61.343932
 20
34.596423
 30
0.0
  0
LWPOLYLINE
  5
161
100
AcDbEntity
  8
0
 62
7
100
AcDbPolyline
 90
2
 70
0
 10
61.344058
 20
34.596644
 30
0.0
 10
62.583679
 20
36.782833
 30
0.0
  0
LWPOLYLINE
  5
162
100
AcDbEntity
  8
0
 62
7
100
AcDbPolyline
 90
2
 70
0
 10
62.583401
 20
36.782343
 30
0.0
 10
65.008177
 20
36.749517
 30
0.0
  0
LWPOLYLINE
  5
163
100
AcDbEntity
  8
0
 62
7
100
AcDbPolyline
 90
2
 70
0
 10
65.008118
 20
36.749413
 30
0.0
 10
66.192935
 20
34.529798
 30
0.0
  0
LWPOLYLINE
  5
164
100
AcDbEntity
  8
0
 62
7
100
AcDbPolyline
 90
2
 70
0
 10
66.192657
 20
34.529308
 30
0.0
 10
67.432679
 20
36.716204
 30
0.0
  0
LWPOLYLINE
  5
165
100
AcDbEntity
  8
0
 62
7
100
AcDbPolyline
 90
2
 70
0
 10
67.432837
 20
36.716483
 30
0.0
 10
69.857176
 20
36.682893
 30
0.0
  0
LWPOLYLINE
  5
166
100
AcDbEntity
  8
0
 62
7
100
AcDbPolyline
 90
2
 70
0
 10
69.857553
 20
36.683557
 30
0.0
 10
71.041934
 20
34.463171
 30
0.0
  0
LWPOLYLINE
  5
167
100
AcDbEntity
  8
0
 62
7
100
AcDbPolyline
 90
2
 70
0
 10
71.042092
 20
34.463449
 30
0.0
 10
69.802189
 20
32.276765
 30
0.0
  0
LWPOLYLINE
  5
168
100
AcDbEntity
  8
0
 62
7
100
AcDbPolyline
 90
2
 70
0
 10
69.801912
 20
32.276275
 30
0.0
 10
72.226686
 20
32.243450
 30
0.0
  0
LWPOLYLINE
  5
169
100
AcDbEntity
  8
0
 62
7
100
AcDbPolyline
 90
2
 70
0
 10
72.226628
 20
32.243346
 30
0.0
 10
73.411444
 20
30.023731
 30
0.0
  0
LWPOLYLINE
  5
16a
100
AcDbEntity
  8
0
 62
7
100
AcDbPolyline
 90
2
 70
0
 10
73.411166
 20
30.023241
 30
0.0
 10
74.651188
 20
32.210137
 30
0.0
  0
LWPOLYLINE
  5
16b
100
AcDbEntity
  8
0
 62
7
100
AcDbPolyline
 90
2
 70
0
 10
74.651346
 20
32.210416
 30
0.0
 10
77.075687
 20
32.176825
 30
0.0
  0
LWPOLYLINE
  5
16c
100
AcDbEntity
  8
0
 62
7
100
AcDbPolyline
 90
2
 70
0
 10
77.076063
 20
32.177489
 30
0.0
 10
75.890934
 20
34.396546
 30
0.0
  0
LWPOLYLINE
  5
16d
100
AcDbEntity
  8
0
 62
7
100
AcDbPolyline
 90
2
 70
0
 10
75.890691
 20
34.396118
 30
0.0
 10
77.130687
 20
36.582966
 30
0.0
  0
LWPOLYLINE
  5
16e
100
AcDbEntity
  8
0
 62
7
100
AcDbPolyline
 90
2
 70
0
 10
77.130871
 20
36.583291
 30
0.0
 10
79.555185
 20
36.549654
 30
0.0
  0
LWPOLYLINE
  5
16f
100
AcDbEntity
  8
0
 62
7
100
AcDbPolyline
 90
2
 70
0
 10
79.555587
 20
36.550362
 30
0.0
 10
80.739938
 20
34.329934
 30
0.0
  0
LWPOLYLINE
  5
170
100
AcDbEntity
  8
0
 62
7
100
AcDbPolyline
 90
2
 70
0
 10
80.740123
 20
34.330259
 30
0.0
 10
81.979684
 20
36.516343
 30
0.0
  0
LWPOLYLINE
  5
171
100
AcDbEntity
  8
0
 62
7
100
AcDbPolyline
 90
3
 70
0
 10
81.979466
 20
36.515958
 30
0.0
 10
84.404185
 20
36.483028
 30
0.0
 10
83.219428
 20
38.702747
 30
0.0
  0
LWPOLYLINE
  5
172
100
AcDbEntity
  8
0
 62
7
100
AcDbPolyline
 90
2
 70
0
 10
83.219646
 20
38.703132
 30
0.0
 10
84.459174
 20
40.889156
 30
0.0
  0
LWPOLYLINE
  5
173
100
AcDbEntity
  8
0
 62
7
100
AcDbPolyline
 90
2
 70
0
 10
84.458990
 20
40.888831
 30
0.0
 10
82.034675
 20
40.922468
 30
0.0
  0
LWPOLYLINE
  5
174
100
AcDbEntity
  8
0
 62
7
100
AcDbPolyline
 90
2
 70
0
 10
82.034274
 20
40.921760
 30
0.0
 10
80.849922
 20
43.142188
 30
0.0
  0
LWPOLYLINE
  5
175
100
AcDbEntity
  8
0
 62
7
100
AcDbPolyline
 90
2
 70
0
 10
80.849738
 20
43.141863
 30
0.0
 10
82.089667
 20
45.328595
 30
0.0
  0
LWPOLYLINE
  5
176
100
AcDbEntity
  8
0
 62
7
100
AcDbPolyline
 90
2
 70
0
 10
82.089917
 20
45.329036
 30
0.0
 10
84.514166
 20
45.295283
 30
0.0
  0
LWPOLYLINE
  5
177
100
AcDbEntity
  8
0
 62
7
100
AcDbPolyline
 90
2
 70
0
 10
84.513797
 20
45.294633
 30
0.0
 10
83.329413
 20
47.515004
 30
0.0
  0
LWPOLYLINE
  5
178
100
AcDbEntity
  8
0
 62
7
100
AcDbPolyline
 90
2
 70
0
 10
83.329262
 20
47.514738
 30
0.0
 10
84.569166
 20
49.701424
 30
0.0
  0
LWPOLYLINE
  5
179
100
AcDbEntity
  8
0
 62
7
100
AcDbPolyline
 90
2
 70
0
 10
84.569442
 20
49.701911
 30
0.0
 10
82.144664
 20
49.734737
 30
0.0
  0
LWPOLYLINE
  5
17a
100
AcDbEntity
  8
0
 62
7
100
AcDbPolyline
 90
2
 70
0
 10
82.144722
 20
49.734840
 30
0.0
 10
80.959911
 20
51.954458
 30
0.0
  0
LWPOLYLINE
  5
17b
100
AcDbEntity
  8
0
 62
7
100
AcDbPolyline
 90
2
 70
0
 10
80.960187
 20
51.954945
 30
0.0
 10
79.720166
 20
49.768050
 30
0.0
  0
LWPOLYLINE
  5
17c
100
AcDbEntity
  8
0
 62
7
100
AcDbPolyline
 90
2
 70
0
 10
79.720008
 20
49.767772
 30
0.0
 10
77.295655
 20
49.801351
 30
0.0
  0
LWPOLYLINE
  5
17d
100
AcDbEntity
  8
0
 62
7
100
AcDbPolyline
 90
2
 70
0
 10
77.295287
 20
49.800701
 30
0.0
 10
76.110904
 20
52.021071
 30
0.0
  0
LWPOLYLINE
  5
17e
100
AcDbEntity
  8
0
 62
7
100
AcDbPolyline
 90
2
 70
0
 10
76.110753
 20
52.020805
 30
0.0
 10
77.350648
 20
54.207476
 30
0.0
  0
LWPOLYLINE
  5
17f
100
AcDbEntity
  8
0
 62
7
100
AcDbPolyline
 90
2
 70
0
 10
77.350933
 20
54.207978
 30
0.0
 10
74.926147
 20
54.240790
 30
0.0
  0
LWPOLYLINE
  5
180
100
AcDbEntity
  8
0
 62
7
100
AcDbPolyline
 90
2
 70
0
 10
74.926213
 20
54.240907
 30
0.0
 10
73.741401
 20
56.460526
 30
0.0
  0
LWPOLYLINE
  5
181
100
AcDbEntity
  8
0
 62
7
100
AcDbPolyline
 90
2
 70
0
 10
73.741677
 20
56.461013
 30
0.0
 10
74.981146
 20
58.646933
 30
0.0
  0
LWPOLYLINE
  5
182
100
AcDbEntity
  8
0
 62
7
100
AcDbPolyline
 90
2
 70
0
 10
74.981020
 20
58.646711
 30
0.0
 10
77.405645
 20
58.613620
 30
0.0
  0
LWPOLYLINE
  5
183
100
AcDbEntity
  8
0
 62
7
100
AcDbPolyline
 90
2
 70
0
 10
77.405738
 20
58.613782
 30
0.0
 10
76.220891
 20
60.833340
 30
0.0
  0
LWPOLYLINE
  5
184
100
AcDbEntity
  8
0
 62
7
100
AcDbPolyline
 90
2
 70
0
 10
76.221200
 20
60.833886
 30
0.0
 10
77.460636
 20
63.019747
 30
0.0
  0
LWPOLYLINE
  5
185
100
AcDbEntity
  8
0
 62
7
100
AcDbPolyline
 90
2
 70
0
 10
77.460544
 20
63.019585
 30
0.0
 10
79.885136
 20
62.986434
 30
0.0
  0
LWPOLYLINE
  5
186
100
AcDbEntity
  8
0
 62
7
100
AcDbPolyline
 90
2
 70
0
 10
79.885261
 20
62.986655
 30
0.0
 10
81.069892
 20
60.766713
 30
0.0
  0
LWPOLYLINE
  5
187
100
AcDbEntity
  8
0
 62
7
100
AcDbPolyline
 90
2
 70
0
 10
81.069800
 20
60.766551
 30
0.0
 10
82.309637
 20
62.953120
 30
0.0
  0
LWPOLYLINE
  5
188
100
AcDbEntity
  8
0
 62
7
100
AcDbPolyline
 90
2
 70
0
 10
82.309980
 20
62.953725
 30
0.0
 10
84.734134
 20
62.919808
 30
0.0
  0
LWPOLYLINE
  5
189
100
AcDbEntity
  8
0
 62
7
100
AcDbPolyline
 90
2
 70
0
 10
84.733858
 20
62.919322
 30
0.0
 10
83.549382
 20
65.139527
 30
0.0
  0
LWPOLYLINE
  5
18a
100
AcDbEntity
  8
0
 62
7
100
AcDbPolyline
 90
2
 70
0
 10
83.549324
 20
65.139424
 30
0.0
 10
84.789127
 20
67.325934
 30
0.0
  0
LWPOLYLINE
  5
18b
100
AcDbEntity
  8
0
 62
7
100
AcDbPolyline
 90
2
 70
0
 10
84.789504
 20
67.326599
 30
0.0
 10
82.364626
 20
67.359249
 30
0.0
  0
LWPOLYLINE
  5
18c
100
AcDbEntity
  8
0
 62
7
100
AcDbPolyline
 90
2
 70
0
 10
82.364785
 20
67.359529
 30
0.0
 10
81.179871
 20
69.578969
 30
0.0
  0
LWPOLYLINE
  5
18d
100
AcDbEntity
  8
0
 62
7
100
AcDbPolyline
 90
3
 70
0
 10
81.180248
 20
69.579633
 30
0.0
 10
82.419616
 20
71.765376
 30
0.0
 10
84.844116
 20
71.732063
 30
0.0
  0
LWPOLYLINE
  5
18e
100
AcDbEntity
  8
0
 62
7
100
AcDbPolyline
 90
2
 70
0
 10
84.844309
 20
71.732402
 30
0.0
 10
83.659361
 20
73.951783
 30
0.0
  0
LWPOLYLINE
  5
18f
100
AcDbEntity
  8
0
 62
7
100
AcDbPolyline
 90
3
 70
0
 10
83.659771
 20
73.952506
 30
0.0
 10
84.899115
 20
76.138205
 30
0.0
 10
82.474615
 20
76.171518
 30
0.0
  0
LWPOLYLINE
  5
190
100
AcDbEntity
  8
0
 62
7
100
AcDbPolyline
 90
3
 70
0
 10
82.474397
 20
76.171135
 30
0.0
 10
81.289860
 20
78.391239
 30
0.0
 10
80.050115
 20
76.204831
 30
0.0
  0
LWPOLYLINE
  5
191
100
AcDbEntity
  8
0
 62
7
100
AcDbPolyline
 90
2
 70
0
 10
80.050517
 20
76.205540
 30
0.0
 10
77.625615
 20
76.238145
 30
0.0
  0
LWPOLYLINE
  5
192
100
AcDbEntity
  8
0
 62
7
100
AcDbPolyline
 90
2
 70
0
 10
77.625799
 20
76.238469
 30
0.0
 10
76.440860
 20
78.457865
 30
0.0
  0
LWPOLYLINE
  5
193
100
AcDbEntity
  8
0
 62
7
100
AcDbPolyline
 90
3
 70
0
 10
76.441262
 20
78.458573
 30
0.0
 10
77.680606
 20
80.644272
 30
0.0
 10
75.256104
 20
80.677586
 30
0.0
  0
LWPOLYLINE
  5
194
100
AcDbEntity
  8
0
 62
7
100
AcDbPolyline
 90
3
 70
0
 10
75.255887
 20
80.677203
 30
0.0
 10
74.071352
 20
82.897305
 30
0.0
 10
72.831607
 20
80.710898
 30
0.0
  0
LWPOLYLINE
  5
195
100
AcDbEntity
  8
0
 62
7
100
AcDbPolyline
 90
2
 70
0
 10
72.832009
 20
80.711606
 30
0.0
 10
70.407106
 20
80.744212
 30
0.0
  0
LWPOLYLINE
  5
196
100
AcDbEntity
  8
0
 62
7
100
AcDbPolyline
 90
3
 70
0
 10
70.407290
 20
80.744537
 30
0.0
 10
71.591862
 20
78.524490
 30
0.0
 10
70.352117
 20
76.338083
 30
0.0
  0
LWPOLYLINE
  5
197
100
AcDbEntity
  8
0
 62
7
100
AcDbPolyline
 90
2
 70
0
 10
70.352485
 20
76.338733
 30
0.0
 10
67.927616
 20
76.371398
 30
0.0
  0
LWPOLYLINE
  5
198
100
AcDbEntity
  8
0
 62
7
100
AcDbPolyline
 90
2
 70
0
 10
67.927767
 20
76.371663
 30
0.0
 10
66.742861
 20
78.591118
 30
0.0
  0
LWPOLYLINE
  5
199
100
AcDbEntity
  8
0
 62
7
100
AcDbPolyline
 90
2
 70
0
 10
66.743229
 20
78.591767
 30
0.0
 10
65.503116
 20
76.404710
 30
0.0
  0
LWPOLYLINE
  5
19a
100
AcDbEntity
  8
0
 62
7
100
AcDbPolyline
 90
2
 70
0
 10
65.503049
 20
76.404593
 30
0.0
 10
63.078608
 20
76.438009
 30
0.0
  0
LWPOLYLINE
  5
19b
100
AcDbEntity
  8
0
 62
7
100
AcDbPolyline
 90
2
 70
0
 10
63.078332
 20
76.437522
 30
0.0
 10
61.893853
 20
78.657729
 30
0.0
  0
LWPOLYLINE
  5
19c
100
AcDbEntity
  8
0
 62
7
100
AcDbPolyline
 90
2
 70
0
 10
61.893795
 20
78.657626
 30
0.0
 10
63.133598
 20
80.844137
 30
0.0
  0
LWPOLYLINE
  5
19d
100
AcDbEntity
  8
0
 62
7
100
AcDbPolyline
 90
2
 70
0
 10
63.133975
 20
80.844801
 30
0.0
 10
60.709098
 20
80.877450
 30
0.0
  0
LWPOLYLINE
  5
19e
100
AcDbEntity
  8
0
 62
7
100
AcDbPolyline
 90
2
 70
0
 10
60.709257
 20
80.877731
 30
0.0
 10
59.524344
 20
83.097170
 30
0.0
  0
LWPOLYLINE
  5
19f
100
AcDbEntity
  8
0
 62
7
100
AcDbPolyline
 90
3
 70
0
 10
59.524721
 20
83.097834
 30
0.0
 10
60.764089
 20
85.283577
 30
0.0
 10
63.188588
 20
85.250264
 30
0.0
  0
LWPOLYLINE
  5
1a0
100
AcDbEntity
  8
0
 62
7
100
AcDbPolyline
 90
2
 70
0
 10
63.188781
 20
85.250604
 30
0.0
 10
62.003834
 20
87.469984
 30
0.0
  0
LWPOLYLINE
  5
1a1
100
AcDbEntity
  8
0
 62
7
100
AcDbPolyline
 90
3
 70
0
 10
62.004244
 20
87.470707
 30
0.0
 10
63.243588
 20
89.656406
 30
0.0
 10
60.819088
 20
89.689719
 30
0.0
  0
LWPOLYLINE
  5
1a2
100
AcDbEntity
  8
0
 62
7
100
AcDbPolyline
 90
3
 70
0
 10
60.818870
 20
89.689336
 30
0.0
 10
59.634333
 20
91.909440
 30
0.0
 10
58.394588
 20
89.723033
 30
0.0
  0
LWPOLYLINE
  5
1a3
100
AcDbEntity
  8
0
 62
7
100
AcDbPolyline
 90
2
 70
0
 10
58.394989
 20
89.723741
 30
0.0
 10
55.970088
 20
89.756346
 30
0.0
  0
LWPOLYLINE
  5
1a4
100
AcDbEntity
  8
0
 62
7
100
AcDbPolyline
 90
2
 70
0
 10
55.970272
 20
89.756671
 30
0.0
 10
54.785333
 20
91.976066
 30
0.0
  0
LWPOLYLINE
  5
1a5
100
AcDbEntity
  8
0
 62
7
100
AcDbPolyline
 90
3
 70
0
 10
54.785735
 20
91.976775
 30
0.0
 10
56.025078
 20
94.162473
 30
0.0
 10
53.600578
 20
94.195787
 30
0.0
  0
LWPOLYLINE
  5
1a6
100
AcDbEntity
  8
0
 62
7
100
AcDbPolyline
 90
2
 70
0
 10
53.600361
 20
94.195403
 30
0.0
 10
52.415824
 20
96.415507
 30
0.0
  0
SPLINE
  5
1a7
100
AcDbEntity
  8
0
 62
7
100
AcDbSpline
 70
0
 71
3
 72
31
 73
27
 74
25
 40
0.000000
 40
0.000000
 40
0.000000
 40
0.000000
 40
0.311300
 40
0.671210
 40
0.845202
 40
1.473770
 40
1.832137
 40
1.962118
 40
2.094080
 40
2.266862
 40
2.353933
 40
2.398424
 40
2.481711
 40
2.530399
 40
2.700974
 40
2.846327
 40
2.910146
 40
3.148781
 40
3.352784
 40
3.443006
 40
3.962588
 40
4.662759
 40
5.014458
 40
5.484000
 40
6.080815
 40
6.375362
 40
6.375362
 40
6.375362
 40
6.375362
 10
59.793907
 20
65.337862
 30
0.0
 10
59.694947
 20
65.304926
 30
0.0
 10
59.481572
 20
65.233912
 30
0.0
 10
59.196809
 20
65.228582
 30
0.0
 10
58.810369
 20
65.224674
 30
0.0
 10
58.417817
 20
65.257021
 30
0.0
 10
58.076163
 20
65.439064
 30
0.0
 10
57.945965
 20
65.601188
 30
0.0
 10
57.870622
 20
65.726113
 30
0.0
 10
57.843886
 20
65.857807
 30
0.0
 10
57.833312
 20
65.955329
 30
0.0
 10
57.808204
 20
66.030319
 30
0.0
 10
57.872403
 20
66.066779
 30
0.0
 10
57.948754
 20
66.126302
 30
0.0
 10
58.037674
 20
66.216158
 30
0.0
 10
58.161030
 20
66.255377
 30
0.0
 10
58.307342
 20
66.281888
 30
0.0
 10
58.474615
 20
66.326636
 30
0.0
 10
58.649608
 20
66.293159
 30
0.0
 10
58.913132
 20
66.165308
 30
0.0
 10
59.043060
 20
66.846552
 30
0.0
 10
59.413500
 20
67.124756
 30
0.0
 10
59.771201
 20
67.508124
 30
0.0
 10
59.917884
 20
67.964034
 30
0.0
 10
60.144549
 20
68.357652
 30
0.0
 10
60.282766
 20
68.620641
 30
0.0
 10
60.328440
 20
68.707545
 30
0.0
 11
59.793907
 21
65.337862
 31
0.0
 11
59.494279
 21
65.253420
 31
0.0
 11
59.135259
 21
65.228124
 31
0.0
 11
58.961269
 21
65.227380
 31
0.0
 11
58.339361
 21
65.318644
 31
0.0
 11
58.031547
 21
65.502159
 31
0.0
 11
57.948740
 21
65.602347
 31
0.0
 11
57.883701
 21
65.717169
 31
0.0
 11
57.841885
 21
65.884814
 31
0.0
 11
57.827100
 21
65.970621
 31
0.0
 11
57.820184
 21
66.014571
 31
0.0
 11
57.879133
 21
66.073409
 31
0.0
 11
57.917903
 21
66.102860
 31
0.0
 11
58.051281
 21
66.209189
 31
0.0
 11
58.187707
 21
66.259346
 31
0.0
 11
58.250272
 21
66.271931
 31
0.0
 11
58.485812
 21
66.310246
 31
0.0
 11
58.686325
 21
66.272675
 31
0.0
 11
58.771099
 21
66.241800
 31
0.0
 11
59.055370
 21
66.676720
 31
0.0
 11
59.495357
 21
67.221377
 31
0.0
 11
59.723663
 21
67.488901
 31
0.0
 11
59.917768
 21
67.916443
 31
0.0
 11
60.190301
 21
68.447399
 31
0.0
 11
60.328440
 21
68.707545
 31
0.0
  0
LWPOLYLINE
  5
1a8
100
AcDbEntity
  8
0
 62
7
100
AcDbPolyline
 90
2
 70
0
 10
60.328440
 20
68.707545
 30
0.0
 10
60.222217
 20
68.640587
 30
0.0
  0
SPLINE
  5
1a9
100
AcDbEntity
  8
0
 62
7
100
AcDbSpline
 70
0
 71
3
 72
13
 73
9
 74
7
 40
0.000000
 40
0.000000
 40
0.000000
 40
0.000000
 40
0.274379
 40
0.497810
 40
0.592739
 40
0.842368
 40
1.124836
 40
1.260104
 40
1.260104
 40
1.260104
 40
1.260104
 10
60.222217
 20
68.640587
 30
0.0
 10
60.272462
 20
68.720219
 30
0.0
 10
60.363623
 20
68.864697
 30
0.0
 10
60.389224
 20
69.048328
 30
0.0
 10
60.440561
 20
69.267691
 30
0.0
 10
60.116017
 20
69.191536
 30
0.0
 10
59.943734
 20
69.300299
 30
0.0
 10
59.811141
 20
69.348221
 30
0.0
 10
59.768206
 20
69.363738
 30
0.0
 11
60.222217
 21
68.640587
 31
0.0
 11
60.351791
 21
68.882444
 31
0.0
 11
60.402174
 21
69.100120
 31
0.0
 11
60.410677
 21
69.194667
 31
0.0
 11
60.163397
 21
69.228834
 31
0.0
 11
59.894416
 21
69.315072
 31
0.0
 11
59.768206
 21
69.363738
 31
0.0
  0
LWPOLYLINE
  5
1aa
100
AcDbEntity
  8
0
 62
7
100
AcDbPolyline
 90
2
 70
0
 10
59.768206
 20
69.363738
 30
0.0
 10
59.843591
 20
69.281715
 30
0.0
  0
SPLINE
  5
1ab
100
AcDbEntity
  8
0
 62
7
100
AcDbSpline
 70
0
 71
3
 72
10
 73
6
 74
4
 40
0.000000
 40
0.000000
 40
0.000000
 40
0.000000
 40
0.341784
 40
0.702842
 40
0.872484
 40
0.872484
 40
0.872484
 40
0.872484
 10
59.843591
 20
69.281715
 30
0.0
 10
59.730585
 20
69.300697
 30
0.0
 10
59.498202
 20
69.339733
 30
0.0
 10
59.237288
 20
69.475586
 30
0.0
 10
59.083952
 20
69.563344
 30
0.0
 10
59.034937
 20
69.591396
 30
0.0
 11
59.843591
 21
69.281715
 31
0.0
 11
59.509824
 21
69.355311
 31
0.0
 11
59.182530
 21
69.507763
 31
0.0
 11
59.034937
 21
69.591396
 31
0.0
  0
LWPOLYLINE
  5
1ac
100
AcDbEntity
  8
0
 62
7
100
AcDbPolyline
 90
2
 70
0
 10
59.034937
 20
69.591396
 30
0.0
 10
59.103469
 20
69.509370
 30
0.0
  0
SPLINE
  5
1ad
100
AcDbEntity
  8
0
 62
7
100
AcDbSpline
 70
0
 71
3
 72
10
 73
6
 74
4
 40
0.000000
 40
0.000000
 40
0.000000
 40
0.000000
 40
0.170086
 40
0.372279
 40
0.470377
 40
0.470377
 40
0.470377
 40
0.470377
 10
59.103469
 20
69.509370
 30
0.0
 10
59.047753
 20
69.520486
 30
0.0
 10
58.925805
 20
69.544817
 30
0.0
 10
58.780223
 20
69.604879
 30
0.0
 10
58.688114
 20
69.643927
 30
0.0
 10
58.658024
 20
69.656682
 30
0.0
 11
59.103469
 21
69.509370
 31
0.0
 11
58.937727
 21
69.547562
 31
0.0
 11
58.748382
 21
69.618490
 31
0.0
 11
58.658024
 21
69.656682
 31
0.0
  0
LWPOLYLINE
  5
1ae
100
AcDbEntity
  8
0
 62
7
100
AcDbPolyline
 90
2
 70
0
 10
58.658024
 20
69.656682
 30
0.0
 10
58.664851
 20
69.598093
 30
0.0
  0
SPLINE
  5
1af
100
AcDbEntity
  8
0
 62
7
100
AcDbSpline
 70
0
 71
3
 72
25
 73
21
 74
19
 40
0.000000
 40
0.000000
 40
0.000000
 40
0.000000
 40
0.103440
 40
0.232053
 40
0.295363
 40
0.561691
 40
0.959955
 40
1.165330
 40
1.333822
 40
1.485147
 40
1.554609
 40
1.788914
 40
1.948277
 40
2.011671
 40
2.212511
 40
2.325677
 40
2.379078
 40
2.581266
 40
2.845001
 40
2.977230
 40
2.977230
 40
2.977230
 40
2.977230
 10
58.664851
 20
69.598093
 30
0.0
 10
58.632398
 20
69.610075
 30
0.0
 10
58.559594
 20
69.636955
 30
0.0
 10
58.461371
 20
69.648616
 30
0.0
 10
58.309991
 20
69.671820
 30
0.0
 10
58.067727
 20
69.618237
 30
0.0
 10
57.776813
 20
69.650440
 30
0.0
 10
57.521890
 20
69.665459
 30
0.0
 10
57.342418
 20
69.670458
 30
0.0
 10
57.230366
 20
69.745466
 30
0.0
 10
57.123646
 20
69.854002
 30
0.0
 10
56.966007
 20
69.896733
 30
0.0
 10
56.865130
 20
70.020729
 30
0.0
 10
56.815631
 20
70.153451
 30
0.0
 10
56.686145
 20
70.228782
 30
0.0
 10
56.709916
 20
70.369535
 30
0.0
 10
56.794621
 20
70.458741
 30
0.0
 10
56.880144
 20
70.612987
 30
0.0
 10
57.045237
 20
70.731608
 30
0.0
 10
57.149715
 20
70.811744
 30
0.0
 10
57.184605
 20
70.838504
 30
0.0
 11
58.664851
 21
69.598093
 31
0.0
 11
58.566624
 21
69.630518
 31
0.0
 11
58.439845
 21
69.652155
 31
0.0
 11
58.377026
 21
69.660029
 31
0.0
 11
58.111471
 21
69.639757
 31
0.0
 11
57.713426
 21
69.652965
 31
0.0
 11
57.508407
 21
69.665056
 31
0.0
 11
57.341335
 21
69.686881
 31
0.0
 11
57.212335
 21
69.765991
 31
0.0
 11
57.160620
 21
69.812366
 31
0.0
 11
56.957187
 21
69.928613
 31
0.0
 11
56.855789
 21
70.051556
 31
0.0
 11
56.828251
 21
70.108657
 31
0.0
 11
56.708449
 21
70.269854
 31
0.0
 11
56.726469
 21
70.381576
 31
0.0
 11
56.759718
 21
70.423363
 31
0.0
 11
56.879775
 21
70.586047
 31
0.0
 11
57.079400
 21
70.758402
 31
0.0
 11
57.184605
 21
70.838504
 31
0.0
  0
LWPOLYLINE
  5
1b0
100
AcDbEntity
  8
0
 62
7
100
AcDbPolyline
 90
2
 70
0
 10
57.184605
 20
70.838504
 30
0.0
 10
57.552952
 20
71.277083
 30
0.0
  0
SPLINE
  5
1b1
100
AcDbEntity
  8
0
 62
7
100
AcDbSpline
 70
0
 71
3
 72
40
 73
36
 74
34
 40
0.000000
 40
0.000000
 40
0.000000
 40
0.000000
 40
0.385152
 40
1.006697
 40
1.355014
 40
1.573266
 40
1.651728
 40
1.687580
 40
2.067321
 40
2.367600
 40
2.491719
 40
2.711561
 40
3.179461
 40
3.609083
 40
3.963502
 40
4.718596
 40
5.419194
 40
5.699932
 40
6.363150
 40
7.248984
 40
7.538869
 40
8.312104
 40
9.438124
 40
10.161337
 40
11.697598
 40
13.117354
 40
13.717387
 40
15.116328
 40
16.848632
 40
17.071107
 40
17.510515
 40
17.913902
 40
18.036340
 40
18.283332
 40
18.482639
 40
18.482639
 40
18.482639
 40
18.482639
 10
57.552952
 20
71.277083
 30
0.0
 10
57.569630
 20
71.411364
 30
0.0
 10
57.613221
 20
71.762343
 30
0.0
 10
58.092896
 20
71.960738
 30
0.0
 10
58.474956
 20
72.067336
 30
0.0
 10
58.617484
 20
72.245929
 30
0.0
 10
58.755336
 20
72.237544
 30
0.0
 10
58.803315
 20
72.060512
 30
0.0
 10
59.139272
 20
72.338126
 30
0.0
 10
59.379652
 20
72.290721
 30
0.0
 10
59.597085
 20
72.267987
 30
0.0
 10
59.862503
 20
72.331247
 30
0.0
 10
60.232394
 20
72.374629
 30
0.0
 10
60.650578
 20
72.385127
 30
0.0
 10
61.156765
 20
72.471283
 30
0.0
 10
61.755296
 20
72.560706
 30
0.0
 10
62.301033
 20
72.762883
 30
0.0
 10
62.821188
 20
72.927947
 30
0.0
 10
63.456186
 20
73.006599
 30
0.0
 10
64.000731
 20
72.649694
 30
0.0
 10
64.650444
 20
72.584849
 30
0.0
 10
65.378565
 20
72.539633
 30
0.0
 10
66.252933
 20
72.615235
 30
0.0
 10
67.369369
 20
72.784491
 30
0.0
 10
68.585767
 20
72.877784
 30
0.0
 10
69.798101
 20
72.894767
 30
0.0
 10
70.867048
 20
72.482611
 30
0.0
 10
71.984405
 20
71.909482
 30
0.0
 10
72.731973
 20
71.024357
 30
0.0
 10
73.163479
 20
70.369033
 30
0.0
 10
73.380100
 20
70.036443
 30
0.0
 10
73.199359
 20
69.717886
 30
0.0
 10
73.243324
 20
69.462129
 30
0.0
 10
73.260007
 20
69.270662
 30
0.0
 10
73.331058
 20
69.138287
 30
0.0
 10
73.362788
 20
69.079171
 30
0.0
 11
57.552952
 21
71.277083
 31
0.0
 11
57.648768
 21
71.650126
 31
0.0
 11
58.176701
 21
71.978160
 31
0.0
 11
58.495237
 21
72.119083
 31
0.0
 11
58.679444
 21
72.236137
 31
0.0
 11
58.755905
 21
72.218530
 31
0.0
 11
58.771070
 21
72.186043
 31
0.0
 11
59.140435
 21
72.274205
 31
0.0
 11
59.440507
 21
72.285364
 31
0.0
 11
59.564304
 21
72.276436
 31
0.0
 11
59.781696
 21
72.309171
 31
0.0
 11
60.245794
 21
72.368690
 31
0.0
 11
60.674485
 21
72.396961
 31
0.0
 11
61.025194
 21
72.448110
 31
0.0
 11
61.766903
 21
72.589653
 31
0.0
 11
62.433991
 21
72.803734
 31
0.0
 11
62.702780
 21
72.884766
 31
0.0
 11
63.364474
 21
72.929714
 31
0.0
 11
64.202061
 21
72.641359
 31
0.0
 11
64.489252
 21
72.601928
 31
0.0
 11
65.261482
 21
72.562497
 31
0.0
 11
66.384736
 21
72.641359
 31
0.0
 11
67.101444
 21
72.738139
 31
0.0
 11
68.632516
 21
72.864306
 31
0.0
 11
70.049371
 21
72.773601
 31
0.0
 11
70.614870
 21
72.572974
 31
0.0
 11
71.836733
 21
71.891735
 31
0.0
 11
73.003010
 21
70.610846
 31
0.0
 11
73.126110
 21
70.425532
 31
0.0
 11
73.297941
 21
70.021115
 31
0.0
 11
73.222302
 21
69.624882
 31
0.0
 11
73.235120
 21
69.503117
 31
0.0
 11
73.279157
 21
69.260083
 31
0.0
 11
73.362788
 21
69.079171
 31
0.0
  0
LWPOLYLINE
  5
1b2
100
AcDbEntity
  8
0
 62
7
100
AcDbPolyline
 90
2
 70
0
 10
73.362788
 20
69.079171
 30
0.0
 10
73.258283
 20
69.166216
 30
0.0
  0
SPLINE
  5
1b3
100
AcDbEntity
  8
0
 62
7
100
AcDbSpline
 70
0
 71
3
 72
10
 73
6
 74
4
 40
0.000000
 40
0.000000
 40
0.000000
 40
0.000000
 40
0.058469
 40
0.179765
 40
0.298277
 40
0.298277
 40
0.298277
 40
0.298277
 10
73.258283
 20
69.166216
 30
0.0
 10
73.259377
 20
69.146856
 30
0.0
 10
73.262739
 20
69.087334
 30
0.0
 10
73.277568
 20
68.984475
 30
0.0
 10
73.334602
 20
68.925737
 30
0.0
 10
73.362788
 20
68.896709
 30
0.0
 11
73.258283
 21
69.166216
 31
0.0
 11
73.262154
 21
69.107876
 31
0.0
 11
73.289248
 21
68.989645
 31
0.0
 11
73.362788
 21
68.896709
 31
0.0
  0
LWPOLYLINE
  5
1b4
100
AcDbEntity
  8
0
 62
7
100
AcDbPolyline
 90
2
 70
0
 10
73.362788
 20
68.896709
 30
0.0
 10
73.258283
 20
68.948602
 30
0.0
  0
SPLINE
  5
1b5
100
AcDbEntity
  8
0
 62
7
100
AcDbSpline
 70
0
 71
3
 72
13
 73
9
 74
7
 40
0.000000
 40
0.000000
 40
0.000000
 40
0.000000
 40
0.173980
 40
0.584484
 40
1.080594
 40
1.164293
 40
1.328702
 40
1.459297
 40
1.459297
 40
1.459297
 40
1.459297
 10
73.258283
 20
68.948602
 30
0.0
 10
73.258067
 20
68.890664
 30
0.0
 10
73.257342
 20
68.696022
 30
0.0
 10
73.225786
 20
68.332956
 30
0.0
 10
73.084855
 20
68.028662
 30
0.0
 10
73.016443
 20
67.791949
 30
0.0
 10
72.979384
 20
67.664915
 30
0.0
 10
73.014770
 20
67.570763
 30
0.0
 10
73.030435
 20
67.529083
 30
0.0
 11
73.258283
 21
68.948602
 31
0.0
 11
73.256187
 21
68.774634
 31
0.0
 11
73.207263
 21
68.367056
 31
0.0
 11
73.047553
 21
67.897356
 31
0.0
 11
73.023695
 21
67.817130
 31
0.0
 11
72.996032
 21
67.655065
 31
0.0
 11
73.030435
 21
67.529083
 31
0.0
  0
LWPOLYLINE
  5
1b6
100
AcDbEntity
  8
0
 62
7
100
AcDbPolyline
 90
2
 70
0
 10
73.030435
 20
67.529083
 30
0.0
 10
72.943059
 20
67.639562
 30
0.0
  0
SPLINE
  5
1b7
100
AcDbEntity
  8
0
 62
7
100
AcDbSpline
 70
0
 71
3
 72
10
 73
6
 74
4
 40
0.000000
 40
0.000000
 40
0.000000
 40
0.000000
 40
0.042257
 40
0.136838
 40
0.245341
 40
0.245341
 40
0.245341
 40
0.245341
 10
72.943059
 20
67.639562
 30
0.0
 10
72.939782
 20
67.625896
 30
0.0
 10
72.929170
 20
67.581643
 30
0.0
 10
72.920781
 20
67.497960
 30
0.0
 10
72.946458
 20
67.434233
 30
0.0
 10
72.960177
 20
67.400186
 30
0.0
 11
72.943059
 21
67.639562
 31
0.0
 11
72.933794
 21
67.598334
 31
0.0
 11
72.928333
 21
67.503911
 31
0.0
 11
72.960177
 21
67.400186
 31
0.0
  0
LWPOLYLINE
  5
1b8
100
AcDbEntity
  8
0
 62
7
100
AcDbPolyline
 90
2
 70
0
 10
72.960177
 20
67.400186
 30
0.0
 10
72.881368
 20
67.460450
 30
0.0
  0
SPLINE
  5
1b9
100
AcDbEntity
  8
0
 62
7
100
AcDbSpline
 70
0
 71
3
 72
10
 73
6
 74
4
 40
0.000000
 40
0.000000
 40
0.000000
 40
0.000000
 40
0.063988
 40
0.201692
 40
0.339188
 40
0.339188
 40
0.339188
 40
0.339188
 10
72.881368
 20
67.460450
 30
0.0
 10
72.879108
 20
67.439283
 30
0.0
 10
72.871985
 20
67.372562
 30
0.0
 10
72.867257
 20
67.257514
 30
0.0
 10
72.899515
 20
67.170704
 30
0.0
 10
72.915632
 20
67.127332
 30
0.0
 11
72.881368
 21
67.460450
 31
0.0
 11
72.875023
 21
67.396778
 31
0.0
 11
72.876291
 21
67.259079
 31
0.0
 11
72.915632
 21
67.127332
 31
0.0
  0
LWPOLYLINE
  5
1ba
100
AcDbEntity
  8
0
 62
7
100
AcDbPolyline
 90
2
 70
0
 10
72.915632
 20
67.127332
 30
0.0
 10
72.845390
 20
67.229445
 30
0.0
  0
SPLINE
  5
1bb
100
AcDbEntity
  8
0
 62
7
100
AcDbSpline
 70
0
 71
3
 72
10
 73
6
 74
4
 40
0.000000
 40
0.000000
 40
0.000000
 40
0.000000
 40
0.086330
 40
0.295701
 40
0.634277
 40
0.634277
 40
0.634277
 40
0.634277
 10
72.845390
 20
67.229445
 30
0.0
 10
72.833611
 20
67.203118
 30
0.0
 10
72.793264
 20
67.112941
 30
0.0
 10
72.797593
 20
66.886618
 30
0.0
 10
72.913968
 20
66.739489
 30
0.0
 10
72.985876
 20
66.648579
 30
0.0
 11
72.845390
 21
67.229445
 31
0.0
 11
72.813663
 21
67.149156
 31
0.0
 11
72.813156
 21
66.939786
 31
0.0
 11
72.985876
 21
66.648579
 31
0.0
  0
LWPOLYLINE
  5
1bc
100
AcDbEntity
  8
0
 62
7
100
AcDbPolyline
 90
2
 70
0
 10
72.985876
 20
66.648579
 30
0.0
 10
72.889936
 20
66.682056
 30
0.0
  0
SPLINE
  5
1bd
100
AcDbEntity
  8
0
 62
7
100
AcDbSpline
 70
0
 71
3
 72
10
 73
6
 74
4
 40
0.000000
 40
0.000000
 40
0.000000
 40
0.000000
 40
0.232860
 40
0.695832
 40
1.035589
 40
1.035589
 40
1.035589
 40
1.035589
 10
72.889936
 20
66.682056
 30
0.0
 10
72.941010
 20
66.623609
 30
0.0
 10
73.093631
 20
66.448957
 30
0.0
 10
73.320993
 20
66.189165
 30
0.0
 10
73.491199
 20
65.982686
 30
0.0
 10
73.563239
 20
65.895294
 30
0.0
 11
72.889936
 21
66.682056
 31
0.0
 11
73.043176
 21
66.506725
 31
0.0
 11
73.346039
 21
66.156557
 31
0.0
 11
73.563239
 21
65.895294
 31
0.0
  0
LWPOLYLINE
  5
1be
100
AcDbEntity
  8
0
 62
7
100
AcDbPolyline
 90
2
 70
0
 10
73.563239
 20
65.895294
 30
0.0
 10
73.388487
 20
65.980670
 30
0.0
  0
SPLINE
  5
1bf
100
AcDbEntity
  8
0
 62
7
100
AcDbSpline
 70
0
 71
3
 72
13
 73
9
 74
7
 40
0.000000
 40
0.000000
 40
0.000000
 40
0.000000
 40
0.146014
 40
0.450245
 40
0.715931
 40
0.778377
 40
0.912913
 40
1.061547
 40
1.061547
 40
1.061547
 40
1.061547
 10
73.388487
 20
65.980670
 30
0.0
 10
73.421735
 20
65.945189
 30
0.0
 10
73.524256
 20
65.835782
 30
0.0
 10
73.690258
 20
65.661660
 30
0.0
 10
73.783367
 20
65.469382
 30
0.0
 10
73.877455
 20
65.347966
 30
0.0
 10
73.962280
 20
65.262629
 30
0.0
 10
74.057876
 20
65.247202
 30
0.0
 10
74.108053
 20
65.239104
 30
0.0
 11
73.388487
 21
65.980670
 31
0.0
 11
73.488427
 21
65.874218
 31
0.0
 11
73.685451
 21
65.642403
 31
0.0
 11
73.825365
 21
65.416541
 31
0.0
 11
73.863628
 21
65.367191
 31
0.0
 11
73.964710
 21
65.278410
 31
0.0
 11
74.108053
 21
65.239104
 31
0.0
  0
LWPOLYLINE
  5
1c0
100
AcDbEntity
  8
0
 62
7
100
AcDbPolyline
 90
5
 70
0
 10
74.108053
 20
65.239104
 30
0.0
 10
74.010396
 20
65.220689
 30
0.0
 10
74.164590
 20
65.135316
 30
0.0
 10
73.984699
 20
64.993031
 30
0.0
 10
74.120044
 20
64.993031
 30
0.0
  0
SPLINE
  5
1c1
100
AcDbEntity
  8
0
 62
7
100
AcDbSpline
 70
0
 71
3
 72
10
 73
6
 74
4
 40
0.000000
 40
0.000000
 40
0.000000
 40
0.000000
 40
0.212460
 40
0.639772
 40
0.969126
 40
0.969126
 40
0.969126
 40
0.969126
 10
74.120044
 20
64.993031
 30
0.0
 10
74.070780
 20
64.942189
 30
0.0
 10
73.922431
 20
64.789092
 30
0.0
 10
73.696981
 20
64.556429
 30
0.0
 10
73.495174
 20
64.404597
 30
0.0
 10
73.407334
 20
64.338510
 30
0.0
 11
74.120044
 21
64.993031
 31
0.0
 11
73.972197
 21
64.840451
 31
0.0
 11
73.665970
 21
64.542423
 31
0.0
 11
73.407334
 21
64.338510
 31
0.0
  0
LWPOLYLINE
  5
1c2
100
AcDbEntity
  8
0
 62
7
100
AcDbPolyline
 90
2
 70
0
 10
73.407334
 20
64.338510
 30
0.0
 10
73.582086
 20
64.382034
 30
0.0
  0
SPLINE
  5
1c3
100
AcDbEntity
  8
0
 62
7
100
AcDbSpline
 70
0
 71
3
 72
16
 73
12
 74
10
 40
0.000000
 40
0.000000
 40
0.000000
 40
0.000000
 40
0.264171
 40
0.843487
 40
1.443620
 40
1.470740
 40
1.533338
 40
1.620020
 40
1.732553
 40
1.995576
 40
2.344562
 40
2.344562
 40
2.344562
 40
2.344562
 10
73.582086
 20
64.382034
 30
0.0
 10
73.518026
 20
64.318698
 30
0.0
 10
73.313488
 20
64.116470
 30
0.0
 10
73.120233
 20
63.764623
 30
0.0
 10
72.255558
 20
63.670516
 30
0.0
 10
72.450665
 20
63.527712
 30
0.0
 10
72.498947
 20
63.502167
 30
0.0
 10
72.639378
 20
63.545546
 30
0.0
 10
72.390532
 20
63.442903
 30
0.0
 10
72.211241
 20
63.420023
 30
0.0
 10
72.003003
 20
63.487921
 30
0.0
 10
71.884260
 20
63.526638
 30
0.0
 11
73.582086
 21
64.382034
 31
0.0
 11
73.398895
 21
64.191698
 31
0.0
 11
72.957195
 21
63.816854
 31
0.0
 11
72.418792
 21
63.551747
 31
0.0
 11
72.440556
 21
63.535566
 31
0.0
 11
72.499250
 21
63.513805
 31
0.0
 11
72.584977
 21
63.526638
 31
0.0
 11
72.481357
 21
63.482743
 31
0.0
 11
72.222023
 21
63.438848
 31
0.0
 11
71.884260
 21
63.526638
 31
0.0
  0
LWPOLYLINE
  5
1c4
100
AcDbEntity
  8
0
 62
7
100
AcDbPolyline
 90
2
 70
0
 10
71.884260
 20
63.526638
 30
0.0
 10
71.937369
 20
63.404438
 30
0.0
  0
SPLINE
  5
1c5
100
AcDbEntity
  8
0
 62
7
100
AcDbSpline
 70
0
 71
3
 72
13
 73
9
 74
7
 40
0.000000
 40
0.000000
 40
0.000000
 40
0.000000
 40
0.116525
 40
0.363679
 40
0.632707
 40
0.709153
 40
0.885559
 40
1.119352
 40
1.119352
 40
1.119352
 40
1.119352
 10
71.937369
 20
63.404438
 30
0.0
 10
71.902176
 20
63.420817
 30
0.0
 10
71.792335
 20
63.471936
 30
0.0
 10
71.616187
 20
63.594965
 30
0.0
 10
71.522922
 20
63.787045
 30
0.0
 10
71.524434
 20
63.960981
 30
0.0
 10
71.558245
 20
64.126625
 30
0.0
 10
71.660049
 20
64.223202
 30
0.0
 10
71.718072
 20
64.278245
 30
0.0
 11
71.937369
 21
63.404438
 31
0.0
 11
71.832671
 21
63.455587
 31
0.0
 11
71.636599
 21
63.606057
 31
0.0
 11
71.526191
 21
63.851385
 31
0.0
 11
71.525683
 21
63.927829
 31
0.0
 11
71.567815
 21
64.099131
 31
0.0
 11
71.718072
 21
64.278245
 31
0.0
  0
LWPOLYLINE
  5
1c6
100
AcDbEntity
  8
0
 62
7
100
AcDbPolyline
 90
2
 70
0
 10
71.718072
 20
64.278245
 30
0.0
 10
71.605000
 20
64.261497
 30
0.0
  0
SPLINE
  5
1c7
100
AcDbEntity
  8
0
 62
7
100
AcDbSpline
 70
0
 71
3
 72
19
 73
15
 74
13
 40
0.000000
 40
0.000000
 40
0.000000
 40
0.000000
 40
0.068617
 40
0.225358
 40
0.397975
 40
0.473321
 40
0.639014
 40
0.872703
 40
1.047199
 40
1.391706
 40
1.646008
 40
1.811756
 40
2.141367
 40
2.422388
 40
2.422388
 40
2.422388
 40
2.422388
 10
71.605000
 20
64.261497
 30
0.0
 10
71.622910
 20
64.275799
 30
0.0
 10
71.681732
 20
64.322769
 30
0.0
 10
71.777435
 20
64.411581
 30
0.0
 10
71.934889
 20
64.444162
 30
0.0
 10
71.962295
 20
64.588104
 30
0.0
 10
71.962436
 20
64.750932
 30
0.0
 10
71.818141
 20
64.900599
 30
0.0
 10
71.593025
 20
65.021435
 30
0.0
 10
71.388000
 20
65.091528
 30
0.0
 10
71.163932
 20
65.471066
 30
0.0
 10
71.166089
 20
65.110926
 30
0.0
 10
71.126104
 20
64.885943
 30
0.0
 10
71.242875
 20
64.704775
 30
0.0
 10
71.296615
 20
64.621399
 30
0.0
 11
71.605000
 21
64.261497
 31
0.0
 11
71.658301
 21
64.304710
 31
0.0
 11
71.784700
 21
64.397397
 31
0.0
 11
71.933943
 21
64.484134
 31
0.0
 11
71.954756
 21
64.556548
 31
0.0
 11
71.945111
 21
64.721960
 31
0.0
 11
71.796884
 21
64.902622
 31
0.0
 11
71.645864
 21
64.990041
 31
0.0
 11
71.358546
 21
65.180130
 31
0.0
 11
71.183542
 21
65.364638
 31
0.0
 11
71.162602
 21
65.200218
 31
0.0
 11
71.166789
 21
64.870634
 31
0.0
 11
71.296615
 21
64.621399
 31
0.0
  0
LWPOLYLINE
  5
1c8
100
AcDbEntity
  8
0
 62
7
100
AcDbPolyline
 90
2
 70
0
 10
71.296615
 20
64.621399
 30
0.0
 10
71.183542
 20
64.664921
 30
0.0
  0
SPLINE
  5
1c9
100
AcDbEntity
  8
0
 62
7
100
AcDbSpline
 70
0
 71
3
 72
19
 73
15
 74
13
 40
0.000000
 40
0.000000
 40
0.000000
 40
0.000000
 40
0.060197
 40
0.185680
 40
0.310153
 40
0.341939
 40
0.424286
 40
0.540921
 40
0.579157
 40
0.661822
 40
0.747137
 40
0.866295
 40
1.142747
 40
1.466912
 40
1.466912
 40
1.466912
 40
1.466912
 10
71.183542
 20
64.664921
 30
0.0
 10
71.193179
 20
64.646894
 30
0.0
 10
71.222905
 20
64.591288
 30
0.0
 10
71.245706
 20
64.504618
 30
0.0
 10
71.440994
 20
64.450887
 30
0.0
 10
71.339340
 20
64.447364
 30
0.0
 10
71.286016
 20
64.437540
 30
0.0
 10
71.136310
 20
64.508555
 30
0.0
 10
71.201591
 20
64.427525
 30
0.0
 10
71.226844
 20
64.377925
 30
0.0
 10
71.369799
 20
64.329783
 30
0.0
 10
71.102744
 20
64.290248
 30
0.0
 10
70.934420
 20
64.233195
 30
0.0
 10
70.721236
 20
64.251576
 30
0.0
 10
70.606177
 20
64.261497
 30
0.0
 11
71.183542
 21
64.664921
 31
0.0
 11
71.210764
 21
64.611230
 31
0.0
 11
71.284814
 21
64.509925
 31
0.0
 11
71.394270
 21
64.450656
 31
0.0
 11
71.362606
 21
64.447864
 31
0.0
 11
71.280307
 21
64.450652
 31
0.0
 11
71.166408
 21
64.475765
 31
0.0
 11
71.187538
 21
64.443897
 31
0.0
 11
71.241791
 21
64.381527
 31
0.0
 11
71.315461
 21
64.338499
 31
0.0
 11
71.201625
 21
64.303284
 31
0.0
 11
70.930171
 21
64.250957
 31
0.0
 11
70.606177
 21
64.261497
 31
0.0
  0
LWPOLYLINE
  5
1ca
100
AcDbEntity
  8
0
 62
7
100
AcDbPolyline
 90
2
 70
0
 10
70.606177
 20
64.261497
 30
0.0
 10
70.746662
 20
64.184493
 30
0.0
  0
SPLINE
  5
1cb
100
AcDbEntity
  8
0
 62
7
100
AcDbSpline
 70
0
 71
3
 72
25
 73
21
 74
19
 40
0.000000
 40
0.000000
 40
0.000000
 40
0.000000
 40
0.377596
 40
1.120148
 40
1.649720
 40
1.740828
 40
1.925026
 40
2.105124
 40
2.140093
 40
2.193576
 40
2.284966
 40
2.332384
 40
2.394927
 40
2.528475
 40
2.636270
 40
2.894347
 40
3.280262
 40
3.349866
 40
3.506710
 40
3.714360
 40
3.714360
 40
3.714360
 40
3.714360
 10
70.746662
 20
64.184493
 30
0.0
 10
70.621335
 20
64.174222
 30
0.0
 10
70.249547
 20
64.143754
 30
0.0
 10
69.699794
 20
64.070746
 30
0.0
 10
69.245652
 20
64.178636
 30
0.0
 10
68.981726
 20
64.161121
 30
0.0
 10
68.812800
 20
64.151355
 30
0.0
 10
68.738899
 20
64.304850
 30
0.0
 10
68.651321
 20
64.309019
 30
0.0
 10
68.579884
 20
64.345580
 30
0.0
 10
68.692706
 20
64.448545
 30
0.0
 10
68.603357
 20
64.400557
 30
0.0
 10
68.509481
 20
64.427932
 30
0.0
 10
68.598802
 20
64.550909
 30
0.0
 10
68.609682
 20
64.706348
 30
0.0
 10
68.766469
 20
64.927163
 30
0.0
 10
68.980149
 20
65.055323
 30
0.0
 10
69.182150
 20
65.083269
 30
0.0
 10
69.320922
 20
65.148803
 30
0.0
 10
69.376790
 20
65.260702
 30
0.0
 10
69.408617
 20
65.324450
 30
0.0
 11
70.746662
 21
64.184493
 31
0.0
 11
70.370510
 21
64.151510
 31
0.0
 11
69.628865
 21
64.114805
 31
0.0
 11
69.101946
 21
64.167745
 31
0.0
 11
69.010954
 21
64.163156
 31
0.0
 11
68.828588
 21
64.189069
 31
0.0
 11
68.690768
 21
64.305005
 31
0.0
 11
68.656376
 21
64.311327
 31
0.0
 11
68.614369
 21
64.344433
 31
0.0
 11
68.656502
 21
64.425531
 31
0.0
 11
68.611259
 21
64.411334
 31
0.0
 11
68.550408
 21
64.425780
 31
0.0
 11
68.586260
 21
64.554425
 31
0.0
 11
68.612339
 21
64.659018
 31
0.0
 11
68.749208
 21
64.877812
 31
0.0
 11
69.084814
 21
65.068334
 31
0.0
 11
69.153154
 21
65.081541
 31
0.0
 11
69.293450
 21
65.151664
 31
0.0
 11
69.408617
 21
65.324450
 31
0.0
  0
LWPOLYLINE
  5
1cc
100
AcDbEntity
  8
0
 62
7
100
AcDbPolyline
 90
2
 70
0
 10
69.408617
 20
65.324450
 30
0.0
 10
69.321243
 20
65.272555
 30
0.0
  0
SPLINE
  5
1cd
100
AcDbEntity
  8
0
 62
7
100
AcDbSpline
 70
0
 71
3
 72
19
 73
15
 74
13
 40
0.000000
 40
0.000000
 40
0.000000
 40
0.000000
 40
0.088348
 40
0.343588
 40
0.799318
 40
1.003084
 40
1.421724
 40
1.769002
 40
1.797892
 40
1.866760
 40
1.952271
 40
1.985845
 40
2.083927
 40
2.274833
 40
2.274833
 40
2.274833
 40
2.274833
 10
69.321243
 20
65.272555
 30
0.0
 10
69.336966
 20
65.297589
 30
0.0
 10
69.398113
 20
65.394946
 30
0.0
 10
69.439075
 20
65.668701
 30
0.0
 10
69.395322
 20
65.965868
 30
0.0
 10
69.283896
 20
66.327162
 30
0.0
 10
69.164833
 20
66.509957
 30
0.0
 10
69.196182
 20
67.095543
 30
0.0
 10
69.115435
 20
66.953687
 30
0.0
 10
69.082336
 20
66.911014
 30
0.0
 10
69.099902
 20
66.804720
 30
0.0
 10
69.019370
 20
66.843261
 30
0.0
 10
68.950847
 20
66.919405
 30
0.0
 10
68.921129
 20
67.014360
 30
0.0
 10
68.901498
 20
67.077087
 30
0.0
 11
69.321243
 21
65.272555
 31
0.0
 11
69.365533
 21
65.349000
 31
0.0
 11
69.419722
 21
65.598421
 31
0.0
 11
69.365786
 21
66.050948
 31
0.0
 11
69.304807
 21
66.245376
 31
0.0
 11
69.193192
 21
66.648862
 31
0.0
 11
69.137924
 21
66.991714
 31
0.0
 11
69.122696
 21
66.967163
 31
0.0
 11
69.093762
 21
66.904669
 31
0.0
 11
69.076247
 21
66.820971
 31
0.0
 11
69.044647
 21
66.832314
 31
0.0
 11
68.974214
 21
66.900573
 31
0.0
 11
68.901498
 21
67.077087
 31
0.0
  0
LWPOLYLINE
  5
1ce
100
AcDbEntity
  8
0
 62
7
100
AcDbPolyline
 90
2
 70
0
 10
68.901498
 20
67.077087
 30
0.0
 10
68.892925
 20
66.914712
 30
0.0
  0
SPLINE
  5
1cf
100
AcDbEntity
  8
0
 62
7
100
AcDbSpline
 70
0
 71
3
 72
10
 73
6
 74
4
 40
0.000000
 40
0.000000
 40
0.000000
 40
0.000000
 40
0.066873
 40
0.207046
 40
0.331469
 40
0.331469
 40
0.331469
 40
0.331469
 10
68.892925
 20
66.914712
 30
0.0
 10
68.879111
 20
66.932191
 30
0.0
 10
68.836342
 20
66.986307
 30
0.0
 10
68.766025
 20
67.072225
 30
0.0
 10
68.697357
 20
67.127906
 30
0.0
 10
68.665066
 20
67.154089
 30
0.0
 11
68.892925
 21
66.914712
 31
0.0
 11
68.851363
 21
66.967102
 31
0.0
 11
68.759166
 21
67.072686
 31
0.0
 11
68.665066
 21
67.154089
 31
0.0
  0
LWPOLYLINE
  5
1d0
100
AcDbEntity
  8
0
 62
7
100
AcDbPolyline
 90
2
 70
0
 10
68.665066
 20
67.154089
 30
0.0
 10
68.726743
 20
67.016823
 30
0.0
  0
SPLINE
  5
1d1
100
AcDbEntity
  8
0
 62
7
100
AcDbSpline
 70
0
 71
3
 72
10
 73
6
 74
4
 40
0.000000
 40
0.000000
 40
0.000000
 40
0.000000
 40
0.144697
 40
0.483768
 40
0.877984
 40
0.877984
 40
0.877984
 40
0.877984
 10
68.726743
 20
67.016823
 30
0.0
 10
68.682078
 20
67.035004
 30
0.0
 10
68.532748
 20
67.095786
 30
0.0
 10
68.256206
 20
67.193885
 30
0.0
 10
68.016252
 20
67.242033
 30
0.0
 10
67.887252
 20
67.267918
 30
0.0
 11
68.726743
 21
67.016823
 31
0.0
 11
68.592475
 21
67.070762
 31
0.0
 11
68.271654
 21
67.180500
 31
0.0
 11
67.887252
 21
67.267918
 31
0.0
  0
LWPOLYLINE
  5
1d2
100
AcDbEntity
  8
0
 62
7
100
AcDbPolyline
 90
2
 70
0
 10
67.887252
 20
67.267918
 30
0.0
 10
68.036305
 20
67.128980
 30
0.0
  0
SPLINE
  5
1d3
100
AcDbEntity
  8
0
 62
7
100
AcDbSpline
 70
0
 71
3
 72
13
 73
9
 74
7
 40
0.000000
 40
0.000000
 40
0.000000
 40
0.000000
 40
0.175691
 40
0.578358
 40
1.024911
 40
1.334275
 40
1.946202
 40
2.397371
 40
2.397371
 40
2.397371
 40
2.397371
 10
68.036305
 20
67.128980
 30
0.0
 10
67.979923
 20
67.144780
 30
0.0
 10
67.794320
 20
67.196792
 30
0.0
 10
67.461329
 20
67.276422
 30
0.0
 10
67.075917
 20
67.312583
 30
0.0
 10
66.622705
 20
67.353196
 30
0.0
 10
66.161934
 20
67.391834
 30
0.0
 10
65.831221
 20
67.523427
 30
0.0
 10
65.690869
 20
67.579274
 30
0.0
 11
68.036305
 21
67.128980
 31
0.0
 11
67.866947
 21
67.175727
 31
0.0
 11
67.474106
 21
67.264137
 31
0.0
 11
67.030629
 21
67.316464
 31
0.0
 11
66.722498
 21
67.344053
 31
0.0
 11
66.116643
 21
67.430044
 31
0.0
 11
65.690869
 21
67.579274
 31
0.0
  0
LWPOLYLINE
  5
1d4
100
AcDbEntity
  8
0
 62
7
100
AcDbPolyline
 90
3
 70
0
 10
65.690869
 20
67.579274
 30
0.0
 10
65.769678
 20
67.428621
 30
0.0
 10
65.522970
 20
67.579274
 30
0.0
  0
SPLINE
  5
1d5
100
AcDbEntity
  8
0
 62
7
100
AcDbSpline
 70
0
 71
3
 72
10
 73
6
 74
4
 40
0.000000
 40
0.000000
 40
0.000000
 40
0.000000
 40
0.132080
 40
0.419785
 40
0.700401
 40
0.700401
 40
0.700401
 40
0.700401
 10
65.522970
 20
67.579274
 30
0.0
 10
65.537521
 20
67.537722
 30
0.0
 10
65.583768
 20
67.405659
 30
0.0
 10
65.659907
 20
67.184930
 30
0.0
 10
65.716191
 20
67.004033
 30
0.0
 10
65.743982
 20
66.914712
 30
0.0
 11
65.522970
 21
67.579274
 31
0.0
 11
65.566563
 21
67.454596
 31
0.0
 11
65.659269
 21
67.182236
 31
0.0
 11
65.743982
 21
66.914712
 31
0.0
  0
LWPOLYLINE
  5
1d6
100
AcDbEntity
  8
0
 62
7
100
AcDbPolyline
 90
2
 70
0
 10
65.743982
 20
66.914712
 30
0.0
 10
65.639471
 20
67.060347
 30
0.0
  0
SPLINE
  5
1d7
100
AcDbEntity
  8
0
 62
7
100
AcDbSpline
 70
0
 71
3
 72
16
 73
12
 74
10
 40
0.000000
 40
0.000000
 40
0.000000
 40
0.000000
 40
0.237495
 40
0.723384
 40
1.133596
 40
1.177849
 40
1.274121
 40
1.369282
 40
1.468524
 40
1.706618
 40
2.017773
 40
2.017773
 40
2.017773
 40
2.017773
 10
65.639471
 20
67.060347
 30
0.0
 10
65.669196
 20
66.982935
 30
0.0
 10
65.759736
 20
66.747146
 30
0.0
 10
65.870833
 20
66.541540
 30
0.0
 10
65.933312
 20
65.826052
 30
0.0
 10
65.873825
 20
66.028707
 30
0.0
 10
65.850662
 20
66.084511
 30
0.0
 10
65.787599
 20
66.229798
 30
0.0
 10
65.773677
 20
66.001091
 30
0.0
 10
65.757812
 20
65.832860
 30
0.0
 10
65.827726
 20
65.650433
 30
0.0
 10
65.867333
 20
65.547087
 30
0.0
 11
65.639471
 21
67.060347
 31
0.0
 11
65.726529
 21
66.839384
 31
0.0
 11
65.869934
 21
66.375139
 31
0.0
 11
65.893032
 21
65.965578
 31
0.0
 11
65.879580
 21
66.007737
 31
0.0
 11
65.844807
 21
66.097510
 31
0.0
 11
65.797091
 21
66.179843
 31
0.0
 11
65.778372
 21
66.082382
 31
0.0
 11
65.775262
 21
65.844308
 31
0.0
 11
65.867333
 21
65.547087
 31
0.0
  0
LWPOLYLINE
  5
1d8
100
AcDbEntity
  8
0
 62
7
100
AcDbPolyline
 90
2
 70
0
 10
65.867333
 20
65.547087
 30
0.0
 10
65.735414
 20
65.667612
 30
0.0
  0
SPLINE
  5
1d9
100
AcDbEntity
  8
0
 62
7
100
AcDbSpline
 70
0
 71
3
 72
10
 73
6
 74
4
 40
0.000000
 40
0.000000
 40
0.000000
 40
0.000000
 40
0.103237
 40
0.304481
 40
0.442763
 40
0.442763
 40
0.442763
 40
0.442763
 10
65.735414
 20
65.667612
 30
0.0
 10
65.747485
 20
65.635413
 30
0.0
 10
65.783086
 20
65.540446
 30
0.0
 10
65.833494
 20
65.400836
 30
0.0
 10
65.894063
 20
65.304924
 30
0.0
 10
65.918731
 20
65.265861
 30
0.0
 11
65.735414
 21
65.667612
 31
0.0
 11
65.771519
 21
65.570895
 31
0.0
 11
65.848361
 21
65.384899
 31
0.0
 11
65.918731
 21
65.265861
 31
0.0
  0
LWPOLYLINE
  5
1da
100
AcDbEntity
  8
0
 62
7
100
AcDbPolyline
 90
3
 70
0
 10
65.918731
 20
65.265861
 30
0.0
 10
65.656606
 20
65.453345
 30
0.0
 10
65.779957
 20
65.282598
 30
0.0
  0
SPLINE
  5
1db
100
AcDbEntity
  8
0
 62
7
100
AcDbSpline
 70
0
 71
3
 72
19
 73
15
 74
13
 40
0.000000
 40
0.000000
 40
0.000000
 40
0.000000
 40
0.109468
 40
0.328639
 40
0.495447
 40
0.585681
 40
0.780218
 40
0.987622
 40
1.051039
 40
1.183597
 40
1.311461
 40
1.400974
 40
1.593752
 40
1.791908
 40
1.791908
 40
1.791908
 40
1.791908
 10
65.779957
 20
65.282598
 30
0.0
 10
65.745203
 20
65.297060
 30
0.0
 10
65.640867
 20
65.340477
 30
0.0
 10
65.517289
 20
65.364004
 30
0.0
 10
65.295895
 20
65.556217
 30
0.0
 10
65.395570
 20
65.361975
 30
0.0
 10
65.405480
 20
65.249645
 30
0.0
 10
65.710185
 20
65.104275
 30
0.0
 10
65.533546
 20
65.133004
 30
0.0
 10
65.454023
 20
65.126029
 30
0.0
 10
65.294956
 20
65.277966
 30
0.0
 10
65.419313
 20
65.107528
 30
0.0
 10
65.497369
 20
65.004095
 30
0.0
 10
65.621232
 20
64.944525
 30
0.0
 10
65.684016
 20
64.914330
 30
0.0
 11
65.779957
 21
65.282598
 31
0.0
 11
65.678177
 21
65.322898
 31
0.0
 11
65.477411
 21
65.410814
 31
0.0
 11
65.334515
 21
65.496869
 31
0.0
 11
65.366813
 21
65.412613
 31
0.0
 11
65.464975
 21
65.244658
 31
0.0
 11
65.630907
 21
65.120226
 31
0.0
 11
65.567770
 21
65.126176
 31
0.0
 11
65.438768
 21
65.156678
 31
0.0
 11
65.334515
 21
65.230708
 31
0.0
 11
65.384009
 21
65.156124
 31
0.0
 11
65.511170
 21
65.011233
 31
0.0
 11
65.684016
 21
64.914330
 31
0.0
  0
LWPOLYLINE
  5
1dc
100
AcDbEntity
  8
0
 62
7
100
AcDbPolyline
 90
2
 70
0
 10
65.684016
 20
64.914330
 30
0.0
 10
65.334515
 20
64.982960
 30
0.0
  0
SPLINE
  5
1dd
100
AcDbEntity
  8
0
 62
7
100
AcDbSpline
 70
0
 71
3
 72
40
 73
36
 74
34
 40
0.000000
 40
0.000000
 40
0.000000
 40
0.000000
 40
0.120047
 40
0.361850
 40
0.573517
 40
0.609812
 40
0.697345
 40
0.806351
 40
0.902359
 40
1.102752
 40
1.337115
 40
1.372406
 40
1.444220
 40
1.501585
 40
1.611505
 40
1.876795
 40
2.220358
 40
2.426812
 40
2.885367
 40
3.370499
 40
3.545998
 40
3.894592
 40
4.218333
 40
4.280981
 40
4.425815
 40
4.603171
 40
4.636374
 40
4.723216
 40
4.855673
 40
4.935543
 40
5.161681
 40
5.559179
 40
5.667260
 40
6.010250
 40
6.710860
 40
6.710860
 40
6.710860
 40
6.710860
 10
65.334515
 20
64.982960
 30
0.0
 10
65.352379
 20
64.945490
 30
0.0
 10
65.406226
 20
64.832546
 30
0.0
 10
65.483713
 20
64.721502
 30
0.0
 10
65.460350
 20
64.361806
 30
0.0
 10
65.423458
 20
64.491540
 30
0.0
 10
65.399922
 20
64.543493
 30
0.0
 10
65.309875
 20
64.694684
 30
0.0
 10
65.385424
 20
64.485017
 30
0.0
 10
65.412059
 20
64.388068
 30
0.0
 10
65.216334
 20
64.072270
 30
0.0
 10
65.247519
 20
64.204670
 30
0.0
 10
65.253157
 20
64.247222
 30
0.0
 10
65.274757
 20
64.361717
 30
0.0
 10
65.149829
 20
64.132925
 30
0.0
 10
65.006395
 20
64.042192
 30
0.0
 10
64.758993
 20
63.857366
 30
0.0
 10
64.422394
 20
63.841001
 30
0.0
 10
64.036913
 20
63.780251
 30
0.0
 10
63.674913
 20
63.915571
 30
0.0
 10
63.334603
 20
63.887174
 30
0.0
 10
63.069542
 20
63.916859
 30
0.0
 10
62.793130
 20
64.079890
 30
0.0
 10
62.820440
 20
64.259635
 30
0.0
 10
62.837849
 20
64.390310
 30
0.0
 10
62.942043
 20
64.471476
 30
0.0
 10
62.963689
 20
64.569015
 30
0.0
 10
63.007380
 20
64.644106
 30
0.0
 10
63.091040
 20
64.701433
 30
0.0
 10
63.185468
 20
64.813526
 30
0.0
 10
63.393348
 20
64.939011
 30
0.0
 10
63.717017
 20
64.831034
 30
0.0
 10
63.828999
 20
65.116122
 30
0.0
 10
63.807875
 20
65.503480
 30
0.0
 10
63.667517
 20
65.826035
 30
0.0
 10
63.573290
 20
66.042580
 30
0.0
 11
65.334515
 21
64.982960
 31
0.0
 11
65.387562
 21
64.875269
 31
0.0
 11
65.464214
 21
64.645937
 31
0.0
 11
65.440735
 21
64.435577
 31
0.0
 11
65.429186
 21
64.469987
 31
0.0
 11
65.394034
 21
64.550150
 31
0.0
 11
65.334515
 21
64.641473
 31
0.0
 11
65.361737
 21
64.549406
 31
0.0
 11
65.367257
 21
64.349088
 31
0.0
 11
65.236860
 21
64.154352
 31
0.0
 11
65.243521
 21
64.189009
 31
0.0
 11
65.255890
 21
64.259749
 31
0.0
 11
65.262551
 21
64.316726
 31
0.0
 11
65.197574
 21
64.228068
 31
0.0
 11
65.010006
 21
64.040460
 31
0.0
 11
64.710887
 21
63.871451
 31
0.0
 11
64.506439
 21
63.842746
 31
0.0
 11
64.048430
 21
63.820365
 31
0.0
 11
63.569863
 21
63.899910
 31
0.0
 11
63.394414
 21
63.895756
 31
0.0
 11
63.050305
 21
63.951492
 31
0.0
 11
62.810895
 21
64.169417
 31
0.0
 11
62.816099
 21
64.231849
 31
0.0
 11
62.852521
 21
64.372028
 31
0.0
 11
62.951381
 21
64.519276
 31
0.0
 11
62.960706
 21
64.551142
 31
0.0
 11
63.003153
 21
64.626903
 31
0.0
 11
63.100434
 21
64.716800
 31
0.0
 11
63.155638
 21
64.774521
 31
0.0
 11
63.354754
 21
64.881718
 31
0.0
 11
63.748039
 21
64.939439
 31
0.0
 11
63.794107
 21
65.037210
 31
0.0
 11
63.801341
 21
65.380124
 31
0.0
 11
63.573290
 21
66.042580
 31
0.0
  0
LWPOLYLINE
  5
1de
100
AcDbEntity
  8
0
 62
7
100
AcDbPolyline
 90
2
 70
0
 10
63.573290
 20
66.042580
 30
0.0
 10
63.564717
 20
65.922054
 30
0.0
  0
SPLINE
  5
1df
100
AcDbEntity
  8
0
 62
7
100
AcDbSpline
 70
0
 71
3
 72
16
 73
12
 74
10
 40
0.000000
 40
0.000000
 40
0.000000
 40
0.000000
 40
0.266100
 40
0.874654
 40
1.550965
 40
1.689767
 40
1.978703
 40
2.230625
 40
2.420601
 40
2.807875
 40
3.119218
 40
3.119218
 40
3.119218
 40
3.119218
 10
63.564717
 20
65.922054
 30
0.0
 10
63.538537
 20
66.006706
 30
0.0
 10
63.452484
 20
66.284952
 30
0.0
 10
63.277728
 20
66.776983
 30
0.0
 10
63.017804
 20
67.168979
 30
0.0
 10
62.844905
 20
67.504890
 30
0.0
 10
62.734987
 20
67.652329
 30
0.0
 10
62.687246
 20
68.074829
 30
0.0
 10
62.569094
 20
67.670563
 30
0.0
 10
62.459180
 20
67.461198
 30
0.0
 10
62.388415
 20
67.230235
 30
0.0
 10
62.356878
 20
67.127305
 30
0.0
 11
63.564717
 21
65.922054
 31
0.0
 11
63.485019
 21
66.175938
 31
0.0
 11
63.265216
 21
66.743411
 31
0.0
 11
62.934241
 21
67.333201
 31
0.0
 11
62.868186
 21
67.455278
 31
0.0
 11
62.743881
 21
67.716107
 31
0.0
 11
62.672116
 21
67.957592
 31
0.0
 11
62.598383
 21
67.782508
 31
0.0
 11
62.454597
 21
67.422916
 31
0.0
 11
62.356878
 21
67.127305
 31
0.0
  0
LWPOLYLINE
  5
1e0
100
AcDbEntity
  8
0
 62
7
100
AcDbPolyline
 90
2
 70
0
 10
62.356878
 20
67.127305
 30
0.0
 10
62.348306
 20
67.333201
 30
0.0
  0
SPLINE
  5
1e1
100
AcDbEntity
  8
0
 62
7
100
AcDbSpline
 70
0
 71
3
 72
10
 73
6
 74
4
 40
0.000000
 40
0.000000
 40
0.000000
 40
0.000000
 40
0.097196
 40
0.296099
 40
0.462273
 40
0.462273
 40
0.462273
 40
0.462273
 10
62.348306
 20
67.333201
 30
0.0
 10
62.336473
 20
67.303086
 30
0.0
 10
62.300427
 20
67.211344
 30
0.0
 10
62.245453
 20
67.065620
 30
0.0
 10
62.238426
 20
66.943510
 30
0.0
 10
62.235228
 20
66.887929
 30
0.0
 11
62.348306
 21
67.333201
 31
0.0
 11
62.312898
 21
67.242684
 31
0.0
 11
62.252362
 21
67.053217
 31
0.0
 11
62.235228
 21
66.887929
 31
0.0
  0
LWPOLYLINE
  5
1e2
100
AcDbEntity
  8
0
 62
7
100
AcDbPolyline
 90
2
 70
0
 10
62.235228
 20
66.887929
 30
0.0
 10
62.182121
 20
67.058675
 30
0.0
  0
SPLINE
  5
1e3
100
AcDbEntity
  8
0
 62
7
100
AcDbSpline
 70
0
 71
3
 72
43
 73
39
 74
37
 40
0.000000
 40
0.000000
 40
0.000000
 40
0.000000
 40
0.147562
 40
0.461561
 40
0.757230
 40
0.826930
 40
0.968945
 40
1.083234
 40
1.197463
 40
1.428505
 40
1.608979
 40
1.659616
 40
1.775193
 40
1.906467
 40
2.017130
 40
2.256470
 40
2.497999
 40
2.542745
 40
2.632537
 40
2.709712
 40
2.842384
 40
3.148749
 40
3.507119
 40
3.557853
 40
3.668552
 40
3.785335
 40
3.894158
 40
4.170216
 40
4.557576
 40
4.589511
 40
4.664339
 40
4.779138
 40
4.859583
 40
5.051030
 40
5.297380
 40
5.327450
 40
5.398447
 40
5.490507
 40
5.490507
 40
5.490507
 40
5.490507
 10
62.182121
 20
67.058675
 30
0.0
 10
62.164751
 20
67.010550
 30
0.0
 10
62.110420
 20
66.860019
 30
0.0
 10
62.057142
 20
66.701306
 30
0.0
 10
61.794471
 20
66.287553
 30
0.0
 10
61.864461
 20
66.492799
 30
0.0
 10
61.882705
 20
66.563076
 30
0.0
 10
61.929186
 20
66.771202
 30
0.0
 10
61.830197
 20
66.527484
 30
0.0
 10
61.785445
 20
66.476856
 30
0.0
 10
61.666133
 20
66.169916
 30
0.0
 10
61.680898
 20
66.320338
 30
0.0
 10
61.674700
 20
66.388899
 30
0.0
 10
61.630132
 20
66.597215
 30
0.0
 10
61.589656
 20
66.340323
 30
0.0
 10
61.554256
 20
66.260131
 30
0.0
 10
61.344393
 20
65.922774
 30
0.0
 10
61.383412
 20
66.070716
 30
0.0
 10
61.393587
 20
66.127548
 30
0.0
 10
61.354576
 20
66.267950
 30
0.0
 10
61.250182
 20
65.989257
 30
0.0
 10
61.156155
 20
65.921957
 30
0.0
 10
60.730977
 20
65.545148
 30
0.0
 10
60.852469
 20
65.711951
 30
0.0
 10
60.888136
 20
65.772262
 30
0.0
 10
60.927614
 20
65.962953
 30
0.0
 10
60.783058
 20
65.731605
 30
0.0
 10
60.689635
 20
65.660016
 30
0.0
 10
60.177862
 20
65.375666
 30
0.0
 10
60.331183
 20
65.479238
 30
0.0
 10
60.368453
 20
65.530517
 30
0.0
 10
60.379330
 20
65.698196
 30
0.0
 10
60.281586
 20
65.525803
 30
0.0
 10
60.214564
 20
65.467714
 30
0.0
 10
59.881302
 20
65.295039
 30
0.0
 10
59.985934
 20
65.376755
 30
0.0
 10
60.025035
 20
65.425711
 30
0.0
 10
60.038240
 20
65.479750
 30
0.0
 10
60.045695
 20
65.510259
 30
0.0
 11
62.182121
 21
67.058675
 31
0.0
 11
62.132246
 21
66.919798
 31
0.0
 11
62.004703
 21
66.632868
 31
0.0
 11
61.832617
 21
66.392438
 31
0.0
 11
61.852604
 21
66.459210
 31
0.0
 11
61.889724
 21
66.596289
 31
0.0
 11
61.909711
 21
66.708816
 31
0.0
 11
61.860282
 21
66.605836
 31
0.0
 11
61.758694
 21
66.398326
 31
0.0
 11
61.674999
 21
66.238432
 31
0.0
 11
61.677154
 21
66.289023
 31
0.0
 11
61.669408
 21
66.404341
 31
0.0
 11
61.630452
 21
66.529701
 31
0.0
 11
61.601327
 21
66.422940
 31
0.0
 11
61.513953
 21
66.200118
 31
0.0
 11
61.368329
 21
66.007427
 31
0.0
 11
61.377910
 21
66.051136
 31
0.0
 11
61.385586
 21
66.140599
 31
0.0
 11
61.359756
 21
66.213323
 31
0.0
 11
61.288688
 21
66.101292
 31
0.0
 11
61.095028
 21
65.863900
 31
0.0
 11
60.808089
 21
65.649200
 31
0.0
 11
60.836771
 21
65.691048
 31
0.0
 11
60.886774
 21
65.789810
 31
0.0
 11
60.904033
 21
65.905311
 31
0.0
 11
60.836391
 21
65.820064
 31
0.0
 11
60.632452
 21
65.634008
 31
0.0
 11
60.290691
 21
65.451670
 31
0.0
 11
60.316517
 21
65.470455
 31
0.0
 11
60.357952
 21
65.532764
 31
0.0
 11
60.360933
 21
65.647525
 31
0.0
 11
60.312582
 21
65.583233
 31
0.0
 11
60.172858
 21
65.452354
 31
0.0
 11
59.949755
 21
65.347887
 31
0.0
 11
59.972725
 21
65.367292
 31
0.0
 11
60.017015
 21
65.422780
 31
0.0
 11
60.045695
 21
65.510259
 31
0.0
  0
LWPOLYLINE
  5
1e4
100
AcDbEntity
  8
0
 62
7
100
AcDbPolyline
 90
2
 70
0
 10
60.045695
 20
65.510259
 30
0.0
 10
59.793907
 20
65.337862
 30
0.0
  0
SPLINE
  5
1e5
100
AcDbEntity
  8
0
 62
7
100
AcDbSpline
 70
0
 71
3
 72
40
 73
36
 74
34
 40
0.000000
 40
0.000000
 40
0.000000
 40
0.000000
 40
0.179783
 40
0.592146
 40
1.169875
 40
1.258951
 40
1.457344
 40
1.872512
 40
2.543194
 40
3.842470
 40
4.710677
 40
4.873659
 40
5.204194
 40
5.736656
 40
6.196682
 40
7.118682
 40
7.880030
 40
7.956988
 40
8.135932
 40
8.370303
 40
8.495992
 40
8.753178
 40
8.997487
 40
9.068344
 40
9.230088
 40
9.444592
 40
9.535441
 40
9.722037
 40
9.885658
 40
9.946029
 40
10.083007
 40
10.245494
 40
10.338193
 40
10.552680
 40
10.813710
 40
10.813710
 40
10.813710
 40
10.813710
 10
38.417262
 20
70.088498
 30
0.0
 10
38.433204
 20
70.030864
 30
0.0
 10
38.485710
 20
69.841038
 30
0.0
 10
38.712637
 20
69.493560
 30
0.0
 10
39.072102
 20
69.389196
 30
0.0
 10
39.347493
 20
69.287757
 30
0.0
 10
39.459089
 20
69.044026
 30
0.0
 10
39.263125
 20
68.630755
 30
0.0
 10
38.829189
 20
67.964911
 30
0.0
 10
38.281821
 20
67.311879
 30
0.0
 10
37.885834
 20
66.357889
 30
0.0
 10
37.421565
 20
66.459667
 30
0.0
 10
37.067346
 20
66.309081
 30
0.0
 10
36.977551
 20
65.824650
 30
0.0
 10
36.991434
 20
65.197496
 30
0.0
 10
36.902000
 20
64.502179
 30
0.0
 10
36.687731
 20
63.881848
 30
0.0
 10
36.394545
 20
63.710842
 30
0.0
 10
36.268392
 20
63.593787
 30
0.0
 10
36.251402
 20
63.401125
 30
0.0
 10
36.118532
 20
63.242507
 30
0.0
 10
36.006987
 20
63.050607
 30
0.0
 10
36.048406
 20
62.855780
 30
0.0
 10
36.039973
 20
62.696359
 30
0.0
 10
36.034675
 20
62.553792
 30
0.0
 10
35.759782
 20
62.415214
 30
0.0
 10
35.984548
 20
62.402958
 30
0.0
 10
36.080671
 20
62.342914
 30
0.0
 10
36.309718
 20
62.472054
 30
0.0
 10
36.245357
 20
62.328726
 30
0.0
 10
36.231111
 20
62.237154
 30
0.0
 10
36.011535
 20
62.112424
 30
0.0
 10
36.236572
 20
62.141900
 30
0.0
 10
36.394212
 20
62.163841
 30
0.0
 10
36.532286
 20
62.257409
 30
0.0
 10
36.608081
 20
62.308772
 30
0.0
 11
38.417262
 21
70.088498
 31
0.0
 11
38.470835
 21
69.916882
 31
0.0
 11
38.704453
 21
69.577080
 31
0.0
 11
39.227464
 21
69.331660
 31
0.0
 11
39.308296
 21
69.294235
 31
0.0
 11
39.404683
 21
69.120830
 31
0.0
 11
39.297457
 21
68.719748
 31
0.0
 11
38.941057
 21
68.151598
 31
0.0
 11
38.216554
 21
67.073075
 31
0.0
 11
37.640988
 21
66.423069
 31
0.0
 11
37.478459
 21
66.435221
 31
0.0
 11
37.172177
 21
66.310945
 31
0.0
 11
36.994095
 21
65.809146
 31
0.0
 11
36.980584
 21
65.349318
 31
0.0
 11
36.854899
 21
64.435925
 31
0.0
 11
36.489304
 21
63.768100
 31
0.0
 11
36.424654
 21
63.726351
 31
0.0
 11
36.300147
 21
63.597826
 31
0.0
 11
36.219945
 21
63.377604
 31
0.0
 11
36.148382
 21
63.274277
 31
0.0
 11
36.037699
 21
63.042126
 31
0.0
 11
36.043904
 21
62.797896
 31
0.0
 11
36.041706
 21
62.727074
 31
0.0
 11
35.995204
 21
62.572158
 31
0.0
 11
35.844536
 21
62.419479
 31
0.0
 11
35.933693
 21
62.402034
 31
0.0
 11
36.119473
 21
62.384590
 31
0.0
 11
36.279331
 21
62.419479
 31
0.0
 11
36.261578
 21
62.361776
 31
0.0
 11
36.199521
 21
62.239663
 31
0.0
 11
36.079962
 21
62.129628
 31
0.0
 11
36.172577
 21
62.133582
 31
0.0
 11
36.382551
 21
62.177345
 31
0.0
 11
36.608081
 21
62.308772
 31
0.0
  0
LWPOLYLINE
  5
1e6
100
AcDbEntity
  8
0
 62
7
100
AcDbPolyline
 90
2
 70
0
 10
36.608081
 20
62.308772
 30
0.0
 10
36.502033
 20
62.129628
 30
0.0
  0
SPLINE
  5
1e7
100
AcDbEntity
  8
0
 62
7
100
AcDbSpline
 70
0
 71
3
 72
13
 73
9
 74
7
 40
0.000000
 40
0.000000
 40
0.000000
 40
0.000000
 40
0.175389
 40
0.584146
 40
1.069125
 40
1.216125
 40
1.528274
 40
1.851257
 40
1.851257
 40
1.851257
 40
1.851257
 10
36.502033
 20
62.129628
 30
0.0
 10
36.556664
 20
62.150208
 30
0.0
 10
36.738615
 20
62.218752
 30
0.0
 10
37.066268
 20
62.372704
 30
0.0
 10
37.300648
 20
62.638226
 30
0.0
 10
37.559426
 20
62.815206
 30
0.0
 10
37.760129
 20
62.997862
 30
0.0
 10
37.814718
 20
63.206893
 30
0.0
 10
37.842478
 20
63.313191
 30
0.0
 11
36.502033
 21
62.129628
 31
0.0
 11
36.665661
 21
62.192772
 31
0.0
 11
37.027716
 21
62.382504
 31
0.0
 11
37.394957
 21
62.699268
 31
0.0
 11
37.513338
 21
62.786417
 31
0.0
 11
37.731167
 21
63.009995
 31
0.0
 11
37.842478
 21
63.313191
 31
0.0
  0
LWPOLYLINE
  5
1e8
100
AcDbEntity
  8
0
 62
7
100
AcDbPolyline
 90
2
 70
0
 10
37.842478
 20
63.313191
 30
0.0
 10
38.018519
 20
64.875177
 30
0.0
  0
SPLINE
  5
1e9
100
AcDbEntity
  8
0
 62
7
100
AcDbSpline
 70
0
 71
3
 72
16
 73
12
 74
10
 40
0.000000
 40
0.000000
 40
0.000000
 40
0.000000
 40
0.087534
 40
0.269353
 40
0.425440
 40
1.064312
 40
2.528268
 40
4.156332
 40
4.574310
 40
5.451864
 40
6.316975
 40
6.316975
 40
6.316975
 40
6.316975
 10
38.018519
 20
64.875177
 30
0.0
 10
38.033777
 20
64.900038
 30
0.0
 10
38.080726
 20
64.976536
 30
0.0
 10
38.156423
 20
65.096897
 30
0.0
 10
38.369586
 20
65.343645
 30
0.0
 10
38.886301
 20
65.892219
 30
0.0
 10
39.785991
 20
66.741464
 30
0.0
 10
40.686393
 20
67.528044
 30
0.0
 10
41.583702
 20
67.903032
 30
0.0
 10
42.233659
 20
68.270788
 30
0.0
 10
42.519433
 20
68.788716
 30
0.0
 10
42.661300
 20
69.045831
 30
0.0
 11
38.018519
 21
64.875177
 31
0.0
 11
38.064395
 21
64.949727
 31
0.0
 11
38.164944
 21
65.101212
 31
0.0
 11
38.264550
 21
65.221387
 31
0.0
 11
38.699975
 21
65.688894
 31
0.0
 11
39.757076
 21
66.701663
 31
0.0
 11
41.062095
 21
67.675069
 31
0.0
 11
41.441826
 21
67.849742
 31
0.0
 11
42.176936
 21
68.329027
 31
0.0
 11
42.661300
 21
69.045831
 31
0.0
  0
LWPOLYLINE
  5
1ea
100
AcDbEntity
  8
0
 62
7
100
AcDbPolyline
 90
2
 70
0
 10
42.661300
 20
69.045831
 30
0.0
 10
42.637964
 20
68.751953
 30
0.0
  0
SPLINE
  5
1eb
100
AcDbEntity
  8
0
 62
7
100
AcDbSpline
 70
0
 71
3
 72
10
 73
6
 74
4
 40
0.000000
 40
0.000000
 40
0.000000
 40
0.000000
 40
0.118076
 40
0.361794
 40
0.577615
 40
0.577615
 40
0.577615
 40
0.577615
 10
42.637964
 20
68.751953
 30
0.0
 10
42.657446
 20
68.786038
 30
0.0
 10
42.717141
 20
68.890478
 30
0.0
 10
42.808881
 20
69.064348
 30
0.0
 10
42.818139
 20
69.218847
 30
0.0
 10
42.822487
 20
69.291406
 30
0.0
 11
42.637964
 21
68.751953
 31
0.0
 11
42.696173
 21
68.854684
 31
0.0
 11
42.795386
 21
69.077294
 31
0.0
 11
42.822487
 21
69.291406
 31
0.0
  0
LWPOLYLINE
  5
1ec
100
AcDbEntity
  8
0
 62
7
100
AcDbPolyline
 90
2
 70
0
 10
42.822487
 20
69.291406
 30
0.0
 10
42.828837
 20
69.001553
 30
0.0
  0
SPLINE
  5
1ed
100
AcDbEntity
  8
0
 62
7
100
AcDbSpline
 70
0
 71
3
 72
52
 73
48
 74
46
 40
0.000000
 40
0.000000
 40
0.000000
 40
0.000000
 40
0.066076
 40
0.238770
 40
0.505680
 40
0.651390
 40
0.950112
 40
1.207605
 40
1.493713
 40
2.071434
 40
2.533217
 40
2.720365
 40
3.149831
 40
3.651802
 40
3.799112
 40
4.083951
 40
4.321379
 40
4.338582
 40
4.380861
 40
4.438284
 40
4.465148
 40
4.529509
 40
4.617215
 40
4.682482
 40
4.833762
 40
5.070413
 40
5.118096
 40
5.213213
 40
5.286827
 40
5.317857
 40
5.395232
 40
5.503536
 40
5.549634
 40
5.648027
 40
5.742383
 40
5.788070
 40
5.886890
 40
5.982577
 40
6.052292
 40
6.196129
 40
6.326241
 40
6.356093
 40
6.431826
 40
6.548148
 40
6.637785
 40
6.846584
 40
7.217539
 40
7.217539
 40
7.217539
 40
7.217539
 10
42.828837
 20
69.001553
 30
0.0
 10
42.839644
 20
69.020895
 30
0.0
 10
42.878696
 20
69.090789
 30
0.0
 10
42.940268
 20
69.238062
 30
0.0
 10
42.797032
 20
69.547175
 30
0.0
 10
43.094645
 20
69.434645
 30
0.0
 10
43.304258
 20
69.413305
 30
0.0
 10
43.584707
 20
69.505780
 30
0.0
 10
43.960186
 20
69.426488
 30
0.0
 10
44.359965
 20
69.313508
 30
0.0
 10
44.887003
 20
69.618575
 30
0.0
 10
44.981248
 20
69.209905
 30
0.0
 10
45.094786
 20
68.877870
 30
0.0
 10
45.072018
 20
68.502620
 30
0.0
 10
45.005861
 20
68.197871
 30
0.0
 10
44.946170
 20
67.989996
 30
0.0
 10
44.790857
 20
67.832687
 30
0.0
 10
44.690670
 20
67.844925
 30
0.0
 10
44.656681
 20
67.847383
 30
0.0
 10
44.602866
 20
67.907977
 30
0.0
 10
44.617816
 20
67.841688
 30
0.0
 10
44.623597
 20
67.792059
 30
0.0
 10
44.727217
 20
67.735978
 30
0.0
 10
44.601484
 20
67.677239
 30
0.0
 10
44.500236
 20
67.605766
 30
0.0
 10
44.220280
 20
67.805810
 30
0.0
 10
44.308262
 20
67.673493
 30
0.0
 10
44.317641
 20
67.621789
 30
0.0
 10
44.429173
 20
67.557060
 30
0.0
 10
44.346334
 20
67.565216
 30
0.0
 10
44.296809
 20
67.563294
 30
0.0
 10
44.170205
 20
67.666213
 30
0.0
 10
44.240929
 20
67.568706
 30
0.0
 10
44.255681
 20
67.519377
 30
0.0
 10
44.392337
 20
67.441043
 30
0.0
 10
44.279660
 20
67.462527
 30
0.0
 10
44.226195
 20
67.454711
 30
0.0
 10
44.088571
 20
67.527851
 30
0.0
 10
44.169589
 20
67.395013
 30
0.0
 10
44.162727
 20
67.310075
 30
0.0
 10
44.352250
 20
67.223777
 30
0.0
 10
44.259538
 20
67.203266
 30
0.0
 10
44.197651
 20
67.192302
 30
0.0
 10
44.061120
 20
67.294400
 30
0.0
 10
44.155946
 20
67.105685
 30
0.0
 10
44.319904
 20
66.989177
 30
0.0
 10
44.526826
 20
67.006068
 30
0.0
 10
44.659225
 20
67.016876
 30
0.0
 11
42.828837
 21
69.001553
 31
0.0
 11
42.860494
 21
69.059552
 31
0.0
 11
42.903934
 21
69.226693
 31
0.0
 11
42.881860
 21
69.492688
 31
0.0
 11
43.024906
 21
69.464956
 31
0.0
 11
43.322076
 21
69.434542
 31
0.0
 11
43.575412
 21
69.480623
 31
0.0
 11
43.859385
 21
69.445733
 31
0.0
 11
44.436052
 21
69.410844
 31
0.0
 11
44.892531
 21
69.480623
 31
0.0
 11
44.960872
 21
69.306399
 31
0.0
 11
45.063148
 21
68.889289
 31
0.0
 11
45.045238
 21
68.387637
 31
0.0
 11
45.014681
 21
68.243532
 31
0.0
 11
44.911068
 21
67.978207
 31
0.0
 11
44.716488
 21
67.842151
 31
0.0
 11
44.699364
 21
67.843791
 31
0.0
 11
44.658673
 21
67.855271
 31
0.0
 11
44.610441
 21
67.886432
 31
0.0
 11
44.613504
 21
67.859743
 31
0.0
 11
44.634950
 21
67.799060
 31
0.0
 11
44.693160
 21
67.733455
 31
0.0
 11
44.640764
 21
67.694540
 31
0.0
 11
44.494575
 21
67.655625
 31
0.0
 11
44.271089
 21
67.733455
 31
0.0
 11
44.294262
 21
67.691782
 31
0.0
 11
44.346186
 21
67.612088
 31
0.0
 11
44.400467
 21
67.562362
 31
0.0
 11
44.369439
 21
67.562663
 31
0.0
 11
44.293634
 21
67.578171
 31
0.0
 11
44.198977
 21
67.630799
 31
0.0
 11
44.223092
 21
67.591512
 31
0.0
 11
44.281615
 21
67.512415
 31
0.0
 11
44.353805
 21
67.451658
 31
0.0
 11
44.308322
 21
67.455979
 31
0.0
 11
44.210522
 21
67.470140
 31
0.0
 11
44.118379
 21
67.495939
 31
0.0
 11
44.143753
 21
67.431005
 31
0.0
 11
44.211074
 21
67.303896
 31
0.0
 11
44.307146
 21
67.216150
 31
0.0
 11
44.278552
 21
67.207576
 31
0.0
 11
44.202825
 21
67.206607
 31
0.0
 11
44.095048
 21
67.250368
 31
0.0
 11
44.129141
 21
67.167468
 31
0.0
 11
44.288606
 21
67.032680
 31
0.0
 11
44.659225
 21
67.016876
 31
0.0
  0
LWPOLYLINE
  5
1ee
100
AcDbEntity
  8
0
 62
7
100
AcDbPolyline
 90
2
 70
0
 10
44.659225
 20
67.016876
 30
0.0
 10
45.024029
 20
67.196020
 30
0.0
  0
SPLINE
  5
1ef
100
AcDbEntity
  8
0
 62
7
100
AcDbSpline
 70
0
 71
3
 72
19
 73
15
 74
13
 40
0.000000
 40
0.000000
 40
0.000000
 40
0.000000
 40
0.088278
 40
0.308198
 40
0.614878
 40
0.732726
 40
0.997046
 40
1.324878
 40
1.451649
 40
1.751195
 40
2.104785
 40
2.281065
 40
2.640847
 40
2.935033
 40
2.935033
 40
2.935033
 40
2.935033
 10
45.024029
 20
67.196020
 30
0.0
 10
45.051627
 20
67.206058
 30
0.0
 10
45.147979
 20
67.241103
 30
0.0
 10
45.332610
 20
67.343768
 30
0.0
 10
45.435384
 20
67.547869
 30
0.0
 10
45.636602
 20
67.662702
 30
0.0
 10
45.804948
 20
67.843119
 30
0.0
 10
45.853129
 20
68.085991
 30
0.0
 10
45.881605
 20
68.335075
 30
0.0
 10
45.933856
 20
68.588829
 30
0.0
 10
45.984642
 20
68.866857
 30
0.0
 10
46.150811
 20
69.114944
 30
0.0
 10
46.285960
 20
69.357705
 30
0.0
 10
46.351817
 20
69.566047
 30
0.0
 10
46.381442
 20
69.659770
 30
0.0
 11
45.024029
 21
67.196020
 31
0.0
 11
45.106511
 21
67.227481
 31
0.0
 11
45.293627
 21
67.343034
 31
0.0
 11
45.494882
 21
67.574440
 31
0.0
 11
45.591818
 21
67.641461
 31
0.0
 11
45.769821
 21
67.836858
 31
0.0
 11
45.859687
 21
68.152132
 31
0.0
 11
45.876183
 21
68.277824
 31
0.0
 11
45.929443
 21
68.572598
 31
0.0
 11
46.025123
 21
68.912997
 31
0.0
 11
46.115145
 21
69.064558
 31
0.0
 11
46.284350
 21
69.382068
 31
0.0
 11
46.381442
 21
69.659770
 31
0.0
  0
LWPOLYLINE
  5
1f0
100
AcDbEntity
  8
0
 62
7
100
AcDbPolyline
 90
6
 70
0
 10
46.381442
 20
69.659770
 30
0.0
 10
46.459921
 20
69.861057
 30
0.0
 10
46.459921
 20
69.599381
 30
0.0
 10
46.549000
 20
69.824825
 30
0.0
 10
46.549000
 20
69.683921
 30
0.0
 10
46.629595
 20
69.790604
 30
0.0
  0
SPLINE
  5
1f1
100
AcDbEntity
  8
0
 62
7
100
AcDbSpline
 70
0
 71
3
 72
31
 73
27
 74
25
 40
0.000000
 40
0.000000
 40
0.000000
 40
0.000000
 40
0.307946
 40
1.000360
 40
1.829958
 40
2.004670
 40
2.409629
 40
2.866913
 40
3.052298
 40
3.188652
 40
3.245118
 40
3.528575
 40
3.763237
 40
3.863533
 40
4.047579
 40
4.242221
 40
4.333012
 40
4.733220
 40
4.904027
 40
4.953244
 40
5.134679
 40
5.271747
 40
5.340038
 40
5.572635
 40
5.713388
 40
5.796236
 40
5.796236
 40
5.796236
 40
5.796236
 10
46.629595
 20
69.790604
 30
0.0
 10
46.730040
 20
69.809503
 30
0.0
 10
47.056336
 20
69.870897
 30
0.0
 10
47.660766
 20
70.077435
 30
0.0
 10
47.976594
 20
70.579027
 30
0.0
 10
48.336782
 20
70.880265
 30
0.0
 10
48.594890
 20
71.111902
 30
0.0
 10
48.822966
 20
71.374383
 30
0.0
 10
49.027860
 20
71.542229
 30
0.0
 10
49.153126
 20
71.572905
 30
0.0
 10
49.312203
 20
71.581644
 30
0.0
 10
49.496100
 20
71.502635
 30
0.0
 10
49.704477
 20
71.517878
 30
0.0
 10
49.875674
 20
71.574304
 30
0.0
 10
50.020721
 20
71.473023
 30
0.0
 10
50.154868
 20
71.402484
 30
0.0
 10
50.342764
 20
71.267880
 30
0.0
 10
50.547366
 20
71.209694
 30
0.0
 10
50.776570
 20
71.167729
 30
0.0
 10
50.877757
 20
71.267177
 30
0.0
 10
51.027584
 20
71.196329
 30
0.0
 10
51.115835
 20
71.322298
 30
0.0
 10
51.145076
 20
71.466644
 30
0.0
 10
51.367542
 20
71.511216
 30
0.0
 10
51.287861
 20
71.689825
 30
0.0
 10
51.231683
 20
71.736027
 30
0.0
 10
51.210869
 20
71.753145
 30
0.0
 11
46.629595
 21
69.790604
 31
0.0
 11
46.931321
 21
69.852183
 31
0.0
 11
47.570045
 21
70.119522
 31
0.0
 11
48.146084
 21
70.716524
 31
0.0
 11
48.277583
 21
70.831556
 31
0.0
 11
48.575931
 21
71.105380
 31
0.0
 11
48.896902
 21
71.431089
 31
0.0
 11
49.048041
 21
71.538443
 31
0.0
 11
49.179855
 21
71.573333
 31
0.0
 11
49.236257
 21
71.576017
 31
0.0
 11
49.514338
 21
71.521072
 31
0.0
 11
49.748586
 21
71.535011
 31
0.0
 11
49.847093
 21
71.553872
 31
0.0
 11
50.015984
 21
71.480738
 31
0.0
 11
50.182990
 21
71.380766
 31
0.0
 11
50.258559
 21
71.330444
 31
0.0
 11
50.635226
 21
71.195208
 31
0.0
 11
50.805923
 21
71.201321
 31
0.0
 11
50.846064
 21
71.229799
 31
0.0
 11
51.027131
 21
71.241354
 31
0.0
 11
51.116762
 21
71.345055
 31
0.0
 11
51.140879
 21
71.408946
 31
0.0
 11
51.315502
 21
71.562594
 31
0.0
 11
51.270962
 21
71.696114
 31
0.0
 11
51.210869
 21
71.753145
 31
0.0
  0
LWPOLYLINE
  5
1f2
100
AcDbEntity
  8
0
 62
7
100
AcDbPolyline
 90
2
 70
0
 10
51.210869
 20
71.753145
 30
0.0
 10
51.128152
 20
71.875928
 30
0.0
  0
SPLINE
  5
1f3
100
AcDbEntity
  8
0
 62
7
100
AcDbSpline
 70
0
 71
3
 72
34
 73
30
 74
28
 40
0.000000
 40
0.000000
 40
0.000000
 40
0.000000
 40
0.216199
 40
0.360068
 40
0.412759
 40
0.575269
 40
0.712404
 40
0.770807
 40
1.036402
 40
1.241456
 40
1.330071
 40
1.527995
 40
1.749519
 40
1.855308
 40
1.971060
 40
2.050593
 40
2.084909
 40
2.649648
 40
2.964460
 40
3.079107
 40
3.238456
 40
3.386520
 40
3.452410
 40
3.880502
 40
4.074686
 40
4.136226
 40
4.671288
 40
5.138813
 40
5.355251
 40
5.355251
 40
5.355251
 40
5.355251
 10
51.128152
 20
71.875928
 30
0.0
 10
51.094876
 20
71.939919
 30
0.0
 10
51.039455
 20
72.046493
 30
0.0
 10
50.959900
 20
72.159406
 30
0.0
 10
50.881476
 20
72.249742
 30
0.0
 10
50.804274
 20
72.339185
 30
0.0
 10
50.750001
 20
72.446319
 30
0.0
 10
50.687943
 20
72.586784
 30
0.0
 10
50.659922
 20
72.768062
 30
0.0
 10
50.519911
 20
72.904866
 30
0.0
 10
50.377972
 20
72.986738
 30
0.0
 10
50.263453
 20
73.115735
 30
0.0
 10
50.105735
 20
73.197930
 30
0.0
 10
49.972196
 20
73.258039
 30
0.0
 10
49.889037
 20
73.323280
 30
0.0
 10
49.867258
 20
73.400568
 30
0.0
 10
49.878583
 20
73.627861
 30
0.0
 10
50.215858
 20
73.837909
 30
0.0
 10
50.244715
 20
74.131632
 30
0.0
 10
50.228792
 20
74.404392
 30
0.0
 10
50.076773
 20
74.230444
 30
0.0
 10
50.005473
 20
74.167427
 30
0.0
 10
49.857550
 20
73.958880
 30
0.0
 10
49.985514
 20
74.481325
 30
0.0
 10
49.888721
 20
74.663957
 30
0.0
 10
49.658439
 20
74.817992
 30
0.0
 10
49.324678
 20
74.416173
 30
0.0
 10
49.148247
 20
74.099076
 30
0.0
 10
49.089432
 20
73.875125
 30
0.0
 10
49.070821
 20
73.804256
 30
0.0
 11
51.128152
 21
71.875928
 31
0.0
 11
51.023283
 21
72.064990
 31
0.0
 11
50.939623
 21
72.182035
 31
0.0
 11
50.905452
 21
72.222143
 31
0.0
 11
50.804666
 21
72.349624
 31
0.0
 11
50.739702
 21
72.470396
 31
0.0
 11
50.716685
 21
72.524072
 31
0.0
 11
50.627132
 21
72.774113
 31
0.0
 11
50.485265
 21
72.922171
 31
0.0
 11
50.411269
 21
72.970927
 31
0.0
 11
50.261779
 21
73.100646
 31
0.0
 11
50.070814
 21
73.212919
 31
0.0
 11
49.976471
 21
73.260781
 31
0.0
 11
49.891476
 21
73.339357
 31
0.0
 11
49.869167
 21
73.415696
 31
0.0
 11
49.870423
 21
73.449990
 31
0.0
 11
50.184797
 21
73.919138
 31
0.0
 11
50.237586
 21
74.229492
 31
0.0
 11
50.214019
 21
74.341691
 31
0.0
 11
50.086683
 21
74.245892
 31
0.0
 11
49.985741
 21
74.137570
 31
0.0
 11
49.944658
 21
74.086056
 31
0.0
 11
49.932560
 21
74.513977
 31
0.0
 11
49.847878
 21
74.688723
 31
0.0
 11
49.796189
 21
74.722122
 31
0.0
 11
49.351730
 21
74.424218
 31
0.0
 11
49.130679
 21
74.012252
 31
0.0
 11
49.070821
 21
73.804256
 31
0.0
  0
LWPOLYLINE
  5
1f4
100
AcDbEntity
  8
0
 62
7
100
AcDbPolyline
 90
2
 70
0
 10
49.070821
 20
73.804256
 30
0.0
 10
49.070821
 20
73.918990
 30
0.0
  0
SPLINE
  5
1f5
100
AcDbEntity
  8
0
 62
7
100
AcDbSpline
 70
0
 71
3
 72
10
 73
6
 74
4
 40
0.000000
 40
0.000000
 40
0.000000
 40
0.000000
 40
0.141366
 40
0.270864
 40
0.329158
 40
0.329158
 40
0.329158
 40
0.329158
 10
49.070821
 20
73.918990
 30
0.0
 10
49.037805
 20
73.884689
 30
0.0
 10
48.974544
 20
73.818968
 30
0.0
 10
48.935127
 20
73.714246
 30
0.0
 10
48.918906
 20
73.653903
 30
0.0
 10
48.913870
 20
73.635172
 30
0.0
 11
49.070821
 21
73.918990
 31
0.0
 11
48.980168
 21
73.810517
 31
0.0
 11
48.929580
 21
73.691309
 31
0.0
 11
48.913870
 21
73.635172
 31
0.0
  0
SPLINE
  5
1f6
100
AcDbEntity
  8
0
 62
7
100
AcDbSpline
 70
0
 71
3
 72
46
 73
42
 74
40
 40
0.000000
 40
0.000000
 40
0.000000
 40
0.000000
 40
0.173855
 40
0.381232
 40
0.481689
 40
0.590416
 40
0.864338
 40
1.226362
 40
1.397056
 40
1.800984
 40
2.330127
 40
2.425459
 40
2.645481
 40
2.901609
 40
3.768975
 40
5.663220
 40
7.621351
 40
8.235470
 40
9.604515
 40
11.053564
 40
11.304735
 40
11.954132
 40
12.902907
 40
14.092539
 40
16.518173
 40
18.483406
 40
19.356303
 40
21.155508
 40
22.959945
 40
23.038656
 40
23.188024
 40
23.299312
 40
23.334553
 40
23.462591
 40
23.748638
 40
24.147340
 40
25.259383
 40
27.272915
 40
27.826697
 40
29.417290
 40
32.035793
 40
32.035793
 40
32.035793
 40
32.035793
 10
48.913870
 20
73.774062
 30
0.0
 10
48.884273
 20
73.724084
 30
0.0
 10
48.819372
 20
73.614492
 30
0.0
 10
48.742769
 20
73.475642
 30
0.0
 10
48.700548
 20
73.336075
 30
0.0
 10
48.549254
 20
73.259210
 30
0.0
 10
48.365283
 20
73.096707
 30
0.0
 10
48.170025
 20
72.910460
 30
0.0
 10
47.923490
 20
72.717094
 30
0.0
 10
47.590421
 20
72.562247
 30
0.0
 10
47.227248
 20
72.494833
 30
0.0
 10
46.962761
 20
72.593602
 30
0.0
 10
46.775443
 20
72.639677
 30
0.0
 10
46.317111
 20
72.559194
 30
0.0
 10
45.508796
 20
73.352101
 30
0.0
 10
44.027394
 20
73.776203
 30
0.0
 10
42.514721
 20
74.163348
 30
0.0
 10
41.239976
 20
73.811629
 30
0.0
 10
40.118587
 20
73.542191
 30
0.0
 10
39.264025
 20
72.950669
 30
0.0
 10
38.545279
 20
72.638606
 30
0.0
 10
38.040308
 20
72.265511
 30
0.0
 10
37.494616
 20
71.504694
 30
0.0
 10
36.664997
 20
70.232393
 30
0.0
 10
35.584617
 20
68.719405
 30
0.0
 10
34.434768
 20
67.374298
 30
0.0
 10
33.184524
 20
66.457498
 30
0.0
 10
31.886037
 20
65.717351
 30
0.0
 10
30.526311
 20
65.651804
 30
0.0
 10
29.922638
 20
65.985771
 30
0.0
 10
29.835412
 20
66.030908
 30
0.0
 10
29.687115
 20
66.033786
 30
0.0
 10
29.701689
 20
65.932047
 30
0.0
 10
29.787584
 20
65.810782
 30
0.0
 10
29.989325
 20
65.625273
 30
0.0
 10
30.493201
 20
65.293205
 30
0.0
 10
31.703145
 20
65.119759
 30
0.0
 10
32.922418
 20
65.410253
 30
0.0
 10
34.181050
 20
65.992479
 30
0.0
 10
35.482565
 20
66.933389
 30
0.0
 10
36.405231
 20
67.994945
 30
0.0
 10
36.979228
 20
68.655345
 30
0.0
 11
48.913870
 21
73.774062
 31
0.0
 11
48.825968
 21
73.624066
 31
0.0
 11
48.733823
 21
73.438286
 31
0.0
 11
48.691168
 21
73.347334
 31
0.0
 11
48.603031
 21
73.283667
 31
0.0
 11
48.387636
 21
73.114437
 31
0.0
 11
48.118509
 21
72.872298
 31
0.0
 11
47.982925
 21
72.768598
 31
0.0
 11
47.619220
 21
72.592882
 31
0.0
 11
47.091965
 21
72.548226
 31
0.0
 11
47.001392
 21
72.577972
 31
0.0
 11
46.785919
 21
72.622478
 31
0.0
 11
46.529911
 21
72.614650
 31
0.0
 11
45.771314
 21
73.035190
 31
0.0
 11
44.024349
 21
73.767501
 31
0.0
 11
42.082257
 21
74.017616
 31
0.0
 11
41.483518
 21
73.881040
 31
0.0
 11
40.176850
 21
73.472504
 31
0.0
 11
38.896576
 21
72.793797
 31
0.0
 11
38.669397
 21
72.686667
 31
0.0
 11
38.142455
 21
72.307130
 31
0.0
 11
37.547643
 21
71.567961
 31
0.0
 11
36.885039
 21
70.579941
 31
0.0
 11
35.462189
 21
68.615458
 31
0.0
 11
34.126535
 21
67.173872
 31
0.0
 11
33.428426
 21
66.649857
 31
0.0
 11
31.816418
 21
65.850750
 31
0.0
 11
30.013995
 21
65.935961
 31
0.0
 11
29.944710
 21
65.973310
 31
0.0
 11
29.804726
 21
66.025421
 31
0.0
 11
29.695849
 21
66.002384
 31
0.0
 11
29.697813
 21
65.967197
 31
0.0
 11
29.759636
 21
65.855075
 31
0.0
 11
29.965213
 21
65.656174
 31
0.0
 11
30.299775
 21
65.439307
 31
0.0
 11
31.388927
 21
65.214835
 31
0.0
 11
33.360871
 21
65.621956
 31
0.0
 11
33.862988
 21
65.855523
 31
0.0
 11
35.169185
 21
66.763176
 31
0.0
 11
36.979228
 21
68.655345
 31
0.0
  0
LWPOLYLINE
  5
1f7
100
AcDbEntity
  8
0
 62
7
100
AcDbPolyline
 90
2
 70
0
 10
48.913870
 20
73.635172
 30
0.0
 10
48.913870
 20
73.774062
 30
0.0
  0
SPLINE
  5
1f8
100
AcDbEntity
  8
0
 62
7
100
AcDbSpline
 70
0
 71
3
 72
10
 73
6
 74
4
 40
0.000000
 40
0.000000
 40
0.000000
 40
0.000000
 40
0.482981
 40
1.416691
 40
2.035302
 40
2.035302
 40
2.035302
 40
2.035302
 10
36.979228
 20
68.655345
 30
0.0
 10
37.085806
 20
68.775856
 30
0.0
 10
37.398424
 20
69.129339
 30
0.0
 10
37.839512
 20
69.649990
 30
0.0
 10
38.252616
 20
69.963550
 30
0.0
 10
38.417241
 20
70.088506
 30
0.0
 11
36.979228
 21
68.655345
 31
0.0
 11
37.298312
 21
69.017913
 31
0.0
 11
37.935545
 21
69.700371
 31
0.0
 11
38.417241
 21
70.088506
 31
0.0
  0
LWPOLYLINE
  5
1f9
100
AcDbEntity
  8
0
 62
7
100
AcDbPolyline
 90
1
 70
1
 10
38.417241
 20
70.088506
 30
0.0
  0
SPLINE
  5
1fa
100
AcDbEntity
  8
0
 62
7
100
AcDbSpline
 70
0
 71
3
 72
19
 73
15
 74
13
 40
0.000000
 40
0.000000
 40
0.000000
 40
0.000000
 40
1.371679
 40
2.700411
 40
4.066284
 40
5.432157
 40
6.760889
 40
8.132568
 40
9.504248
 40
10.832981
 40
12.198854
 40
13.564727
 40
14.893460
 40
16.265140
 40
16.265140
 40
16.265140
 40
16.265140
 10
52.260376
 20
87.519722
 30
0.0
 10
51.797955
 20
87.447998
 30
0.0
 10
50.887592
 20
87.306796
 30
0.0
 10
49.883117
 20
86.268207
 30
0.0
 10
49.509554
 20
84.910375
 30
0.0
 10
49.883117
 20
83.538395
 30
0.0
 10
50.887592
 20
82.541544
 30
0.0
 10
52.260376
 20
82.171681
 30
0.0
 10
53.633160
 20
82.541544
 30
0.0
 10
54.637636
 20
83.538394
 30
0.0
 10
55.011200
 20
84.910375
 30
0.0
 10
54.637636
 20
86.268207
 30
0.0
 10
53.633160
 20
87.306796
 30
0.0
 10
52.722796
 20
87.447998
 30
0.0
 10
52.260376
 20
87.519722
 30
0.0
 11
52.260376
 21
87.519722
 31
0.0
 11
50.935887
 21
87.163023
 31
0.0
 11
49.993866
 21
86.225940
 31
0.0
 11
49.635214
 21
84.907996
 31
0.0
 11
49.993866
 21
83.590051
 31
0.0
 11
50.935887
 21
82.652968
 31
0.0
 11
52.260376
 21
82.296269
 31
0.0
 11
53.584865
 21
82.652968
 31
0.0
 11
54.526887
 21
83.590051
 31
0.0
 11
54.885540
 21
84.907996
 31
0.0
 11
54.526887
 21
86.225940
 31
0.0
 11
53.584865
 21
87.163023
 31
0.0
 11
52.260376
 21
87.519722
 31
0.0
  0
LWPOLYLINE
  5
1fb
100
AcDbEntity
  8
0
 62
7
100
AcDbPolyline
 90
1
 70
1
 10
52.260376
 20
87.519722
 30
0.0
  0
LWPOLYLINE
  5
1fc
100
AcDbEntity
  8
0
 62
7
100
AcDbPolyline
 90
1
 70
1
 10
52.260376
 20
87.387431
 30
0.0
  0
SPLINE
  5
1fd
100
AcDbEntity
  8
0
 62
7
100
AcDbSpline
 70
0
 71
3
 72
19
 73
15
 74
13
 40
0.000000
 40
0.000000
 40
0.000000
 40
0.000000
 40
1.303271
 40
2.564393
 40
3.861498
 40
5.158602
 40
6.419724
 40
7.722995
 40
9.026265
 40
10.287386
 40
11.584491
 40
12.881595
 40
14.142717
 40
15.445986
 40
15.445986
 40
15.445986
 40
15.445986
 10
52.260376
 20
87.387431
 30
0.0
 10
52.699786
 20
87.319527
 30
0.0
 10
53.564395
 20
87.185916
 30
0.0
 10
54.518566
 20
86.199648
 30
0.0
 10
54.872240
 20
84.910247
 30
0.0
 10
54.518566
 20
83.607462
 30
0.0
 10
53.564395
 20
82.660667
 30
0.0
 10
52.260376
 20
82.310600
 30
0.0
 10
50.956358
 20
82.660667
 30
0.0
 10
50.002188
 20
83.607462
 30
0.0
 10
49.648514
 20
84.910247
 30
0.0
 10
50.002188
 20
86.199648
 30
0.0
 10
50.956358
 20
87.185916
 30
0.0
 10
51.820966
 20
87.319527
 30
0.0
 10
52.260376
 20
87.387431
 30
0.0
 11
52.260376
 21
87.387431
 31
0.0
 11
53.518955
 21
87.049059
 31
0.0
 11
54.413087
 21
86.159703
 31
0.0
 11
54.753248
 21
84.907996
 31
0.0
 11
54.413087
 21
83.656289
 31
0.0
 11
53.518955
 21
82.766932
 31
0.0
 11
52.260376
 21
82.428560
 31
0.0
 11
51.001798
 21
82.766932
 31
0.0
 11
50.107667
 21
83.656289
 31
0.0
 11
49.767506
 21
84.907996
 31
0.0
 11
50.107667
 21
86.159703
 31
0.0
 11
51.001798
 21
87.049059
 31
0.0
 11
52.260376
 21
87.387431
 31
0.0
  0
LWPOLYLINE
  5
1fe
100
AcDbEntity
  8
0
 62
7
100
AcDbPolyline
 90
2
 70
0
 10
44.569856
 20
38.198743
 30
0.0
 10
46.220920
 20
38.198743
 30
0.0
  0
LWPOLYLINE
  5
1ff
100
AcDbEntity
  8
0
 62
7
100
AcDbPolyline
 90
5
 70
0
 10
45.727408
 20
35.679518
 30
0.0
 10
45.071117
 20
35.679518
 30
0.0
 10
44.812736
 20
34.341096
 30
0.0
 10
43.817966
 20
34.341096
 30
0.0
 10
44.569856
 20
38.198743
 30
0.0
  0
SPLINE
  5
200
100
AcDbEntity
  8
0
 62
7
100
AcDbSpline
 70
0
 71
3
 72
25
 73
21
 74
19
 40
0.000000
 40
0.000000
 40
0.000000
 40
0.000000
 40
0.376507
 40
0.705996
 40
1.006089
 40
1.288739
 40
1.569801
 40
1.877072
 40
2.075855
 40
2.271622
 40
2.467815
 40
2.661686
 40
2.853756
 40
3.047646
 40
3.258208
 40
3.469737
 40
3.687249
 40
3.923589
 40
4.191728
 40
4.494232
 40
4.494232
 40
4.494232
 40
4.494232
 10
46.220920
 20
38.198743
 30
0.0
 10
46.346642
 20
38.193712
 30
0.0
 10
46.582388
 20
38.184278
 30
0.0
 10
46.908620
 20
38.091099
 30
0.0
 10
47.173116
 20
37.934360
 30
0.0
 10
47.373309
 20
37.720691
 30
0.0
 10
47.491706
 20
37.449711
 30
0.0
 10
47.519583
 20
37.185694
 30
0.0
 10
47.504583
 20
36.951821
 30
0.0
 10
47.466471
 20
36.758002
 30
0.0
 10
47.403529
 20
36.572535
 30
0.0
 10
47.316571
 20
36.398376
 30
0.0
 10
47.206959
 20
36.238470
 30
0.0
 10
47.073067
 20
36.090619
 30
0.0
 10
46.913405
 20
35.960112
 30
0.0
 10
46.728475
 20
35.852417
 30
0.0
 10
46.521527
 20
35.770134
 30
0.0
 10
46.286074
 20
35.717139
 30
0.0
 10
46.018575
 20
35.684744
 30
0.0
 10
45.828284
 20
35.681328
 30
0.0
 10
45.727408
 20
35.679518
 30
0.0
 11
46.220920
 21
38.198743
 31
0.0
 11
46.596148
 21
38.167737
 31
0.0
 11
46.912235
 21
38.074719
 31
0.0
 11
47.169181
 21
37.919689
 31
0.0
 11
47.360097
 21
37.711261
 31
0.0
 11
47.474647
 21
37.454602
 31
0.0
 11
47.512830
 21
37.149712
 31
0.0
 11
47.500198
 21
36.951331
 31
0.0
 11
47.462302
 21
36.759267
 31
0.0
 11
47.399141
 21
36.573518
 31
0.0
 11
47.312439
 21
36.400115
 31
0.0
 11
47.203919
 21
36.241641
 31
0.0
 11
47.073579
 21
36.098096
 31
0.0
 11
46.910512
 21
35.964886
 31
0.0
 11
46.727922
 21
35.858088
 31
0.0
 11
46.525810
 21
35.777702
 31
0.0
 11
46.295850
 21
35.723155
 31
0.0
 11
46.029716
 21
35.690427
 31
0.0
 11
45.727408
 21
35.679518
 31
0.0
  0
LWPOLYLINE
  5
201
100
AcDbEntity
  8
0
 62
7
100
AcDbPolyline
 90
3
 70
0
 10
45.427686
 20
37.477856
 30
0.0
 10
45.215813
 20
36.400401
 30
0.0
 10
45.766167
 20
36.400401
 30
0.0
  0
LWPOLYLINE
  5
202
100
AcDbEntity
  8
0
 62
7
100
AcDbPolyline
 90
2
 70
0
 10
45.972873
 20
37.477856
 30
0.0
 10
45.427686
 20
37.477856
 30
0.0
  0
SPLINE
  5
203
100
AcDbEntity
  8
0
 62
7
100
AcDbSpline
 70
0
 71
3
 72
19
 73
15
 74
13
 40
0.000000
 40
0.000000
 40
0.000000
 40
0.000000
 40
0.216673
 40
0.404106
 40
0.573567
 40
0.737225
 40
0.909006
 40
1.103607
 40
1.233088
 40
1.348896
 40
1.462002
 40
1.580418
 40
1.713158
 40
1.867532
 40
1.867532
 40
1.867532
 40
1.867532
 10
45.766167
 20
36.400401
 30
0.0
 10
45.838541
 20
36.403324
 30
0.0
 10
45.973522
 20
36.408774
 30
0.0
 10
46.159039
 20
36.463940
 30
0.0
 10
46.308118
 20
36.557518
 30
0.0
 10
46.416530
 20
36.690480
 30
0.0
 10
46.478351
 20
36.858738
 30
0.0
 10
46.494790
 20
37.024544
 30
0.0
 10
46.481843
 20
37.171780
 30
0.0
 10
46.435986
 20
37.284498
 30
0.0
 10
46.357638
 20
37.372546
 30
0.0
 10
46.252016
 20
37.435565
 30
0.0
 10
46.120279
 20
37.472236
 30
0.0
 10
46.024416
 20
37.475891
 30
0.0
 10
45.972873
 20
37.477856
 30
0.0
 11
45.766167
 21
36.400401
 31
0.0
 11
45.982059
 21
36.418775
 31
0.0
 11
46.161204
 21
36.473897
 31
0.0
 11
46.303602
 21
36.565766
 31
0.0
 11
46.406954
 21
36.692660
 31
0.0
 11
46.468965
 21
36.852858
 31
0.0
 11
46.489636
 21
37.046358
 31
0.0
 11
46.474707
 21
37.174975
 31
0.0
 11
46.429921
 21
37.281773
 31
0.0
 11
46.355278
 21
37.366752
 31
0.0
 11
46.254221
 21
37.428477
 31
0.0
 11
46.126753
 21
37.465511
 31
0.0
 11
45.972873
 21
37.477856
 31
0.0
  0
LWPOLYLINE
  5
204
100
AcDbEntity
  8
0
 62
7
100
AcDbPolyline
 90
3
 70
0
 10
50.765861
 20
35.679518
 30
0.0
 10
50.734854
 20
35.532237
 30
0.0
 10
48.569613
 20
35.532237
 30
0.0
  0
SPLINE
  5
205
100
AcDbEntity
  8
0
 62
7
100
AcDbSpline
 70
0
 71
3
 72
25
 73
21
 74
19
 40
0.000000
 40
0.000000
 40
0.000000
 40
0.000000
 40
0.012062
 40
0.027590
 40
0.046594
 40
0.064168
 40
0.078836
 40
0.090609
 40
0.263587
 40
0.414726
 40
0.558060
 40
0.711438
 40
0.887368
 40
1.094940
 40
1.293274
 40
1.500338
 40
1.717760
 40
1.948506
 40
2.191955
 40
2.449061
 40
2.449061
 40
2.449061
 40
2.449061
 10
48.569613
 20
35.532237
 30
0.0
 10
48.569541
 20
35.528217
 30
0.0
 10
48.569378
 20
35.519021
 30
0.0
 10
48.568398
 20
35.503516
 30
0.0
 10
48.567045
 20
35.486201
 30
0.0
 10
48.565500
 20
35.469189
 30
0.0
 10
48.564561
 20
35.454543
 30
0.0
 10
48.563153
 20
35.388084
 30
0.0
 10
48.574301
 20
35.275426
 30
0.0
 10
48.630100
 20
35.127432
 30
0.0
 10
48.729357
 20
35.011551
 30
0.0
 10
48.869176
 20
34.933568
 30
0.0
 10
49.043883
 20
34.888865
 30
0.0
 10
49.238286
 20
34.877327
 30
0.0
 10
49.442564
 20
34.888113
 30
0.0
 10
49.648329
 20
34.917802
 30
0.0
 10
49.861239
 20
34.967537
 30
0.0
 10
50.081524
 20
35.036035
 30
0.0
 10
50.309497
 20
35.122983
 30
0.0
 10
50.460698
 20
35.193640
 30
0.0
 10
50.538361
 20
35.229932
 30
0.0
 11
48.569613
 21
35.532237
 31
0.0
 11
48.569319
 21
35.520179
 31
0.0
 11
48.568437
 21
35.504676
 31
0.0
 11
48.566967
 21
35.485729
 31
0.0
 11
48.565497
 21
35.468217
 31
0.0
 11
48.564615
 21
35.453575
 31
0.0
 11
48.564321
 21
35.441805
 31
0.0
 11
48.582982
 21
35.269837
 31
0.0
 11
48.638964
 21
35.129449
 31
0.0
 11
48.732268
 21
35.020642
 31
0.0
 11
48.864618
 21
34.943127
 31
0.0
 11
49.034289
 21
34.896619
 31
0.0
 11
49.241281
 21
34.881116
 31
0.0
 11
49.439375
 21
34.890877
 31
0.0
 11
49.644358
 21
34.920160
 31
0.0
 11
49.856231
 21
34.968966
 31
0.0
 11
50.076718
 21
35.037006
 31
0.0
 11
50.304094
 21
35.123995
 31
0.0
 11
50.538361
 21
35.229932
 31
0.0
  0
LWPOLYLINE
  5
206
100
AcDbEntity
  8
0
 62
7
100
AcDbPolyline
 90
2
 70
0
 10
50.538361
 20
35.229932
 30
0.0
 10
50.396251
 20
34.511628
 30
0.0
  0
SPLINE
  5
207
100
AcDbEntity
  8
0
 62
7
100
AcDbSpline
 70
0
 71
3
 72
43
 73
39
 74
37
 40
0.000000
 40
0.000000
 40
0.000000
 40
0.000000
 40
0.237679
 40
0.470641
 40
0.699690
 40
0.925973
 40
1.153429
 40
1.382918
 40
1.801505
 40
2.165556
 40
2.495469
 40
2.808171
 40
3.127107
 40
3.481434
 40
3.700006
 40
3.917090
 40
4.135848
 40
4.357766
 40
4.579917
 40
4.805425
 40
5.073393
 40
5.336948
 40
5.602260
 40
5.874183
 40
6.154070
 40
6.447156
 40
6.812842
 40
7.139947
 40
7.449379
 40
7.751166
 40
8.054735
 40
8.385982
 40
8.456341
 40
8.529732
 40
8.606297
 40
8.685389
 40
8.770206
 40
8.860858
 40
8.860858
 40
8.860858
 40
8.860858
 10
50.396251
 20
34.511628
 30
0.0
 10
50.321419
 20
34.485553
 30
0.0
 10
50.173239
 20
34.433920
 30
0.0
 10
49.947875
 20
34.373018
 30
0.0
 10
49.723113
 20
34.326556
 30
0.0
 10
49.498158
 20
34.291177
 30
0.0
 10
49.271145
 20
34.270843
 30
0.0
 10
48.979407
 20
34.261432
 30
0.0
 10
48.641049
 20
34.284201
 30
0.0
 10
48.280884
 20
34.386139
 30
0.0
 10
47.989449
 20
34.561928
 30
0.0
 10
47.775867
 20
34.808611
 30
0.0
 10
47.651077
 20
35.118460
 30
0.0
 10
47.621947
 20
35.417398
 30
0.0
 10
47.637470
 20
35.680653
 30
0.0
 10
47.676569
 20
35.895838
 30
0.0
 10
47.741326
 20
36.105874
 30
0.0
 10
47.832434
 20
36.307756
 30
0.0
 10
47.947747
 20
36.499486
 30
0.0
 10
48.094598
 20
36.688041
 30
0.0
 10
48.272067
 20
36.868651
 30
0.0
 10
48.486600
 20
37.027134
 30
0.0
 10
48.723838
 20
37.151706
 30
0.0
 10
48.982372
 20
37.240556
 30
0.0
 10
49.259862
 20
37.293653
 30
0.0
 10
49.572841
 20
37.312248
 30
0.0
 10
49.902488
 20
37.285882
 30
0.0
 10
50.224100
 20
37.181979
 30
0.0
 10
50.486560
 20
37.004541
 30
0.0
 10
50.685412
 20
36.767327
 30
0.0
 10
50.803467
 20
36.473185
 30
0.0
 10
50.827824
 20
36.236668
 30
0.0
 10
50.823941
 20
36.078408
 30
0.0
 10
50.818789
 20
36.005108
 30
0.0
 10
50.809672
 20
35.929296
 30
0.0
 10
50.799382
 20
35.849792
 30
0.0
 10
50.784578
 20
35.766204
 30
0.0
 10
50.772153
 20
35.709047
 30
0.0
 10
50.765734
 20
35.679518
 30
0.0
 11
50.396251
 21
34.511628
 31
0.0
 11
50.170884
 21
34.436123
 31
0.0
 11
49.946091
 21
34.374973
 31
0.0
 11
49.721873
 21
34.328177
 31
0.0
 11
49.498229
 21
34.293727
 31
0.0
 11
49.271713
 21
34.273056
 31
0.0
 11
49.042328
 21
34.266166
 31
0.0
 11
48.625185
 21
34.300904
 31
0.0
 11
48.276369
 21
34.405118
 31
0.0
 11
47.995880
 21
34.578809
 31
0.0
 11
47.792045
 21
34.815946
 31
0.0
 11
47.669744
 21
35.110501
 31
0.0
 11
47.628977
 21
35.462475
 31
0.0
 11
47.641896
 21
35.680664
 31
0.0
 11
47.680654
 21
35.894260
 31
0.0
 11
47.745250
 21
36.103264
 31
0.0
 11
47.836257
 21
36.305663
 31
0.0
 11
47.950806
 21
36.496004
 31
0.0
 11
48.088897
 21
36.674287
 31
0.0
 11
48.277803
 21
36.864342
 31
0.0
 11
48.489677
 21
37.021094
 31
0.0
 11
48.724518
 21
37.144542
 31
0.0
 11
48.981465
 21
37.233540
 31
0.0
 11
49.256211
 21
37.286940
 31
0.0
 11
49.548756
 21
37.304739
 31
0.0
 11
49.912789
 21
37.270001
 31
0.0
 11
50.222848
 21
37.165787
 31
0.0
 11
50.478933
 21
36.992097
 31
0.0
 11
50.671284
 21
36.759553
 31
0.0
 11
50.786694
 21
36.478778
 31
0.0
 11
50.825165
 21
36.149772
 31
0.0
 11
50.823442
 21
36.079434
 31
0.0
 11
50.818274
 21
36.006226
 31
0.0
 11
50.809660
 21
35.930147
 31
0.0
 11
50.799041
 21
35.851771
 31
0.0
 11
50.784399
 21
35.768228
 31
0.0
 11
50.765734
 21
35.679518
 31
0.0
  0
LWPOLYLINE
  5
208
100
AcDbEntity
  8
0
 62
7
100
AcDbPolyline
 90
2
 70
0
 10
50.765734
 20
35.679518
 30
0.0
 10
50.765861
 20
35.679518
 30
0.0
  0
LWPOLYLINE
  5
209
100
AcDbEntity
  8
0
 62
7
100
AcDbPolyline
 90
2
 70
0
 10
48.696224
 20
36.103264
 30
0.0
 10
49.892529
 20
36.103264
 30
0.0
  0
SPLINE
  5
20a
100
AcDbEntity
  8
0
 62
7
100
AcDbSpline
 70
0
 71
3
 72
25
 73
21
 74
19
 40
0.000000
 40
0.000000
 40
0.000000
 40
0.000000
 40
0.022859
 40
0.045516
 40
0.068026
 40
0.092027
 40
0.115346
 40
0.138034
 40
0.267102
 40
0.384035
 40
0.497726
 40
0.612170
 40
0.731228
 40
0.863406
 40
1.036178
 40
1.198236
 40
1.358010
 40
1.520622
 40
1.695240
 40
1.888363
 40
1.888363
 40
1.888363
 40
1.888363
 10
49.892529
 20
36.103264
 30
0.0
 10
49.894130
 20
36.110714
 30
0.0
 10
49.897317
 20
36.125548
 30
0.0
 10
49.900856
 20
36.147968
 30
0.0
 10
49.902683
 20
36.170963
 30
0.0
 10
49.906006
 20
36.194012
 30
0.0
 10
49.907626
 20
36.217311
 30
0.0
 10
49.909015
 20
36.275645
 30
0.0
 10
49.900303
 20
36.365688
 30
0.0
 10
49.858598
 20
36.479757
 30
0.0
 10
49.787685
 20
36.572497
 30
0.0
 10
49.692870
 20
36.641639
 30
0.0
 10
49.576300
 20
36.682495
 30
0.0
 10
49.434521
 20
36.694297
 30
0.0
 10
49.278523
 20
36.679760
 30
0.0
 10
49.119979
 20
36.629476
 30
0.0
 10
48.980915
 20
36.544255
 30
0.0
 10
48.862611
 20
36.426539
 30
0.0
 10
48.764494
 20
36.277736
 30
0.0
 10
48.719731
 20
36.163340
 30
0.0
 10
48.696224
 20
36.103264
 30
0.0
 11
49.892529
 21
36.103264
 31
0.0
 11
49.897124
 21
36.125656
 31
0.0
 11
49.900573
 21
36.148049
 31
0.0
 11
49.902875
 21
36.170441
 31
0.0
 11
49.905741
 21
36.194270
 31
0.0
 11
49.907461
 21
36.217525
 31
0.0
 11
49.908034
 21
36.240207
 31
0.0
 11
49.894254
 21
36.368536
 31
0.0
 11
49.852912
 21
36.477918
 31
0.0
 11
49.784011
 21
36.568351
 31
0.0
 11
49.691567
 21
36.635817
 31
0.0
 11
49.579602
 21
36.676296
 31
0.0
 11
49.448114
 21
36.689789
 31
0.0
 11
49.276147
 21
36.673138
 31
0.0
 11
49.121979
 21
36.623185
 31
0.0
 11
48.985612
 21
36.539929
 31
0.0
 11
48.869627
 21
36.425954
 31
0.0
 11
48.773164
 21
36.280399
 31
0.0
 11
48.696224
 21
36.103264
 31
0.0
  0
LWPOLYLINE
  5
20b
100
AcDbEntity
  8
0
 62
7
100
AcDbPolyline
 90
6
 70
0
 10
52.928520
 20
38.056632
 30
0.0
 10
52.770908
 20
37.234977
 30
0.0
 10
53.716587
 20
37.234977
 30
0.0
 10
53.584811
 20
36.573518
 30
0.0
 10
52.639132
 20
36.573518
 30
0.0
 10
52.401420
 20
35.348788
 30
0.0
  0
SPLINE
  5
20c
100
AcDbEntity
  8
0
 62
7
100
AcDbSpline
 70
0
 71
3
 72
19
 73
15
 74
13
 40
0.000000
 40
0.000000
 40
0.000000
 40
0.000000
 40
0.026879
 40
0.050702
 40
0.071478
 40
0.090196
 40
0.108304
 40
0.125818
 40
0.198106
 40
0.260548
 40
0.320643
 40
0.391857
 40
0.482225
 40
0.594624
 40
0.594624
 40
0.594624
 40
0.594624
 10
52.401420
 20
35.348788
 30
0.0
 10
52.399262
 20
35.340090
 30
0.0
 10
52.395191
 20
35.323683
 30
0.0
 10
52.390223
 20
35.300398
 30
0.0
 10
52.385421
 20
35.279783
 30
0.0
 10
52.384479
 20
35.260556
 30
0.0
 10
52.383455
 20
35.242479
 30
0.0
 10
52.382822
 20
35.206523
 30
0.0
 10
52.387540
 20
35.155396
 30
0.0
 10
52.413856
 20
35.094501
 30
0.0
 10
52.461629
 20
35.048428
 30
0.0
 10
52.531575
 20
35.021173
 30
0.0
 10
52.621724
 20
35.004893
 30
0.0
 10
52.689402
 20
35.003389
 30
0.0
 10
52.726918
 20
35.002555
 30
0.0
 11
52.401420
 21
35.348788
 31
0.0
 11
52.395099
 21
35.322663
 31
0.0
 11
52.389931
 21
35.299408
 31
0.0
 11
52.385915
 21
35.279023
 31
0.0
 11
52.384445
 21
35.260363
 31
0.0
 11
52.383563
 21
35.242277
 31
0.0
 11
52.383269
 21
35.224765
 31
0.0
 11
52.391882
 21
35.152992
 31
0.0
 11
52.417720
 21
35.096147
 31
0.0
 11
52.460784
 21
35.054230
 31
0.0
 11
52.525955
 21
35.025522
 31
0.0
 11
52.614666
 21
35.008296
 31
0.0
 11
52.726918
 21
35.002555
 31
0.0
  0
LWPOLYLINE
  5
20d
100
AcDbEntity
  8
0
 62
7
100
AcDbPolyline
 90
4
 70
0
 10
52.726918
 20
35.002555
 30
0.0
 10
53.204925
 20
35.002555
 30
0.0
 10
53.073149
 20
34.341096
 30
0.0
 10
52.295420
 20
34.341096
 30
0.0
  0
LWPOLYLINE
  5
20e
100
AcDbEntity
  8
0
 62
7
100
AcDbPolyline
 90
7
 70
0
 10
51.468599
 20
35.346203
 30
0.0
 10
51.706312
 20
36.573518
 30
0.0
 10
51.251559
 20
36.573518
 30
0.0
 10
51.378165
 20
37.234977
 30
0.0
 10
51.838087
 20
37.234977
 30
0.0
 10
51.998282
 20
38.056632
 30
0.0
 10
52.928520
 20
38.056632
 30
0.0
  0
SPLINE
  5
20f
100
AcDbEntity
  8
0
 62
7
100
AcDbSpline
 70
0
 71
3
 72
19
 73
15
 74
13
 40
0.000000
 40
0.000000
 40
0.000000
 40
0.000000
 40
0.257687
 40
0.478336
 40
0.673087
 40
0.854581
 40
1.038582
 40
1.243302
 40
1.292688
 40
1.344429
 40
1.398573
 40
1.454309
 40
1.510826
 40
1.568172
 40
1.568172
 40
1.568172
 40
1.568172
 10
52.295420
 20
34.341096
 30
0.0
 10
52.209384
 20
34.344182
 30
0.0
 10
52.049680
 20
34.349911
 30
0.0
 10
51.830575
 20
34.407737
 30
0.0
 10
51.654577
 20
34.505986
 30
0.0
 10
51.525773
 20
34.646151
 30
0.0
 10
51.450684
 20
34.824440
 30
0.0
 10
51.436153
 20
34.971503
 30
0.0
 10
51.438228
 20
35.073393
 30
0.0
 10
51.440825
 20
35.125099
 30
0.0
 10
51.445131
 20
35.178807
 30
0.0
 10
51.451147
 20
35.233952
 30
0.0
 10
51.458833
 20
35.289972
 30
0.0
 10
51.465328
 20
35.327369
 30
0.0
 10
51.468599
 20
35.346203
 30
0.0
 11
52.295420
 21
34.341096
 31
0.0
 11
52.038473
 21
34.360618
 31
0.0
 11
51.825738
 21
34.419185
 31
0.0
 11
51.657216
 21
34.516796
 31
0.0
 11
51.535202
 21
34.651155
 31
0.0
 11
51.461993
 21
34.819966
 31
0.0
 11
51.437590
 21
35.023227
 31
0.0
 11
51.438452
 21
35.072605
 31
0.0
 11
51.441036
 21
35.124281
 31
0.0
 11
51.445343
 21
35.178254
 31
0.0
 11
51.451372
 21
35.233663
 31
0.0
 11
51.459124
 21
35.289646
 31
0.0
 11
51.468599
 21
35.346203
 31
0.0
  0
LWPOLYLINE
  5
210
100
AcDbEntity
  8
0
 62
7
100
AcDbPolyline
 90
3
 70
0
 10
56.884350
 20
35.679518
 30
0.0
 10
56.853344
 20
35.532237
 30
0.0
 10
54.688102
 20
35.532237
 30
0.0
  0
SPLINE
  5
211
100
AcDbEntity
  8
0
 62
7
100
AcDbSpline
 70
0
 71
3
 72
25
 73
21
 74
19
 40
0.000000
 40
0.000000
 40
0.000000
 40
0.000000
 40
0.012062
 40
0.027590
 40
0.046594
 40
0.064168
 40
0.078836
 40
0.090609
 40
0.263587
 40
0.414726
 40
0.558060
 40
0.711438
 40
0.887368
 40
1.094940
 40
1.293274
 40
1.500338
 40
1.717760
 40
1.948506
 40
2.191955
 40
2.449061
 40
2.449061
 40
2.449061
 40
2.449061
 10
54.688102
 20
35.532237
 30
0.0
 10
54.688031
 20
35.528217
 30
0.0
 10
54.687867
 20
35.519021
 30
0.0
 10
54.686888
 20
35.503516
 30
0.0
 10
54.685535
 20
35.486201
 30
0.0
 10
54.683990
 20
35.469189
 30
0.0
 10
54.683050
 20
35.454543
 30
0.0
 10
54.681643
 20
35.388084
 30
0.0
 10
54.692791
 20
35.275426
 30
0.0
 10
54.748590
 20
35.127432
 30
0.0
 10
54.847847
 20
35.011551
 30
0.0
 10
54.987665
 20
34.933568
 30
0.0
 10
55.162373
 20
34.888865
 30
0.0
 10
55.356776
 20
34.877327
 30
0.0
 10
55.561054
 20
34.888113
 30
0.0
 10
55.766819
 20
34.917802
 30
0.0
 10
55.979729
 20
34.967537
 30
0.0
 10
56.200013
 20
35.036035
 30
0.0
 10
56.427987
 20
35.122983
 30
0.0
 10
56.579188
 20
35.193640
 30
0.0
 10
56.656851
 20
35.229932
 30
0.0
 11
54.688102
 21
35.532237
 31
0.0
 11
54.687808
 21
35.520179
 31
0.0
 11
54.686926
 21
35.504676
 31
0.0
 11
54.685457
 21
35.485729
 31
0.0
 11
54.683987
 21
35.468217
 31
0.0
 11
54.683105
 21
35.453575
 31
0.0
 11
54.682811
 21
35.441805
 31
0.0
 11
54.701471
 21
35.269837
 31
0.0
 11
54.757454
 21
35.129449
 31
0.0
 11
54.850758
 21
35.020642
 31
0.0
 11
54.983108
 21
34.943127
 31
0.0
 11
55.152779
 21
34.896619
 31
0.0
 11
55.359771
 21
34.881116
 31
0.0
 11
55.557865
 21
34.890877
 31
0.0
 11
55.762848
 21
34.920160
 31
0.0
 11
55.974721
 21
34.968966
 31
0.0
 11
56.195207
 21
35.037006
 31
0.0
 11
56.422584
 21
35.123995
 31
0.0
 11
56.656851
 21
35.229932
 31
0.0
  0
LWPOLYLINE
  5
212
100
AcDbEntity
  8
0
 62
7
100
AcDbPolyline
 90
2
 70
0
 10
56.656851
 20
35.229932
 30
0.0
 10
56.514741
 20
34.511628
 30
0.0
  0
SPLINE
  5
213
100
AcDbEntity
  8
0
 62
7
100
AcDbSpline
 70
0
 71
3
 72
43
 73
39
 74
37
 40
0.000000
 40
0.000000
 40
0.000000
 40
0.000000
 40
0.237679
 40
0.470641
 40
0.699690
 40
0.925973
 40
1.153429
 40
1.382918
 40
1.801505
 40
2.165556
 40
2.495469
 40
2.808171
 40
3.127107
 40
3.481434
 40
3.700006
 40
3.917090
 40
4.135848
 40
4.357766
 40
4.579917
 40
4.805425
 40
5.073393
 40
5.336948
 40
5.602260
 40
5.874183
 40
6.154070
 40
6.447156
 40
6.812842
 40
7.139947
 40
7.449379
 40
7.751166
 40
8.054735
 40
8.385982
 40
8.456341
 40
8.529732
 40
8.606297
 40
8.685389
 40
8.770206
 40
8.860858
 40
8.860858
 40
8.860858
 40
8.860858
 10
56.514741
 20
34.511628
 30
0.0
 10
56.439908
 20
34.485553
 30
0.0
 10
56.291728
 20
34.433920
 30
0.0
 10
56.066365
 20
34.373018
 30
0.0
 10
55.841602
 20
34.326556
 30
0.0
 10
55.616647
 20
34.291177
 30
0.0
 10
55.389635
 20
34.270843
 30
0.0
 10
55.097896
 20
34.261432
 30
0.0
 10
54.759538
 20
34.284201
 30
0.0
 10
54.399374
 20
34.386139
 30
0.0
 10
54.107939
 20
34.561928
 30
0.0
 10
53.894357
 20
34.808611
 30
0.0
 10
53.769567
 20
35.118460
 30
0.0
 10
53.740436
 20
35.417398
 30
0.0
 10
53.755959
 20
35.680653
 30
0.0
 10
53.795059
 20
35.895838
 30
0.0
 10
53.859816
 20
36.105874
 30
0.0
 10
53.950923
 20
36.307756
 30
0.0
 10
54.066237
 20
36.499486
 30
0.0
 10
54.213088
 20
36.688041
 30
0.0
 10
54.390556
 20
36.868651
 30
0.0
 10
54.605090
 20
37.027134
 30
0.0
 10
54.842328
 20
37.151706
 30
0.0
 10
55.100861
 20
37.240556
 30
0.0
 10
55.378352
 20
37.293653
 30
0.0
 10
55.691331
 20
37.312248
 30
0.0
 10
56.020978
 20
37.285882
 30
0.0
 10
56.342589
 20
37.181979
 30
0.0
 10
56.605050
 20
37.004541
 30
0.0
 10
56.803901
 20
36.767327
 30
0.0
 10
56.921956
 20
36.473185
 30
0.0
 10
56.946313
 20
36.236668
 30
0.0
 10
56.942430
 20
36.078408
 30
0.0
 10
56.937279
 20
36.005108
 30
0.0
 10
56.928161
 20
35.929296
 30
0.0
 10
56.917872
 20
35.849792
 30
0.0
 10
56.903068
 20
35.766204
 30
0.0
 10
56.890643
 20
35.709047
 30
0.0
 10
56.884223
 20
35.679518
 30
0.0
 11
56.514741
 21
34.511628
 31
0.0
 11
56.289374
 21
34.436123
 31
0.0
 11
56.064581
 21
34.374973
 31
0.0
 11
55.840363
 21
34.328177
 31
0.0
 11
55.616718
 21
34.293727
 31
0.0
 11
55.390203
 21
34.273056
 31
0.0
 11
55.160818
 21
34.266166
 31
0.0
 11
54.743674
 21
34.300904
 31
0.0
 11
54.394858
 21
34.405118
 31
0.0
 11
54.114369
 21
34.578809
 31
0.0
 11
53.910534
 21
34.815946
 31
0.0
 11
53.788233
 21
35.110501
 31
0.0
 11
53.747466
 21
35.462475
 31
0.0
 11
53.760386
 21
35.680664
 31
0.0
 11
53.799144
 21
35.894260
 31
0.0
 11
53.863740
 21
36.103264
 31
0.0
 11
53.954747
 21
36.305663
 31
0.0
 11
54.069295
 21
36.496004
 31
0.0
 11
54.207386
 21
36.674287
 31
0.0
 11
54.396293
 21
36.864342
 31
0.0
 11
54.608166
 21
37.021094
 31
0.0
 11
54.843008
 21
37.144542
 31
0.0
 11
55.099955
 21
37.233540
 31
0.0
 11
55.374701
 21
37.286940
 31
0.0
 11
55.667246
 21
37.304739
 31
0.0
 11
56.031278
 21
37.270001
 31
0.0
 11
56.341337
 21
37.165787
 31
0.0
 11
56.597423
 21
36.992097
 31
0.0
 11
56.789774
 21
36.759553
 31
0.0
 11
56.905184
 21
36.478778
 31
0.0
 11
56.943654
 21
36.149772
 31
0.0
 11
56.941931
 21
36.079434
 31
0.0
 11
56.936763
 21
36.006226
 31
0.0
 11
56.928150
 21
35.930147
 31
0.0
 11
56.917530
 21
35.851771
 31
0.0
 11
56.902888
 21
35.768228
 31
0.0
 11
56.884223
 21
35.679518
 31
0.0
  0
LWPOLYLINE
  5
214
100
AcDbEntity
  8
0
 62
7
100
AcDbPolyline
 90
2
 70
0
 10
56.884223
 20
35.679518
 30
0.0
 10
56.884350
 20
35.679518
 30
0.0
  0
SPLINE
  5
215
100
AcDbEntity
  8
0
 62
7
100
AcDbSpline
 70
0
 71
3
 72
25
 73
21
 74
19
 40
0.000000
 40
0.000000
 40
0.000000
 40
0.000000
 40
0.022859
 40
0.045516
 40
0.068026
 40
0.092027
 40
0.115346
 40
0.138034
 40
0.267102
 40
0.384035
 40
0.497726
 40
0.612170
 40
0.731228
 40
0.863406
 40
1.036178
 40
1.198236
 40
1.358010
 40
1.520622
 40
1.695240
 40
1.888363
 40
1.888363
 40
1.888363
 40
1.888363
 10
56.011019
 20
36.103264
 30
0.0
 10
56.012619
 20
36.110714
 30
0.0
 10
56.015806
 20
36.125548
 30
0.0
 10
56.019346
 20
36.147968
 30
0.0
 10
56.021173
 20
36.170963
 30
0.0
 10
56.024496
 20
36.194012
 30
0.0
 10
56.026115
 20
36.217311
 30
0.0
 10
56.027505
 20
36.275645
 30
0.0
 10
56.018792
 20
36.365688
 30
0.0
 10
55.977088
 20
36.479757
 30
0.0
 10
55.906175
 20
36.572497
 30
0.0
 10
55.811359
 20
36.641639
 30
0.0
 10
55.694789
 20
36.682495
 30
0.0
 10
55.553011
 20
36.694297
 30
0.0
 10
55.397012
 20
36.679760
 30
0.0
 10
55.238468
 20
36.629476
 30
0.0
 10
55.099405
 20
36.544255
 30
0.0
 10
54.981101
 20
36.426539
 30
0.0
 10
54.882983
 20
36.277736
 30
0.0
 10
54.838221
 20
36.163340
 30
0.0
 10
54.814713
 20
36.103264
 30
0.0
 11
56.011019
 21
36.103264
 31
0.0
 11
56.015614
 21
36.125656
 31
0.0
 11
56.019062
 21
36.148049
 31
0.0
 11
56.021364
 21
36.170441
 31
0.0
 11
56.024231
 21
36.194270
 31
0.0
 11
56.025950
 21
36.217525
 31
0.0
 11
56.026524
 21
36.240207
 31
0.0
 11
56.012743
 21
36.368536
 31
0.0
 11
55.971402
 21
36.477918
 31
0.0
 11
55.902500
 21
36.568351
 31
0.0
 11
55.810057
 21
36.635817
 31
0.0
 11
55.698091
 21
36.676296
 31
0.0
 11
55.566604
 21
36.689789
 31
0.0
 11
55.394636
 21
36.673138
 31
0.0
 11
55.240469
 21
36.623185
 31
0.0
 11
55.104101
 21
36.539929
 31
0.0
 11
54.988117
 21
36.425954
 31
0.0
 11
54.891654
 21
36.280399
 31
0.0
 11
54.814713
 21
36.103264
 31
0.0
  0
LWPOLYLINE
  5
216
100
AcDbEntity
  8
0
 62
7
100
AcDbPolyline
 90
2
 70
0
 10
54.814713
 20
36.103264
 30
0.0
 10
56.011019
 20
36.103264
 30
0.0
  0
SPLINE
  5
217
100
AcDbEntity
  8
0
 62
7
100
AcDbSpline
 70
0
 71
3
 72
19
 73
15
 74
13
 40
0.000000
 40
0.000000
 40
0.000000
 40
0.000000
 40
0.073953
 40
0.149765
 40
0.228084
 40
0.309161
 40
0.393241
 40
0.480860
 40
0.705071
 40
0.915560
 40
1.127321
 40
1.349619
 40
1.592309
 40
1.865458
 40
1.865458
 40
1.865458
 40
1.865458
 10
59.863498
 20
36.446912
 30
0.0
 10
59.841698
 20
36.458463
 30
0.0
 10
59.797551
 20
36.481854
 30
0.0
 10
59.726369
 20
36.509048
 30
0.0
 10
59.651013
 20
36.530948
 30
0.0
 10
59.571284
 20
36.546681
 30
0.0
 10
59.487444
 20
36.556013
 30
0.0
 10
59.355527
 20
36.560785
 30
0.0
 10
59.180509
 20
36.543267
 30
0.0
 10
58.976744
 20
36.465378
 30
0.0
 10
58.802424
 20
36.335067
 30
0.0
 10
58.662685
 20
36.155284
 30
0.0
 10
58.556169
 20
35.931139
 30
0.0
 10
58.517259
 20
35.763249
 30
0.0
 10
58.496655
 20
35.674348
 30
0.0
 11
59.863498
 21
36.446912
 31
0.0
 11
59.797467
 21
36.480214
 31
0.0
 11
59.726842
 21
36.507775
 31
0.0
 11
59.651625
 21
36.529595
 31
0.0
 11
59.572100
 21
36.545384
 31
0.0
 11
59.488556
 21
36.554858
 31
0.0
 11
59.400993
 21
36.558016
 31
0.0
 11
59.178210
 21
36.532752
 31
0.0
 11
58.981840
 21
36.456960
 31
0.0
 11
58.811882
 21
36.330639
 31
0.0
 11
58.673504
 21
36.156662
 31
0.0
 11
58.568428
 21
35.937898
 31
0.0
 11
58.496655
 21
35.674348
 31
0.0
  0
LWPOLYLINE
  5
218
100
AcDbEntity
  8
0
 62
7
100
AcDbPolyline
 90
6
 70
0
 10
58.496655
 20
35.674348
 30
0.0
 10
58.233106
 20
34.341096
 30
0.0
 10
57.305514
 20
34.341096
 30
0.0
 10
57.868786
 20
37.234977
 30
0.0
 10
58.798963
 20
37.234977
 30
0.0
 10
58.698193
 20
36.738883
 30
0.0
  0
LWPOLYLINE
  5
219
100
AcDbEntity
  8
0
 62
7
100
AcDbPolyline
 90
2
 70
0
 10
60.026277
 20
37.284075
 30
0.0
 10
59.863498
 20
36.446912
 30
0.0
  0
SPLINE
  5
21a
100
AcDbEntity
  8
0
 62
7
100
AcDbSpline
 70
0
 71
3
 72
19
 73
15
 74
13
 40
0.000000
 40
0.000000
 40
0.000000
 40
0.000000
 40
0.214055
 40
0.420713
 40
0.625777
 40
0.833486
 40
1.043429
 40
1.261372
 40
1.295541
 40
1.332615
 40
1.372623
 40
1.416732
 40
1.466096
 40
1.520722
 40
1.520722
 40
1.520722
 40
1.520722
 10
58.698193
 20
36.738883
 30
0.0
 10
58.740441
 20
36.796567
 30
0.0
 10
58.823476
 20
36.909943
 30
0.0
 10
58.979200
 20
37.050898
 30
0.0
 10
59.153600
 20
37.162882
 30
0.0
 10
59.345281
 20
37.245251
 30
0.0
 10
59.552326
 20
37.294415
 30
0.0
 10
59.706647
 20
37.305837
 30
0.0
 10
59.803033
 20
37.304328
 30
0.0
 10
59.840081
 20
37.302546
 30
0.0
 10
59.880374
 20
37.299606
 30
0.0
 10
59.924678
 20
37.295486
 30
0.0
 10
59.973774
 20
37.290316
 30
0.0
 10
60.008196
 20
37.286225
 30
0.0
 10
60.026277
 20
37.284075
 30
0.0
 11
58.698193
 21
36.738883
 31
0.0
 11
58.830543
 21
36.907119
 31
0.0
 11
58.982989
 21
37.046645
 31
0.0
 11
59.155531
 21
37.157462
 31
0.0
 11
59.346446
 21
37.239282
 31
0.0
 11
59.550568
 21
37.288375
 31
0.0
 11
59.767896
 21
37.304739
 31
0.0
 11
59.802060
 21
37.304166
 31
0.0
 11
59.839095
 21
37.302446
 31
0.0
 11
59.879000
 21
37.299580
 31
0.0
 11
59.922925
 21
37.295564
 31
0.0
 11
59.972018
 21
37.290396
 31
0.0
 11
60.026277
 21
37.284075
 31
0.0
  0
LWPOLYLINE
  5
21b
100
AcDbEntity
  8
0
 62
7
100
AcDbPolyline
 90
3
 70
0
 10
44.569856
 20
43.722144
 30
0.0
 10
45.564629
 20
43.722144
 30
0.0
 10
44.887666
 20
40.239154
 30
0.0
  0
SPLINE
  5
21c
100
AcDbEntity
  8
0
 62
7
100
AcDbSpline
 70
0
 71
3
 72
13
 73
9
 74
7
 40
0.000000
 40
0.000000
 40
0.000000
 40
0.000000
 40
0.475470
 40
0.889341
 40
1.265998
 40
1.650902
 40
2.088803
 40
2.600942
 40
2.600942
 40
2.600942
 40
2.600942
 10
44.887666
 20
40.239154
 30
0.0
 10
44.850327
 20
40.084654
 30
0.0
 10
44.780488
 20
39.795671
 30
0.0
 10
44.581234
 20
39.417846
 30
0.0
 10
44.308663
 20
39.128531
 30
0.0
 10
43.953123
 20
38.933979
 30
0.0
 10
43.518038
 20
38.822304
 30
0.0
 10
43.200873
 20
38.811147
 30
0.0
 10
43.029899
 20
38.805133
 30
0.0
 11
44.887666
 21
40.239154
 31
0.0
 11
44.755605
 21
39.782392
 31
0.0
 11
44.559234
 21
39.418073
 31
0.0
 11
44.298555
 21
39.146197
 31
0.0
 11
43.963520
 21
38.956717
 31
0.0
 11
43.540634
 21
38.843029
 31
0.0
 11
43.029899
 21
38.805133
 31
0.0
  0
LWPOLYLINE
  5
21d
100
AcDbEntity
  8
0
 62
7
100
AcDbPolyline
 90
4
 70
0
 10
43.029899
 20
38.805133
 30
0.0
 10
42.828361
 20
38.805133
 30
0.0
 10
42.975638
 20
39.557026
 30
0.0
 10
43.130668
 20
39.557026
 30
0.0
  0
LWPOLYLINE
  5
21e
100
AcDbEntity
  8
0
 62
7
100
AcDbPolyline
 90
2
 70
0
 10
43.892896
 20
40.239154
 30
0.0
 10
44.569856
 20
43.722144
 30
0.0
  0
SPLINE
  5
21f
100
AcDbEntity
  8
0
 62
7
100
AcDbSpline
 70
0
 71
3
 72
13
 73
9
 74
7
 40
0.000000
 40
0.000000
 40
0.000000
 40
0.000000
 40
0.193625
 40
0.371492
 40
0.544845
 40
0.720721
 40
0.910232
 40
1.122552
 40
1.122552
 40
1.122552
 40
1.122552
 10
43.130668
 20
39.557026
 30
0.0
 10
43.195391
 20
39.560351
 30
0.0
 10
43.319570
 20
39.566731
 30
0.0
 10
43.493434
 20
39.627628
 30
0.0
 10
43.640456
 20
39.727397
 30
0.0
 10
43.757933
 20
39.865722
 30
0.0
 10
43.845629
 20
40.039403
 30
0.0
 10
43.876555
 20
40.170097
 30
0.0
 10
43.892896
 20
40.239154
 30
0.0
 11
43.130668
 21
39.557026
 31
0.0
 11
43.323307
 21
39.576548
 31
0.0
 11
43.491256
 21
39.635115
 31
0.0
 11
43.634514
 21
39.732725
 31
0.0
 11
43.749351
 21
39.865936
 31
0.0
 11
43.835478
 21
40.034745
 31
0.0
 11
43.892896
 21
40.239154
 31
0.0
  0
LWPOLYLINE
  5
220
100
AcDbEntity
  8
0
 62
7
100
AcDbPolyline
 90
4
 70
0
 10
46.040051
 20
40.991047
 30
0.0
 10
46.378532
 20
42.758381
 30
0.0
 10
47.306124
 20
42.758381
 30
0.0
 10
47.014151
 20
41.252013
 30
0.0
  0
SPLINE
  5
221
100
AcDbEntity
  8
0
 62
7
100
AcDbSpline
 70
0
 71
3
 72
25
 73
21
 74
19
 40
0.000000
 40
0.000000
 40
0.000000
 40
0.000000
 40
0.095209
 40
0.180179
 40
0.254941
 40
0.319539
 40
0.374044
 40
0.418577
 40
0.519560
 40
0.609187
 40
0.693997
 40
0.779270
 40
0.870520
 40
0.974361
 40
1.158328
 40
1.338737
 40
1.530470
 40
1.738446
 40
1.965047
 40
2.218127
 40
2.218127
 40
2.218127
 40
2.218127
 10
47.014151
 20
41.252013
 30
0.0
 10
47.007726
 20
41.220933
 30
0.0
 10
46.995567
 20
41.162116
 30
0.0
 10
46.980026
 20
41.078563
 30
0.0
 10
46.967827
 20
41.004780
 30
0.0
 10
46.959065
 20
40.940748
 30
0.0
 10
46.953633
 20
40.886448
 30
0.0
 10
46.950720
 20
40.819821
 30
0.0
 10
46.957577
 20
40.741092
 30
0.0
 10
46.987633
 20
40.653147
 30
0.0
 10
47.039508
 20
40.582091
 30
0.0
 10
47.111218
 20
40.530177
 30
0.0
 10
47.201053
 20
40.500221
 30
0.0
 10
47.327682
 20
40.490228
 30
0.0
 10
47.484586
 20
40.510534
 30
0.0
 10
47.655847
 20
40.588264
 30
0.0
 10
47.803989
 20
40.715983
 30
0.0
 10
47.927303
 20
40.886243
 30
0.0
 10
48.023151
 20
41.096364
 30
0.0
 10
48.059504
 20
41.252381
 30
0.0
 10
48.078684
 20
41.334695
 30
0.0
 11
47.014151
 21
41.252013
 31
0.0
 11
46.995204
 21
41.158708
 31
0.0
 11
46.979701
 21
41.075164
 31
0.0
 11
46.967643
 21
41.001381
 31
0.0
 11
46.959029
 21
40.937361
 31
0.0
 11
46.953861
 21
40.883101
 31
0.0
 11
46.952138
 21
40.838602
 31
0.0
 11
46.962186
 21
40.738119
 31
0.0
 11
46.992331
 21
40.653714
 31
0.0
 11
47.042573
 21
40.585387
 31
0.0
 11
47.111474
 21
40.535146
 31
0.0
 11
47.197601
 21
40.505001
 31
0.0
 11
47.300954
 21
40.494953
 31
0.0
 11
47.483257
 21
40.519643
 31
0.0
 11
47.647759
 21
40.593712
 31
0.0
 11
47.794463
 21
40.717160
 31
0.0
 11
47.917912
 21
40.884536
 31
0.0
 11
48.012653
 21
41.090381
 31
0.0
 11
48.078684
 21
41.334695
 31
0.0
  0
LWPOLYLINE
  5
222
100
AcDbEntity
  8
0
 62
7
100
AcDbPolyline
 90
6
 70
0
 10
48.078684
 20
41.334695
 30
0.0
 10
48.357737
 20
42.758381
 30
0.0
 10
49.285329
 20
42.758381
 30
0.0
 10
48.724640
 20
39.864501
 30
0.0
 10
47.791881
 20
39.864501
 30
0.0
 10
47.877145
 20
40.288247
 30
0.0
  0
SPLINE
  5
223
100
AcDbEntity
  8
0
 62
7
100
AcDbSpline
 70
0
 71
3
 72
25
 73
21
 74
19
 40
0.000000
 40
0.000000
 40
0.000000
 40
0.000000
 40
0.222159
 40
0.430070
 40
0.626886
 40
0.816950
 40
1.005002
 40
1.195269
 40
1.440116
 40
1.655831
 40
1.857277
 40
2.056637
 40
2.266719
 40
2.503652
 40
2.565100
 40
2.628927
 40
2.695207
 40
2.763722
 40
2.834247
 40
2.906840
 40
2.906840
 40
2.906840
 40
2.906840
 10
47.877145
 20
40.288247
 30
0.0
 10
47.824663
 20
40.235897
 30
0.0
 10
47.723064
 20
40.134555
 30
0.0
 10
47.555250
 20
40.008843
 30
0.0
 10
47.382567
 20
39.910304
 30
0.0
 10
47.203373
 20
39.840357
 30
0.0
 10
47.017817
 20
39.798442
 30
0.0
 10
46.809988
 20
39.784109
 30
0.0
 10
46.592337
 20
39.802026
 30
0.0
 10
46.380000
 20
39.871083
 30
0.0
 10
46.208945
 20
39.990750
 30
0.0
 10
46.084003
 20
40.155809
 30
0.0
 10
46.011564
 20
40.361807
 30
0.0
 10
45.997066
 20
40.532105
 30
0.0
 10
45.999531
 20
40.652792
 30
0.0
 10
46.003007
 20
40.716568
 30
0.0
 10
46.008781
 20
40.782533
 30
0.0
 10
46.016865
 20
40.850503
 30
0.0
 10
46.027134
 20
40.920309
 30
0.0
 10
46.035707
 20
40.967241
 30
0.0
 10
46.040056
 20
40.991047
 30
0.0
 11
47.877145
 21
40.288247
 31
0.0
 11
47.716088
 21
40.135227
 31
0.0
 11
47.549863
 21
40.010342
 31
0.0
 11
47.378469
 21
39.913592
 31
0.0
 11
47.201334
 21
39.844690
 31
0.0
 11
47.017882
 21
39.803349
 31
0.0
 11
46.828115
 21
39.789568
 31
0.0
 11
46.584374
 21
39.812823
 31
0.0
 11
46.380253
 21
39.882586
 31
0.0
 11
46.215750
 21
39.998859
 31
0.0
 11
46.095170
 21
40.157620
 31
0.0
 11
46.022823
 21
40.354852
 31
0.0
 11
45.998707
 21
40.590555
 31
0.0
 11
45.999856
 21
40.651991
 31
0.0
 11
46.003305
 21
40.715725
 31
0.0
 11
46.009052
 21
40.781756
 31
0.0
 11
46.017095
 21
40.849797
 31
0.0
 11
46.027429
 21
40.919560
 31
0.0
 11
46.040056
 21
40.991047
 31
0.0
  0
LWPOLYLINE
  5
224
100
AcDbEntity
  8
0
 62
7
100
AcDbPolyline
 90
1
 70
1
 10
46.040056
 20
40.991047
 30
0.0
  0
LWPOLYLINE
  5
225
100
AcDbEntity
  8
0
 62
7
100
AcDbPolyline
 90
1
 70
1
 10
51.078503
 20
40.461364
 30
0.0
  0
SPLINE
  5
226
100
AcDbEntity
  8
0
 62
7
100
AcDbSpline
 70
0
 71
3
 72
31
 73
27
 74
25
 40
0.000000
 40
0.000000
 40
0.000000
 40
0.000000
 40
0.225747
 40
0.447523
 40
0.692115
 40
0.963689
 40
1.259287
 40
1.590959
 40
1.740049
 40
1.871871
 40
1.995231
 40
2.115169
 40
2.239768
 40
2.379235
 40
2.602669
 40
2.824022
 40
3.069090
 40
3.336509
 40
3.623179
 40
3.941419
 40
4.103899
 40
4.244224
 40
4.370548
 40
4.492053
 40
4.619373
 40
4.763151
 40
4.763151
 40
4.763151
 40
4.763151
 10
51.078503
 20
40.461364
 30
0.0
 10
51.154298
 20
40.467936
 30
0.0
 10
51.304555
 20
40.480965
 30
0.0
 10
51.508962
 20
40.602879
 30
0.0
 10
51.670841
 20
40.791259
 30
0.0
 10
51.795383
 20
41.034461
 30
0.0
 10
51.867388
 20
41.327257
 30
0.0
 10
51.888319
 20
41.586292
 30
0.0
 10
51.874931
 20
41.791022
 30
0.0
 10
51.832635
 20
41.920869
 30
0.0
 10
51.760628
 20
42.025160
 30
0.0
 10
51.663508
 20
42.103204
 30
0.0
 10
51.541562
 20
42.148241
 30
0.0
 10
51.378722
 20
42.163333
 30
0.0
 10
51.182258
 20
42.133648
 30
0.0
 10
50.978588
 20
42.016455
 30
0.0
 10
50.815361
 20
41.830128
 30
0.0
 10
50.689035
 20
41.593023
 30
0.0
 10
50.615182
 20
41.309546
 30
0.0
 10
50.594868
 20
41.053459
 30
0.0
 10
50.607174
 20
40.845917
 30
0.0
 10
50.647062
 20
40.707181
 30
0.0
 10
50.715238
 20
40.594562
 30
0.0
 10
50.815230
 20
40.515665
 30
0.0
 10
50.939704
 20
40.468420
 30
0.0
 10
51.030401
 20
40.463809
 30
0.0
 10
51.078503
 20
40.461364
 30
0.0
 11
51.078503
 21
40.461364
 31
0.0
 11
51.301286
 21
40.497824
 31
0.0
 11
51.494212
 21
40.607206
 31
0.0
 11
51.657279
 21
40.789508
 31
0.0
 11
51.782164
 21
41.030664
 31
0.0
 11
51.857095
 21
41.316607
 31
0.0
 11
51.882072
 21
41.647338
 31
0.0
 11
51.868004
 21
41.795763
 31
0.0
 11
51.825803
 21
41.920647
 31
0.0
 11
51.755466
 21
42.021990
 31
0.0
 11
51.661587
 21
42.096635
 31
0.0
 11
51.545315
 21
42.141422
 31
0.0
 11
51.406650
 21
42.156351
 31
0.0
 11
51.186163
 21
42.120177
 31
0.0
 11
50.993238
 21
42.011657
 31
0.0
 11
50.827874
 21
41.830789
 31
0.0
 11
50.701553
 21
41.595086
 31
0.0
 11
50.625760
 21
41.318617
 31
0.0
 11
50.600496
 21
41.001381
 31
0.0
 11
50.613990
 21
40.839462
 31
0.0
 11
50.654470
 21
40.705103
 31
0.0
 11
50.721937
 21
40.598304
 31
0.0
 11
50.816677
 21
40.522226
 31
0.0
 11
50.935533
 21
40.476580
 31
0.0
 11
51.078503
 21
40.461364
 31
0.0
  0
LWPOLYLINE
  5
227
100
AcDbEntity
  8
0
 62
7
100
AcDbPolyline
 90
6
 70
0
 10
52.052604
 20
42.334632
 30
0.0
 10
52.352329
 20
43.884927
 30
0.0
 10
53.285088
 20
43.884927
 30
0.0
 10
52.502189
 20
39.864501
 30
0.0
 10
51.569429
 20
39.864501
 30
0.0
 10
51.654697
 20
40.283080
 30
0.0
  0
LWPOLYLINE
  5
228
100
AcDbEntity
  8
0
 62
7
100
AcDbPolyline
 90
1
 70
1
 10
52.052604
 20
42.334632
 30
0.0
  0
LWPOLYLINE
  5
229
100
AcDbEntity
  8
0
 62
7
100
AcDbPolyline
 90
4
 70
1
 10
53.972383
 20
42.758381
 30
0.0
 10
54.902560
 20
42.758381
 30
0.0
 10
54.336704
 20
39.864501
 30
0.0
 10
53.409112
 20
39.864501
 30
0.0
  0
LWPOLYLINE
  5
22a
100
AcDbEntity
  8
0
 62
7
100
AcDbPolyline
 90
4
 70
1
 10
54.189424
 20
43.884927
 30
0.0
 10
55.119601
 20
43.884927
 30
0.0
 10
54.972323
 20
43.130451
 30
0.0
 10
54.039564
 20
43.130451
 30
0.0
  0
SPLINE
  5
22b
100
AcDbEntity
  8
0
 62
7
100
AcDbSpline
 70
0
 71
3
 72
37
 73
33
 74
31
 40
0.000000
 40
0.000000
 40
0.000000
 40
0.000000
 40
0.210649
 40
0.404406
 40
0.584592
 40
0.757599
 40
0.931834
 40
1.111752
 40
1.416586
 40
1.694072
 40
1.967356
 40
2.247729
 40
2.544874
 40
2.877965
 40
3.098434
 40
3.317077
 40
3.536137
 40
3.753909
 40
3.967681
 40
4.179834
 40
4.437703
 40
4.679023
 40
4.908753
 40
5.131885
 40
5.351030
 40
5.572877
 40
5.761404
 40
5.934162
 40
6.096680
 40
6.259110
 40
6.430296
 40
6.615823
 40
6.615823
 40
6.615823
 40
6.615823
 10
51.654697
 20
40.283080
 30
0.0
 10
51.608122
 20
40.230426
 30
0.0
 10
51.518706
 20
40.129341
 30
0.0
 10
51.369099
 20
40.003425
 30
0.0
 10
51.214882
 20
39.904817
 30
0.0
 10
51.051371
 20
39.837854
 30
0.0
 10
50.879484
 20
39.797731
 30
0.0
 10
50.659699
 20
39.783023
 30
0.0
 10
50.404382
 20
39.808896
 30
0.0
 10
50.134748
 20
39.914049
 30
0.0
 10
49.917056
 20
40.092336
 30
0.0
 10
49.755967
 20
40.330426
 30
0.0
 10
49.661562
 20
40.622566
 30
0.0
 10
49.638789
 20
40.907104
 30
0.0
 10
49.651670
 20
41.164478
 30
0.0
 10
49.684600
 20
41.381765
 30
0.0
 10
49.738647
 20
41.593893
 30
0.0
 10
49.815471
 20
41.797139
 30
0.0
 10
49.911261
 20
41.989577
 30
0.0
 10
50.034818
 20
42.181601
 30
0.0
 10
50.185004
 20
42.365926
 30
0.0
 10
50.362589
 20
42.532914
 30
0.0
 10
50.554033
 20
42.664698
 30
0.0
 10
50.758405
 20
42.759080
 30
0.0
 10
50.973505
 20
42.816130
 30
0.0
 10
51.183674
 20
42.833124
 30
0.0
 10
51.378254
 20
42.820277
 30
0.0
 10
51.549336
 20
42.780630
 30
0.0
 10
51.701206
 20
42.711174
 30
0.0
 10
51.836651
 20
42.614718
 30
0.0
 10
51.956772
 20
42.488296
 30
0.0
 10
52.019815
 20
42.387208
 30
0.0
 10
52.052604
 20
42.334632
 30
0.0
 11
51.654697
 21
40.283080
 31
0.0
 11
51.511151
 21
40.128912
 31
0.0
 11
51.363012
 21
40.004027
 31
0.0
 11
51.210279
 21
39.908424
 31
0.0
 11
51.050368
 21
39.842393
 31
0.0
 11
50.880697
 21
39.802775
 31
0.0
 11
50.701265
 21
39.789568
 31
0.0
 11
50.398385
 21
39.824019
 31
0.0
 11
50.140864
 21
39.927373
 31
0.0
 11
49.928703
 21
40.099628
 31
0.0
 11
49.770803
 21
40.331310
 31
0.0
 11
49.676063
 21
40.612947
 31
0.0
 11
49.644483
 21
40.944538
 31
0.0
 11
49.655392
 21
41.164736
 31
0.0
 11
49.688120
 21
41.380916
 31
0.0
 11
49.742667
 21
41.593077
 31
0.0
 11
49.819320
 21
41.796912
 31
0.0
 11
49.914922
 21
41.988115
 31
0.0
 11
50.029472
 21
42.166686
 31
0.0
 11
50.192827
 21
42.366214
 31
0.0
 11
50.369388
 21
42.530717
 31
0.0
 11
50.559155
 21
42.660194
 31
0.0
 11
50.761842
 21
42.753500
 31
0.0
 11
50.973716
 21
42.809483
 31
0.0
 11
51.194777
 21
42.828144
 31
0.0
 11
51.382821
 21
42.814650
 31
0.0
 11
51.550768
 21
42.774170
 31
0.0
 11
51.698620
 21
42.706703
 31
0.0
 11
51.830970
 21
42.612537
 31
0.0
 11
51.948964
 21
42.488513
 31
0.0
 11
52.052604
 21
42.334632
 31
0.0
  0
LWPOLYLINE
  5
22c
100
AcDbEntity
  8
0
 62
7
100
AcDbPolyline
 90
6
 70
0
 10
56.969618
 20
43.580034
 30
0.0
 10
56.812003
 20
42.758381
 30
0.0
 10
57.757682
 20
42.758381
 30
0.0
 10
57.625909
 20
42.096923
 30
0.0
 10
56.680230
 20
42.096923
 30
0.0
 10
56.442517
 20
40.872190
 30
0.0
  0
SPLINE
  5
22d
100
AcDbEntity
  8
0
 62
7
100
AcDbSpline
 70
0
 71
3
 72
19
 73
15
 74
13
 40
0.000000
 40
0.000000
 40
0.000000
 40
0.000000
 40
0.026879
 40
0.050701
 40
0.071476
 40
0.090194
 40
0.108303
 40
0.125818
 40
0.198106
 40
0.260547
 40
0.320641
 40
0.391854
 40
0.482222
 40
0.594622
 40
0.594622
 40
0.594622
 40
0.594622
 10
56.442517
 20
40.872190
 30
0.0
 10
56.440359
 20
40.863492
 30
0.0
 10
56.436288
 20
40.847085
 30
0.0
 10
56.431321
 20
40.823801
 30
0.0
 10
56.426519
 20
40.803187
 30
0.0
 10
56.425577
 20
40.783960
 30
0.0
 10
56.424553
 20
40.765882
 30
0.0
 10
56.423920
 20
40.729925
 30
0.0
 10
56.428637
 20
40.678799
 30
0.0
 10
56.454953
 20
40.617904
 30
0.0
 10
56.502727
 20
40.571833
 30
0.0
 10
56.572671
 20
40.544577
 30
0.0
 10
56.662821
 20
40.528298
 30
0.0
 10
56.730500
 20
40.526793
 30
0.0
 10
56.768016
 20
40.525959
 30
0.0
 11
56.442517
 21
40.872190
 31
0.0
 11
56.436197
 21
40.846065
 31
0.0
 11
56.431029
 21
40.822811
 31
0.0
 11
56.427013
 21
40.802428
 31
0.0
 11
56.425543
 21
40.783767
 31
0.0
 11
56.424661
 21
40.765680
 31
0.0
 11
56.424367
 21
40.748167
 31
0.0
 11
56.432980
 21
40.676394
 31
0.0
 11
56.458818
 21
40.619550
 31
0.0
 11
56.501882
 21
40.577635
 31
0.0
 11
56.567051
 21
40.548926
 31
0.0
 11
56.655762
 21
40.531701
 31
0.0
 11
56.768016
 21
40.525959
 31
0.0
  0
LWPOLYLINE
  5
22e
100
AcDbEntity
  8
0
 62
7
100
AcDbPolyline
 90
4
 70
0
 10
56.768016
 20
40.525959
 30
0.0
 10
57.246023
 20
40.525959
 30
0.0
 10
57.114247
 20
39.864501
 30
0.0
 10
56.336517
 20
39.864501
 30
0.0
  0
LWPOLYLINE
  5
22f
100
AcDbEntity
  8
0
 62
7
100
AcDbPolyline
 90
7
 70
0
 10
55.509697
 20
40.869605
 30
0.0
 10
55.747409
 20
42.096923
 30
0.0
 10
55.292657
 20
42.096923
 30
0.0
 10
55.419263
 20
42.758381
 30
0.0
 10
55.879182
 20
42.758381
 30
0.0
 10
56.039380
 20
43.580034
 30
0.0
 10
56.969618
 20
43.580034
 30
0.0
  0
SPLINE
  5
230
100
AcDbEntity
  8
0
 62
7
100
AcDbSpline
 70
0
 71
3
 72
19
 73
15
 74
13
 40
0.000000
 40
0.000000
 40
0.000000
 40
0.000000
 40
0.257687
 40
0.478336
 40
0.673087
 40
0.854580
 40
1.038580
 40
1.243300
 40
1.292688
 40
1.344429
 40
1.398574
 40
1.454309
 40
1.510826
 40
1.568170
 40
1.568170
 40
1.568170
 40
1.568170
 10
56.336517
 20
39.864501
 30
0.0
 10
56.250482
 20
39.867587
 30
0.0
 10
56.090777
 20
39.873316
 30
0.0
 10
55.871672
 20
39.931142
 30
0.0
 10
55.695675
 20
40.029390
 30
0.0
 10
55.566870
 20
40.169555
 30
0.0
 10
55.491782
 20
40.347842
 30
0.0
 10
55.477251
 20
40.494906
 30
0.0
 10
55.479325
 20
40.596796
 30
0.0
 10
55.481923
 20
40.648504
 30
0.0
 10
55.486229
 20
40.702211
 30
0.0
 10
55.492244
 20
40.757356
 30
0.0
 10
55.499931
 20
40.813375
 30
0.0
 10
55.506426
 20
40.850771
 30
0.0
 10
55.509697
 20
40.869605
 30
0.0
 11
56.336517
 21
39.864501
 31
0.0
 11
56.079571
 21
39.884023
 31
0.0
 11
55.866836
 21
39.942589
 31
0.0
 11
55.698313
 21
40.040200
 31
0.0
 11
55.576299
 21
40.174559
 31
0.0
 11
55.503091
 21
40.343368
 31
0.0
 11
55.478688
 21
40.546629
 31
0.0
 11
55.479549
 21
40.596009
 31
0.0
 11
55.482133
 21
40.647685
 31
0.0
 11
55.486440
 21
40.701659
 31
0.0
 11
55.492470
 21
40.757067
 31
0.0
 11
55.500222
 21
40.813049
 31
0.0
 11
55.509697
 21
40.869605
 31
0.0
  0
LWPOLYLINE
  5
231
100
AcDbEntity
  8
0
 62
7
100
AcDbPolyline
 90
4
 70
0
 10
61.010713
 20
41.626666
 30
0.0
 10
60.667067
 20
39.864501
 30
0.0
 10
59.739474
 20
39.864501
 30
0.0
 10
60.031445
 20
41.373451
 30
0.0
  0
SPLINE
  5
232
100
AcDbEntity
  8
0
 62
7
100
AcDbSpline
 70
0
 71
3
 72
25
 73
21
 74
19
 40
0.000000
 40
0.000000
 40
0.000000
 40
0.000000
 40
0.094928
 40
0.179051
 40
0.252396
 40
0.317203
 40
0.371798
 40
0.416343
 40
0.518782
 40
0.609510
 40
0.695407
 40
0.780682
 40
0.871932
 40
0.975771
 40
1.159778
 40
1.340543
 40
1.533204
 40
1.740499
 40
1.967099
 40
2.220481
 40
2.220481
 40
2.220481
 40
2.220481
 10
60.031445
 20
41.373451
 30
0.0
 10
60.037848
 20
41.404439
 30
0.0
 10
60.049925
 20
41.462888
 30
0.0
 10
60.065642
 20
41.545550
 30
0.0
 10
60.077419
 20
41.618701
 30
0.0
 10
60.088037
 20
41.682072
 30
0.0
 10
60.094308
 20
41.736400
 30
0.0
 10
60.097642
 20
41.803541
 30
0.0
 10
60.090415
 20
41.883119
 30
0.0
 10
60.059618
 20
41.972214
 30
0.0
 10
60.006129
 20
42.042941
 30
0.0
 10
59.934464
 20
42.095350
 30
0.0
 10
59.844528
 20
42.125220
 30
0.0
 10
59.717926
 20
42.135275
 30
0.0
 10
59.560850
 20
42.114721
 30
0.0
 10
59.389527
 20
42.035959
 30
0.0
 10
59.241987
 20
41.907213
 30
0.0
 10
59.119504
 20
41.736318
 30
0.0
 10
59.023758
 20
41.526393
 30
0.0
 10
58.986560
 20
41.370489
 30
0.0
 10
58.966923
 20
41.288187
 30
0.0
 11
60.031445
 21
41.373451
 31
0.0
 11
60.050393
 21
41.466469
 31
0.0
 11
60.065896
 21
41.549151
 31
0.0
 11
60.077953
 21
41.621498
 31
0.0
 11
60.088007
 21
41.685520
 31
0.0
 11
60.094040
 21
41.739781
 31
0.0
 11
60.096051
 21
41.784281
 31
0.0
 11
60.085716
 21
41.886198
 31
0.0
 11
60.054710
 21
41.971463
 31
0.0
 11
60.003034
 21
42.040077
 31
0.0
 11
59.934132
 21
42.090319
 31
0.0
 11
59.848004
 21
42.120463
 31
0.0
 11
59.744652
 21
42.130512
 31
0.0
 11
59.562349
 21
42.105535
 31
0.0
 11
59.397845
 21
42.030604
 31
0.0
 11
59.251141
 21
41.905719
 31
0.0
 11
59.128841
 21
41.738345
 31
0.0
 11
59.034101
 21
41.532501
 31
0.0
 11
58.966923
 21
41.288187
 31
0.0
  0
LWPOLYLINE
  5
233
100
AcDbEntity
  8
0
 62
7
100
AcDbPolyline
 90
6
 70
0
 10
58.966923
 20
41.288187
 30
0.0
 10
58.687869
 20
39.864501
 30
0.0
 10
57.760277
 20
39.864501
 30
0.0
 10
58.540592
 20
43.884927
 30
0.0
 10
59.470766
 20
43.884927
 30
0.0
 10
59.168459
 20
42.334632
 30
0.0
  0
LWPOLYLINE
  5
234
100
AcDbEntity
  8
0
 62
7
100
AcDbPolyline
 90
1
 70
1
 10
61.010731
 20
41.626666
 30
0.0
  0
SPLINE
  5
235
100
AcDbEntity
  8
0
 62
7
100
AcDbSpline
 70
0
 71
3
 72
25
 73
21
 74
19
 40
0.000000
 40
0.000000
 40
0.000000
 40
0.000000
 40
0.229144
 40
0.440703
 40
0.637319
 40
0.824724
 40
1.009226
 40
1.194891
 40
1.442596
 40
1.659940
 40
1.861856
 40
2.060987
 40
2.270261
 40
2.505765
 40
2.562915
 40
2.624216
 40
2.689780
 40
2.759468
 40
2.833528
 40
2.912026
 40
2.912026
 40
2.912026
 40
2.912026
 10
59.168459
 20
42.334632
 30
0.0
 10
59.224325
 20
42.386807
 30
0.0
 10
59.331772
 20
42.487153
 30
0.0
 10
59.504376
 20
42.611987
 30
0.0
 10
59.677888
 20
42.709498
 30
0.0
 10
59.855198
 20
42.778276
 30
0.0
 10
60.037216
 20
42.819414
 30
0.0
 10
60.243280
 20
42.833571
 30
0.0
 10
60.460871
 20
42.815710
 30
0.0
 10
60.675034
 20
42.746916
 30
0.0
 10
60.846848
 20
42.627158
 30
0.0
 10
60.971813
 20
42.462341
 30
0.0
 10
61.044199
 20
42.257282
 30
0.0
 10
61.059173
 20
42.089149
 30
0.0
 10
61.056174
 20
41.971214
 30
0.0
 10
61.051881
 20
41.909992
 30
0.0
 10
61.044078
 20
41.844935
 30
0.0
 10
61.036302
 20
41.775594
 30
0.0
 10
61.024942
 20
41.702363
 30
0.0
 10
61.015559
 20
41.652383
 30
0.0
 10
61.010731
 20
41.626666
 30
0.0
 11
59.168459
 21
42.334632
 31
0.0
 11
59.339278
 21
42.487366
 31
0.0
 11
59.510672
 21
42.611389
 31
0.0
 11
59.682639
 21
42.706703
 31
0.0
 11
59.857479
 21
42.774170
 31
0.0
 11
60.037486
 21
42.814650
 31
0.0
 11
60.222659
 21
42.828144
 31
0.0
 11
60.469270
 21
42.804889
 31
0.0
 11
60.675114
 21
42.735126
 31
0.0
 11
60.840191
 21
42.618853
 31
0.0
 11
60.960771
 21
42.460379
 31
0.0
 11
61.033118
 21
42.264009
 31
0.0
 11
61.057234
 21
42.029742
 31
0.0
 11
61.055800
 21
41.972611
 31
0.0
 11
61.051496
 21
41.911461
 31
0.0
 11
61.044323
 21
41.846291
 31
0.0
 11
61.035992
 21
41.777102
 31
0.0
 11
61.024795
 21
41.703893
 31
0.0
 11
61.010731
 21
41.626666
 31
0.0
  0
LWPOLYLINE
  5
236
100
AcDbEntity
  8
0
 62
7
100
AcDbPolyline
 90
6
 70
0
 10
44.910097
 20
25.606277
 30
0.0
 10
46.586997
 20
25.606277
 30
0.0
 10
46.444887
 20
24.875056
 30
0.0
 10
43.644026
 20
24.875056
 30
0.0
 10
43.788719
 20
25.611444
 30
0.0
 10
45.429445
 20
26.849096
 30
0.0
  0
SPLINE
  5
237
100
AcDbEntity
  8
0
 62
7
100
AcDbSpline
 70
0
 71
3
 72
25
 73
21
 74
19
 40
0.000000
 40
0.000000
 40
0.000000
 40
0.000000
 40
0.215185
 40
0.410084
 40
0.587053
 40
0.747617
 40
0.892521
 40
1.027519
 40
1.159132
 40
1.278676
 40
1.397965
 40
1.524996
 40
1.665662
 40
1.827238
 40
1.997545
 40
2.183045
 40
2.385744
 40
2.609048
 40
2.857060
 40
3.130661
 40
3.130661
 40
3.130661
 40
3.130661
 10
45.429445
 20
26.849096
 30
0.0
 10
45.485350
 20
26.894108
 30
0.0
 10
45.591889
 20
26.979889
 30
0.0
 10
45.729208
 20
27.120063
 30
0.0
 10
45.837673
 20
27.261040
 30
0.0
 10
45.918661
 20
27.400693
 30
0.0
 10
45.968333
 20
27.540002
 30
0.0
 10
45.984895
 20
27.677260
 30
0.0
 10
45.970883
 20
27.806696
 30
0.0
 10
45.921333
 20
27.922205
 30
0.0
 10
45.836889
 20
28.013215
 30
0.0
 10
45.723662
 20
28.078394
 30
0.0
 10
45.584343
 20
28.116128
 30
0.0
 10
45.426462
 20
28.126707
 30
0.0
 10
45.254036
 20
28.114666
 30
0.0
 10
45.070568
 20
28.081050
 30
0.0
 10
44.874382
 20
28.024908
 30
0.0
 10
44.662916
 20
27.948602
 30
0.0
 10
44.435235
 20
27.848997
 30
0.0
 10
44.280639
 20
27.769364
 30
0.0
 10
44.199548
 20
27.727595
 30
0.0
 11
45.429445
 21
26.849096
 31
0.0
 11
45.594236
 21
26.987474
 31
0.0
 11
45.730318
 21
27.127001
 31
0.0
 11
45.837689
 21
27.267675
 31
0.0
 11
45.916640
 21
27.407488
 31
0.0
 11
45.964010
 21
27.544431
 31
0.0
 11
45.979800
 21
27.678502
 31
0.0
 11
45.963723
 21
27.809129
 31
0.0
 11
45.915492
 21
27.918512
 31
0.0
 11
45.835107
 21
28.006649
 31
0.0
 11
45.725724
 21
28.071244
 31
0.0
 11
45.590504
 21
28.110001
 31
0.0
 11
45.429445
 21
28.122920
 31
0.0
 11
45.259488
 21
28.112010
 31
0.0
 11
45.076898
 21
28.079282
 31
0.0
 11
44.881676
 21
28.024735
 31
0.0
 11
44.671525
 21
27.949230
 31
0.0
 11
44.444149
 21
27.850183
 31
0.0
 11
44.199548
 21
27.727595
 31
0.0
  0
LWPOLYLINE
  5
238
100
AcDbEntity
  8
0
 62
7
100
AcDbPolyline
 90
2
 70
0
 10
44.199548
 20
27.727595
 30
0.0
 10
44.364913
 20
28.546666
 30
0.0
  0
SPLINE
  5
239
100
AcDbEntity
  8
0
 62
7
100
AcDbSpline
 70
0
 71
3
 72
25
 73
21
 74
19
 40
0.000000
 40
0.000000
 40
0.000000
 40
0.000000
 40
0.245760
 40
0.484389
 40
0.716664
 40
0.944302
 40
1.168408
 40
1.389871
 40
1.755870
 40
2.076609
 40
2.367226
 40
2.634178
 40
2.891099
 40
3.165847
 40
3.410953
 40
3.650189
 40
3.893205
 40
4.194034
 40
4.606079
 40
5.133359
 40
5.133359
 40
5.133359
 40
5.133359
 10
44.364913
 20
28.546666
 30
0.0
 10
44.442232
 20
28.573787
 30
0.0
 10
44.594626
 20
28.627244
 30
0.0
 10
44.825115
 20
28.690810
 30
0.0
 10
45.052920
 20
28.739430
 30
0.0
 10
45.278091
 20
28.776059
 30
0.0
 10
45.501643
 20
28.797481
 30
0.0
 10
45.772098
 20
28.806906
 30
0.0
 10
46.075505
 20
28.787399
 30
0.0
 10
46.393341
 20
28.704356
 30
0.0
 10
46.652634
 20
28.561767
 30
0.0
 10
46.849922
 20
28.368996
 30
0.0
 10
46.968722
 20
28.124587
 30
0.0
 10
46.999150
 20
27.863857
 30
0.0
 10
46.975371
 20
27.610612
 30
0.0
 10
46.905205
 20
27.376879
 30
0.0
 10
46.781071
 20
27.144925
 30
0.0
 10
46.569092
 20
26.904530
 30
0.0
 10
46.261713
 20
26.627674
 30
0.0
 10
46.013305
 20
26.436860
 30
0.0
 10
45.873863
 20
26.329748
 30
0.0
 11
44.364913
 21
28.546666
 31
0.0
 11
44.597743
 21
28.625330
 31
0.0
 11
44.827703
 21
28.689065
 31
0.0
 11
45.054793
 21
28.737870
 31
0.0
 11
45.279584
 21
28.773756
 31
0.0
 11
45.502653
 21
28.795288
 31
0.0
 11
45.724000
 21
28.802465
 31
0.0
 11
46.088894
 21
28.774043
 31
0.0
 11
46.398092
 21
28.688776
 31
0.0
 11
46.651593
 21
28.546666
 31
0.0
 11
46.839638
 21
28.357186
 31
0.0
 11
46.952465
 21
28.126365
 31
0.0
 11
46.990074
 21
27.854204
 31
0.0
 11
46.967107
 21
27.610176
 31
0.0
 11
46.898205
 21
27.381077
 31
0.0
 11
46.783368
 21
27.166906
 31
0.0
 11
46.590443
 21
26.936085
 31
0.0
 11
46.287275
 21
26.657033
 31
0.0
 11
45.873863
 21
26.329748
 31
0.0
  0
LWPOLYLINE
  5
23a
100
AcDbEntity
  8
0
 62
7
100
AcDbPolyline
 90
2
 70
0
 10
45.873863
 20
26.329748
 30
0.0
 10
44.910097
 20
25.606277
 30
0.0
  0
SPLINE
  5
23b
100
AcDbEntity
  8
0
 62
7
100
AcDbSpline
 70
0
 71
3
 72
55
 73
51
 74
49
 40
0.000000
 40
0.000000
 40
0.000000
 40
0.000000
 40
0.128150
 40
0.251802
 40
0.377364
 40
0.511212
 40
0.655909
 40
0.815415
 40
0.938091
 40
1.068851
 40
1.207969
 40
1.360818
 40
1.529439
 40
1.714004
 40
1.865710
 40
2.008723
 40
2.143117
 40
2.266669
 40
2.377185
 40
2.474830
 40
2.650905
 40
2.796294
 40
2.917548
 40
3.029065
 40
3.145209
 40
3.278145
 40
3.407694
 40
3.531891
 40
3.656950
 40
3.787971
 40
3.931649
 40
4.092398
 40
4.219852
 40
4.355838
 40
4.500647
 40
4.653162
 40
4.813194
 40
4.980922
 40
5.134607
 40
5.280172
 40
5.417697
 40
5.544105
 40
5.656338
 40
5.754558
 40
5.929793
 40
6.076225
 40
6.200434
 40
6.313004
 40
6.429941
 40
6.563161
 40
6.563161
 40
6.563161
 40
6.563161
 10
48.863345
 20
25.477086
 30
0.0
 10
48.906162
 20
25.479489
 30
0.0
 10
48.990293
 20
25.484211
 30
0.0
 10
49.110690
 20
25.525986
 30
0.0
 10
49.219578
 20
25.594221
 30
0.0
 10
49.317964
 20
25.687466
 30
0.0
 10
49.404403
 20
25.805994
 30
0.0
 10
49.470046
 20
25.932723
 30
0.0
 10
49.521723
 20
26.060361
 30
0.0
 10
49.565634
 20
26.183661
 30
0.0
 10
49.607233
 20
26.318342
 30
0.0
 10
49.645739
 20
26.467005
 30
0.0
 10
49.682739
 20
26.631607
 30
0.0
 10
49.714140
 20
26.796963
 30
0.0
 10
49.743114
 20
26.954079
 30
0.0
 10
49.765503
 20
27.095371
 30
0.0
 10
49.783340
 20
27.227842
 30
0.0
 10
49.796377
 20
27.349985
 30
0.0
 10
49.804385
 20
27.460299
 30
0.0
 10
49.808172
 20
27.588345
 30
0.0
 10
49.800787
 20
27.728280
 30
0.0
 10
49.768713
 20
27.873366
 30
0.0
 10
49.710518
 20
27.987294
 30
0.0
 10
49.624070
 20
28.068930
 30
0.0
 10
49.510561
 20
28.115070
 30
0.0
 10
49.383762
 20
28.127038
 30
0.0
 10
49.254656
 20
28.114994
 30
0.0
 10
49.133467
 20
28.075555
 30
0.0
 10
49.024433
 20
28.008920
 30
0.0
 10
48.926635
 20
27.917165
 30
0.0
 10
48.841658
 20
27.798354
 30
0.0
 10
48.779223
 20
27.668282
 30
0.0
 10
48.723051
 20
27.538531
 30
0.0
 10
48.676115
 20
27.410728
 30
0.0
 10
48.631283
 20
27.273371
 30
0.0
 10
48.592444
 20
27.125888
 30
0.0
 10
48.556086
 20
26.969959
 30
0.0
 10
48.525346
 20
26.812425
 30
0.0
 10
48.497755
 20
26.659225
 30
0.0
 10
48.475299
 20
26.515360
 30
0.0
 10
48.457540
 20
26.380006
 30
0.0
 10
48.444537
 20
26.255279
 30
0.0
 10
48.436522
 20
26.143244
 30
0.0
 10
48.432677
 20
26.014730
 30
0.0
 10
48.440240
 20
25.874442
 30
0.0
 10
48.473698
 20
25.728751
 30
0.0
 10
48.532195
 20
25.612826
 30
0.0
 10
48.620912
 20
25.531472
 30
0.0
 10
48.735017
 20
25.484004
 30
0.0
 10
48.818752
 20
25.479490
 30
0.0
 10
48.863345
 20
25.477086
 30
0.0
 11
48.863345
 21
25.477086
 31
0.0
 11
48.990813
 21
25.490293
 31
0.0
 11
49.107946
 21
25.529911
 31
0.0
 11
49.214744
 21
25.595942
 31
0.0
 11
49.312355
 21
25.687525
 31
0.0
 11
49.398483
 21
25.803797
 31
0.0
 11
49.473128
 21
25.944759
 31
0.0
 11
49.519923
 21
26.058159
 31
0.0
 11
49.563847
 21
26.181321
 31
0.0
 11
49.604901
 21
26.314244
 31
0.0
 11
49.643659
 21
26.462097
 31
0.0
 11
49.680694
 21
26.626600
 31
0.0
 11
49.716007
 21
26.807755
 31
0.0
 11
49.742993
 21
26.957043
 31
0.0
 11
49.765386
 21
27.098291
 31
0.0
 11
49.783185
 21
27.231501
 31
0.0
 11
49.796106
 21
27.354376
 31
0.0
 11
49.803858
 21
27.464619
 31
0.0
 11
49.806442
 21
27.562231
 31
0.0
 11
49.794958
 21
27.737930
 31
0.0
 11
49.760508
 21
27.879179
 31
0.0
 11
49.703090
 21
27.985977
 31
0.0
 11
49.621556
 21
28.062056
 31
0.0
 11
49.514758
 21
28.107704
 31
0.0
 11
49.382696
 21
28.122920
 31
0.0
 11
49.253792
 21
28.110001
 31
0.0
 11
49.135797
 21
28.071244
 31
0.0
 11
49.028712
 21
28.006649
 31
0.0
 11
48.932824
 21
27.917363
 31
0.0
 11
48.848420
 21
27.801091
 31
0.0
 11
48.775498
 21
27.657832
 31
0.0
 11
48.725257
 21
27.540699
 31
0.0
 11
48.677887
 21
27.413230
 31
0.0
 11
48.633388
 21
27.275428
 31
0.0
 11
48.593769
 21
27.128149
 31
0.0
 11
48.557595
 21
26.972259
 31
0.0
 11
48.524866
 21
26.807755
 31
0.0
 11
48.497881
 21
26.656458
 31
0.0
 11
48.475488
 21
26.512625
 31
0.0
 11
48.457689
 21
26.376257
 31
0.0
 11
48.444768
 21
26.250511
 31
0.0
 11
48.437016
 21
26.138546
 31
0.0
 11
48.434432
 21
26.040360
 31
0.0
 11
48.446203
 21
25.865521
 31
0.0
 11
48.481515
 21
25.723411
 31
0.0
 11
48.540368
 21
25.614029
 31
0.0
 11
48.623338
 21
25.537950
 31
0.0
 11
48.730997
 21
25.492302
 31
0.0
 11
48.863345
 21
25.477086
 31
0.0
  0
LWPOLYLINE
  5
23c
100
AcDbEntity
  8
0
 62
7
100
AcDbPolyline
 90
1
 70
1
 10
48.863345
 20
25.477086
 30
0.0
  0
LWPOLYLINE
  5
23d
100
AcDbEntity
  8
0
 62
7
100
AcDbPolyline
 90
1
 70
1
 10
50.775373
 20
27.414953
 30
0.0
  0
LWPOLYLINE
  5
23e
100
AcDbEntity
  8
0
 62
7
100
AcDbPolyline
 90
11
 70
1
 10
51.325727
 20
25.562354
 30
0.0
 10
52.204226
 20
25.562354
 30
0.0
 10
52.687400
 20
28.055742
 30
0.0
 10
51.749473
 20
27.869706
 30
0.0
 10
51.881249
 20
28.546666
 30
0.0
 10
52.814008
 20
28.732702
 30
0.0
 10
53.759687
 20
28.732702
 30
0.0
 10
53.147322
 20
25.562354
 30
0.0
 10
54.020654
 20
25.562354
 30
0.0
 10
53.888878
 20
24.875056
 30
0.0
 10
51.188784
 20
24.875056
 30
0.0
  0
LWPOLYLINE
  5
23f
100
AcDbEntity
  8
0
 62
7
100
AcDbPolyline
 90
7
 70
1
 10
55.402999
 20
28.732702
 30
0.0
 10
58.312381
 20
28.732702
 30
0.0
 10
58.196110
 20
28.166846
 30
0.0
 10
56.048952
 20
24.875056
 30
0.0
 10
55.054183
 20
24.875056
 30
0.0
 10
57.095401
 20
28.001481
 30
0.0
 10
55.266056
 20
28.001481
 30
0.0
  0
SPLINE
  5
240
100
AcDbEntity
  8
0
 62
7
100
AcDbSpline
 70
0
 71
3
 72
43
 73
39
 74
37
 40
0.000000
 40
0.000000
 40
0.000000
 40
0.000000
 40
0.339996
 40
0.676659
 40
1.013052
 40
1.341717
 40
1.655362
 40
1.957681
 40
2.254364
 40
2.537902
 40
2.815848
 40
3.092824
 40
3.374865
 40
3.669327
 40
4.060663
 40
4.405923
 40
4.732378
 40
5.064268
 40
5.426515
 40
5.842752
 40
6.178432
 40
6.512415
 40
6.847637
 40
7.177023
 40
7.489525
 40
7.788892
 40
8.088315
 40
8.373068
 40
8.650443
 40
8.927179
 40
9.210255
 40
9.507316
 40
9.895824
 40
10.239769
 40
10.566651
 40
10.899454
 40
11.259785
 40
11.671785
 40
11.671785
 40
11.671785
 40
11.671785
 10
50.775373
 20
27.414953
 30
0.0
 10
50.772374
 20
27.301577
 30
0.0
 10
50.766407
 20
27.075937
 30
0.0
 10
50.717177
 20
26.741077
 30
0.0
 10
50.639044
 20
26.416045
 30
0.0
 10
50.532917
 20
26.106970
 30
0.0
 10
50.400163
 20
25.820758
 30
0.0
 10
50.241519
 20
25.560439
 30
0.0
 10
50.058125
 20
25.329084
 30
0.0
 10
49.845436
 20
25.135835
 30
0.0
 10
49.609043
 20
24.984075
 30
0.0
 10
49.349813
 20
24.877241
 30
0.0
 10
49.071298
 20
24.813179
 30
0.0
 10
48.748495
 20
24.791449
 30
0.0
 10
48.403445
 20
24.821321
 30
0.0
 10
48.064774
 20
24.940963
 30
0.0
 10
47.794491
 20
25.148184
 30
0.0
 10
47.602791
 20
25.435923
 30
0.0
 10
47.492484
 20
25.793560
 30
0.0
 10
47.465895
 20
26.166132
 30
0.0
 10
47.483694
 20
26.528007
 30
0.0
 10
47.530199
 20
26.860229
 30
0.0
 10
47.607079
 20
27.184603
 30
0.0
 10
47.712634
 20
27.493298
 30
0.0
 10
47.844404
 20
27.778716
 30
0.0
 10
48.002775
 20
28.038759
 30
0.0
 10
48.187820
 20
28.269200
 30
0.0
 10
48.400974
 20
28.463526
 30
0.0
 10
48.637200
 20
28.615670
 30
0.0
 10
48.895611
 20
28.724656
 30
0.0
 10
49.175256
 20
28.789271
 30
0.0
 10
49.498318
 20
28.811240
 30
0.0
 10
49.842819
 20
28.780993
 30
0.0
 10
50.180096
 20
28.660365
 30
0.0
 10
50.448258
 20
28.450874
 30
0.0
 10
50.642920
 20
28.166294
 30
0.0
 10
50.757844
 20
27.810644
 30
0.0
 10
50.769275
 20
27.552604
 30
0.0
 10
50.775373
 20
27.414953
 30
0.0
 11
50.775373
 21
27.414953
 31
0.0
 11
50.759583
 21
27.075324
 31
0.0
 11
50.712212
 21
26.742010
 31
0.0
 11
50.633262
 21
26.415013
 31
0.0
 11
50.525890
 21
26.104381
 31
0.0
 11
50.393255
 21
25.820162
 31
0.0
 11
50.235355
 21
25.562354
 31
0.0
 11
50.049320
 21
25.331245
 31
0.0
 11
49.839168
 21
25.140903
 31
0.0
 11
49.604901
 21
24.991327
 31
0.0
 11
49.349103
 21
24.885104
 31
0.0
 11
49.074357
 21
24.821371
 31
0.0
 11
48.780663
 21
24.800126
 31
0.0
 11
48.391367
 21
24.840032
 31
0.0
 11
48.067527
 21
24.959749
 31
0.0
 11
47.809145
 21
25.159277
 31
0.0
 11
47.622536
 21
25.433736
 31
0.0
 11
47.510570
 21
25.778245
 31
0.0
 11
47.473248
 21
26.192805
 31
0.0
 11
47.488751
 21
26.528128
 31
0.0
 11
47.535261
 21
26.858857
 31
0.0
 11
47.612776
 21
27.184993
 31
0.0
 11
47.719861
 21
27.496487
 31
0.0
 11
47.851636
 21
27.779846
 31
0.0
 11
48.008101
 21
28.035070
 31
0.0
 11
48.196720
 21
28.267614
 31
0.0
 11
48.407732
 21
28.458817
 31
0.0
 11
48.641138
 21
28.608679
 31
0.0
 11
48.896074
 21
28.716338
 31
0.0
 11
49.171681
 21
28.780933
 31
0.0
 11
49.467961
 21
28.802465
 31
0.0
 11
49.854384
 21
28.762272
 31
0.0
 11
50.176501
 21
28.641694
 31
0.0
 11
50.434309
 21
28.440729
 31
0.0
 11
50.623789
 21
28.167132
 31
0.0
 11
50.737477
 21
27.825206
 31
0.0
 11
50.775373
 21
27.414953
 31
0.0
  0
LWPOLYLINE
  5
241
100
AcDbEntity
  8
0
 62
7
100
AcDbPolyline
 90
2
 70
0
 10
42.801421
 20
58.800037
 30
0.0
 10
42.801421
 20
57.602522
 30
0.0
  0
SPLINE
  5
242
100
AcDbEntity
  8
0
 62
7
100
AcDbSpline
 70
0
 71
3
 72
25
 73
21
 74
19
 40
0.000000
 40
0.000000
 40
0.000000
 40
0.000000
 40
0.333583
 40
0.654369
 40
0.963585
 40
1.259629
 40
1.541028
 40
1.809506
 40
2.128236
 40
2.390362
 40
2.603042
 40
2.782576
 40
2.953365
 40
3.139874
 40
3.281726
 40
3.412832
 40
3.546849
 40
3.711380
 40
3.928316
 40
4.201298
 40
4.201298
 40
4.201298
 40
4.201298
 10
42.801421
 20
57.602522
 30
0.0
 10
42.699194
 20
57.646347
 30
0.0
 10
42.498661
 20
57.732316
 30
0.0
 10
42.194646
 20
57.836855
 30
0.0
 10
41.897008
 20
57.919410
 30
0.0
 10
41.607210
 20
57.978668
 30
0.0
 10
41.327257
 20
58.014925
 30
0.0
 10
41.037701
 20
58.027417
 30
0.0
 10
40.754304
 20
58.015228
 30
0.0
 10
40.492563
 20
57.970949
 30
0.0
 10
40.286409
 20
57.893629
 30
0.0
 10
40.135235
 20
57.775600
 30
0.0
 10
40.046488
 20
57.614679
 30
0.0
 10
40.024647
 20
57.446871
 30
0.0
 10
40.041526
 20
57.292977
 30
0.0
 10
40.099685
 20
57.167570
 30
0.0
 10
40.201240
 20
57.062642
 30
0.0
 10
40.356810
 20
56.985352
 30
0.0
 10
40.563299
 20
56.914669
 30
0.0
 10
40.722931
 20
56.879408
 30
0.0
 10
40.811879
 20
56.859760
 30
0.0
 11
42.801421
 21
57.602522
 31
0.0
 11
42.493200
 21
57.730105
 31
0.0
 11
42.190031
 21
57.834951
 31
0.0
 11
41.891916
 21
57.917059
 31
0.0
 11
41.601801
 21
57.976008
 31
0.0
 11
41.322634
 21
58.011378
 31
0.0
 11
41.054414
 21
58.023167
 31
0.0
 11
40.736086
 21
58.007167
 31
0.0
 11
40.478393
 21
57.959165
 31
0.0
 11
40.281333
 21
57.879163
 31
0.0
 11
40.142382
 21
57.765475
 31
0.0
 11
40.059011
 21
57.616417
 31
0.0
 11
40.031220
 21
57.431990
 31
0.0
 11
40.049747
 21
57.291353
 31
0.0
 11
40.105328
 21
57.172612
 31
0.0
 11
40.197963
 21
57.075766
 31
0.0
 11
40.341968
 21
56.996185
 31
0.0
 11
40.546606
 21
56.924183
 31
0.0
 11
40.811879
 21
56.859760
 31
0.0
  0
LWPOLYLINE
  5
243
100
AcDbEntity
  8
0
 62
7
100
AcDbPolyline
 90
2
 70
0
 10
40.811879
 20
56.859760
 30
0.0
 10
41.433374
 20
56.734702
 30
0.0
  0
SPLINE
  5
244
100
AcDbEntity
  8
0
 62
7
100
AcDbSpline
 70
0
 71
3
 72
25
 73
21
 74
19
 40
0.000000
 40
0.000000
 40
0.000000
 40
0.000000
 40
0.587445
 40
1.074097
 40
1.476360
 40
1.844121
 40
2.233722
 40
2.674697
 40
3.249009
 40
3.749583
 40
4.223377
 40
4.725660
 40
5.310305
 40
6.007321
 40
6.366671
 40
6.728295
 40
7.093600
 40
7.463446
 40
7.838589
 40
8.220213
 40
8.220213
 40
8.220213
 40
8.220213
 10
41.433374
 20
56.734702
 30
0.0
 10
41.624552
 20
56.691082
 30
0.0
 10
41.974105
 20
56.611325
 30
0.0
 10
42.431168
 20
56.421951
 30
0.0
 10
42.781039
 20
56.182238
 30
0.0
 10
43.016975
 20
55.867373
 30
0.0
 10
43.149553
 20
55.484787
 30
0.0
 10
43.187536
 20
55.015197
 30
0.0
 10
43.140450
 20
54.507965
 30
0.0
 10
42.954801
 20
54.017199
 30
0.0
 10
42.626341
 20
53.636301
 30
0.0
 10
42.164178
 20
53.379440
 30
0.0
 10
41.582445
 20
53.235616
 30
0.0
 10
41.034212
 20
53.203135
 30
0.0
 10
40.561635
 20
53.217982
 30
0.0
 10
40.200900
 20
53.252286
 30
0.0
 10
39.839552
 20
53.309331
 30
0.0
 10
39.477972
 20
53.389067
 30
0.0
 10
39.115779
 20
53.489379
 30
0.0
 10
38.877881
 20
53.573458
 30
0.0
 10
38.757913
 20
53.615857
 30
0.0
 11
41.433374
 21
56.734702
 31
0.0
 11
42.001814
 21
56.586486
 31
0.0
 11
42.448987
 21
56.394480
 31
0.0
 11
42.774894
 21
56.158683
 31
0.0
 11
42.995955
 21
55.864778
 31
0.0
 11
43.128591
 21
55.498449
 31
0.0
 11
43.172803
 21
55.059696
 31
0.0
 11
43.110906
 21
54.488729
 31
0.0
 11
42.925216
 21
54.023871
 31
0.0
 11
42.615731
 21
53.665123
 31
0.0
 11
42.181610
 21
53.412482
 31
0.0
 11
41.616958
 21
53.260898
 31
0.0
 11
40.921776
 21
53.210370
 31
0.0
 11
40.562606
 21
53.221739
 31
0.0
 11
40.202594
 21
53.255845
 31
0.0
 11
39.841739
 21
53.312690
 31
0.0
 11
39.480463
 21
53.391849
 31
0.0
 11
39.119188
 21
53.492905
 31
0.0
 11
38.757913
 21
53.615857
 31
0.0
  0
SPLINE
  5
245
100
AcDbEntity
  8
0
 62
7
100
AcDbSpline
 70
0
 71
3
 72
10
 73
6
 74
4
 40
0.000000
 40
0.000000
 40
0.000000
 40
0.000000
 40
0.398273
 40
0.775970
 40
1.134819
 40
1.134819
 40
1.134819
 40
1.134819
 10
38.757913
 20
54.847479
 30
0.0
 10
38.876203
 20
54.787170
 30
0.0
 10
39.106671
 20
54.669667
 30
0.0
 10
39.455903
 20
54.522807
 30
0.0
 10
39.689858
 20
54.448081
 30
0.0
 10
39.803843
 20
54.411674
 30
0.0
 11
38.757913
 21
54.847479
 31
0.0
 11
39.114977
 21
54.671051
 31
0.0
 11
39.463620
 21
54.525783
 31
0.0
 11
39.803843
 21
54.411674
 31
0.0
  0
LWPOLYLINE
  5
246
100
AcDbEntity
  8
0
 62
7
100
AcDbPolyline
 90
2
 70
0
 10
38.757913
 20
53.615857
 30
0.0
 10
38.757913
 20
54.847479
 30
0.0
  0
SPLINE
  5
247
100
AcDbEntity
  8
0
 62
7
100
AcDbSpline
 70
0
 71
3
 72
22
 73
18
 74
16
 40
0.000000
 40
0.000000
 40
0.000000
 40
0.000000
 40
0.343766
 40
0.673189
 40
0.991078
 40
1.285093
 40
1.534597
 40
1.747900
 40
1.933919
 40
2.107530
 40
2.291605
 40
2.456124
 40
2.604409
 40
2.750574
 40
2.928582
 40
3.172825
 40
3.488196
 40
3.488196
 40
3.488196
 40
3.488196
 10
39.803843
 20
54.411674
 30
0.0
 10
39.914834
 20
54.382907
 30
0.0
 10
40.132186
 20
54.326573
 30
0.0
 10
40.459814
 20
54.279197
 30
0.0
 10
40.773523
 20
54.262408
 30
0.0
 10
41.061033
 20
54.276706
 30
0.0
 10
41.309619
 20
54.326902
 30
0.0
 10
41.509873
 20
54.413854
 30
0.0
 10
41.659860
 20
54.537504
 30
0.0
 10
41.750796
 20
54.699586
 30
0.0
 10
41.773689
 20
54.875196
 30
0.0
 10
41.756170
 20
55.041328
 30
0.0
 10
41.696976
 20
55.185254
 30
0.0
 10
41.589726
 20
55.304726
 30
0.0
 10
41.422596
 20
55.398344
 30
0.0
 10
41.190586
 20
55.481127
 30
0.0
 10
41.008969
 20
55.524253
 30
0.0
 10
40.906618
 20
55.548556
 30
0.0
 11
39.803843
 21
54.411674
 31
0.0
 11
40.138170
 21
54.331671
 31
0.0
 11
40.464077
 21
54.283669
 31
0.0
 11
40.781563
 21
54.267669
 31
0.0
 11
41.075046
 21
54.285354
 31
0.0
 11
41.318843
 21
54.338408
 31
0.0
 11
41.512956
 21
54.426832
 31
0.0
 11
41.654012
 21
54.548100
 31
0.0
 11
41.738646
 21
54.699684
 31
0.0
 11
41.766858
 21
54.881584
 31
0.0
 11
41.747489
 21
55.044959
 31
0.0
 11
41.689382
 21
55.181385
 31
0.0
 11
41.592537
 21
55.290863
 31
0.0
 11
41.440532
 21
55.383498
 31
0.0
 11
41.211892
 21
55.469395
 31
0.0
 11
40.906618
 21
55.548556
 31
0.0
  0
LWPOLYLINE
  5
248
100
AcDbEntity
  8
0
 62
7
100
AcDbPolyline
 90
2
 70
0
 10
40.906618
 20
55.548556
 30
0.0
 10
40.341968
 20
55.673612
 30
0.0
  0
LWPOLYLINE
  5
249
100
AcDbEntity
  8
0
 62
7
100
AcDbPolyline
 90
1
 70
1
 10
42.801421
 20
58.800037
 30
0.0
  0
SPLINE
  5
24a
100
AcDbEntity
  8
0
 62
7
100
AcDbSpline
 70
0
 71
3
 72
25
 73
21
 74
19
 40
0.000000
 40
0.000000
 40
0.000000
 40
0.000000
 40
0.535469
 40
0.992659
 40
1.388074
 40
1.755015
 40
2.135442
 40
2.556641
 40
3.080182
 40
3.550095
 40
4.010529
 40
4.497968
 40
5.042460
 40
5.673560
 40
5.987358
 40
6.307848
 40
6.635782
 40
6.972279
 40
7.319109
 40
7.676852
 40
7.676852
 40
7.676852
 40
7.676852
 10
40.341968
 20
55.673612
 30
0.0
 10
40.168346
 20
55.716322
 30
0.0
 10
39.846484
 20
55.795498
 30
0.0
 10
39.422736
 20
55.988572
 30
0.0
 10
39.092088
 20
56.232750
 30
0.0
 10
38.863651
 20
56.544980
 30
0.0
 10
38.732415
 20
56.917035
 30
0.0
 10
38.693866
 20
57.359979
 30
0.0
 10
38.741639
 20
57.833650
 30
0.0
 10
38.926857
 20
58.290371
 30
0.0
 10
39.245568
 20
58.651090
 30
0.0
 10
39.680152
 20
58.907305
 30
0.0
 10
40.219830
 20
59.054461
 30
0.0
 10
40.717622
 20
59.086686
 30
0.0
 10
41.139272
 20
59.074783
 30
0.0
 10
41.459292
 20
59.050980
 30
0.0
 10
41.785104
 20
59.009837
 30
0.0
 10
42.118051
 20
58.956788
 30
0.0
 10
42.458241
 20
58.887472
 30
0.0
 10
42.685853
 20
58.829481
 30
0.0
 10
42.801421
 20
58.800037
 30
0.0
 11
40.341968
 21
55.673612
 31
0.0
 11
39.826581
 21
55.818880
 31
0.0
 11
39.412250
 21
56.012150
 31
0.0
 11
39.098977
 21
56.253422
 31
0.0
 11
38.882127
 21
56.549433
 31
0.0
 11
38.752017
 21
56.906918
 31
0.0
 11
38.708648
 21
57.325879
 31
0.0
 11
38.769281
 21
57.845897
 31
0.0
 11
38.951182
 21
58.279175
 31
0.0
 11
39.254351
 21
58.625714
 31
0.0
 11
39.671207
 21
58.878354
 31
0.0
 11
40.194173
 21
59.029938
 31
0.0
 11
40.823248
 21
59.080466
 31
0.0
 11
41.136943
 21
59.072466
 31
0.0
 11
41.456533
 21
59.048466
 31
0.0
 11
41.782018
 21
59.008465
 31
0.0
 11
42.114239
 21
58.954990
 31
0.0
 11
42.454040
 21
58.885514
 31
0.0
 11
42.801421
 21
58.800037
 31
0.0
  0
LWPOLYLINE
  5
24b
100
AcDbEntity
  8
0
 62
7
100
AcDbPolyline
 90
6
 70
0
 10
45.878581
 20
58.769721
 30
0.0
 10
45.878581
 20
57.564626
 30
0.0
 10
47.276943
 20
57.564626
 30
0.0
 10
47.276943
 20
56.594486
 30
0.0
 10
45.878581
 20
56.594486
 30
0.0
 10
45.878581
 20
54.794425
 30
0.0
  0
SPLINE
  5
24c
100
AcDbEntity
  8
0
 62
7
100
AcDbSpline
 70
0
 71
3
 72
13
 73
9
 74
7
 40
0.000000
 40
0.000000
 40
0.000000
 40
0.000000
 40
0.176490
 40
0.315998
 40
0.428627
 40
0.547152
 40
0.706225
 40
0.913282
 40
0.913282
 40
0.913282
 40
0.913282
 10
45.878581
 20
54.794425
 30
0.0
 10
45.880472
 20
54.735468
 30
0.0
 10
45.883858
 20
54.629906
 30
0.0
 10
45.920538
 20
54.490488
 30
0.0
 10
45.990454
 20
54.383245
 30
0.0
 10
46.111815
 20
54.325636
 30
0.0
 10
46.270756
 20
54.294887
 30
0.0
 10
46.393030
 20
54.292025
 30
0.0
 10
46.462180
 20
54.290407
 30
0.0
 11
45.878581
 21
54.794425
 31
0.0
 11
45.891634
 21
54.618419
 31
0.0
 11
45.930793
 21
54.484519
 31
0.0
 11
45.996058
 21
54.392727
 31
0.0
 11
46.100062
 21
54.335883
 31
0.0
 11
46.255436
 21
54.301776
 31
0.0
 11
46.462180
 21
54.290407
 31
0.0
  0
SPLINE
  5
24d
100
AcDbEntity
  8
0
 62
7
100
AcDbSpline
 70
0
 71
3
 72
10
 73
6
 74
4
 40
0.000000
 40
0.000000
 40
0.000000
 40
0.000000
 40
0.485223
 40
0.881364
 40
1.214313
 40
1.214313
 40
1.214313
 40
1.214313
 10
45.996058
 20
53.320267
 30
0.0
 10
45.834684
 20
53.326487
 30
0.0
 10
45.541562
 20
53.337785
 30
0.0
 10
45.139150
 20
53.436968
 30
0.0
 10
44.944346
 20
53.585791
 30
0.0
 10
44.855387
 20
53.653754
 30
0.0
 11
45.996058
 21
53.320267
 31
0.0
 11
45.512252
 21
53.357321
 31
0.0
 11
45.132028
 21
53.468483
 31
0.0
 11
44.855387
 21
53.653754
 31
0.0
  0
LWPOLYLINE
  5
24e
100
AcDbEntity
  8
0
 62
7
100
AcDbPolyline
 90
4
 70
0
 10
46.462180
 20
54.290407
 30
0.0
 10
47.159466
 20
54.290407
 30
0.0
 10
47.159466
 20
53.320267
 30
0.0
 10
45.996058
 20
53.320267
 30
0.0
  0
LWPOLYLINE
  5
24f
100
AcDbEntity
  8
0
 62
7
100
AcDbPolyline
 90
7
 70
0
 10
44.521901
 20
54.794425
 30
0.0
 10
44.521901
 20
56.594486
 30
0.0
 10
43.847351
 20
56.594486
 30
0.0
 10
43.847351
 20
57.564626
 30
0.0
 10
44.521901
 20
57.564626
 30
0.0
 10
44.521901
 20
58.769721
 30
0.0
 10
45.878581
 20
58.769721
 30
0.0
  0
SPLINE
  5
250
100
AcDbEntity
  8
0
 62
7
100
AcDbSpline
 70
0
 71
3
 72
10
 73
6
 74
4
 40
0.000000
 40
0.000000
 40
0.000000
 40
0.000000
 40
0.332950
 40
0.729090
 40
1.214313
 40
1.214313
 40
1.214313
 40
1.214313
 10
44.855387
 20
53.653754
 30
0.0
 10
44.787424
 20
53.742713
 30
0.0
 10
44.638601
 20
53.937517
 30
0.0
 10
44.539418
 20
54.339928
 30
0.0
 10
44.528120
 20
54.633051
 30
0.0
 10
44.521901
 20
54.794425
 30
0.0
 11
44.855387
 21
53.653754
 31
0.0
 11
44.670117
 21
53.930395
 31
0.0
 11
44.558955
 21
54.310619
 31
0.0
 11
44.521901
 21
54.794425
 31
0.0
  0
LWPOLYLINE
  5
251
100
AcDbEntity
  8
0
 62
7
100
AcDbPolyline
 90
3
 70
0
 10
52.347437
 20
55.453814
 30
0.0
 10
52.347437
 20
55.067277
 30
0.0
 10
49.175538
 20
55.067277
 30
0.0
  0
SPLINE
  5
252
100
AcDbEntity
  8
0
 62
7
100
AcDbSpline
 70
0
 71
3
 72
19
 73
15
 74
13
 40
0.000000
 40
0.000000
 40
0.000000
 40
0.000000
 40
0.297948
 40
0.562926
 40
0.814472
 40
1.074078
 40
1.360725
 40
1.689388
 40
1.977313
 40
2.272074
 40
2.576128
 40
2.895431
 40
3.229500
 40
3.580129
 40
3.580129
 40
3.580129
 40
3.580129
 10
49.175538
 20
55.067277
 30
0.0
 10
49.190625
 20
54.968700
 30
0.0
 10
49.219130
 20
54.782455
 30
0.0
 10
49.337591
 20
54.533280
 30
0.0
 10
49.514177
 20
54.338998
 30
0.0
 10
49.747555
 20
54.203893
 30
0.0
 10
50.031230
 20
54.126152
 30
0.0
 10
50.333067
 20
54.106340
 30
0.0
 10
50.636809
 20
54.121977
 30
0.0
 10
50.929759
 20
54.164184
 30
0.0
 10
51.228168
 20
54.234048
 30
0.0
 10
51.531034
 20
54.335729
 30
0.0
 10
51.840455
 20
54.464272
 30
0.0
 10
52.042912
 20
54.569833
 30
0.0
 10
52.146589
 20
54.623891
 30
0.0
 11
49.175538
 21
55.067277
 31
0.0
 11
49.235750
 21
54.775477
 31
0.0
 11
49.350701
 21
54.536731
 31
0.0
 11
49.520390
 21
54.351039
 31
0.0
 11
49.743556
 21
54.218403
 31
0.0
 11
50.018935
 21
54.138822
 31
0.0
 11
50.346525
 21
54.112295
 31
0.0
 11
50.634114
 21
54.126190
 31
0.0
 11
50.925913
 21
54.167876
 31
0.0
 11
51.221923
 21
54.237353
 31
0.0
 11
51.525092
 21
54.337567
 31
0.0
 11
51.833314
 21
54.466413
 31
0.0
 11
52.146589
 21
54.623891
 31
0.0
  0
SPLINE
  5
253
100
AcDbEntity
  8
0
 62
7
100
AcDbSpline
 70
0
 71
3
 72
16
 73
12
 74
10
 40
0.000000
 40
0.000000
 40
0.000000
 40
0.000000
 40
0.339565
 40
0.673061
 40
1.001620
 40
1.326761
 40
1.649165
 40
1.970191
 40
2.684323
 40
3.312688
 40
3.895087
 40
3.895087
 40
3.895087
 40
3.895087
 10
52.146589
 20
53.577961
 30
0.0
 10
52.040063
 20
53.539620
 30
0.0
 10
51.828914
 20
53.463625
 30
0.0
 10
51.507233
 20
53.373098
 30
0.0
 10
51.185675
 20
53.302661
 30
0.0
 10
50.864569
 20
53.248929
 30
0.0
 10
50.543006
 20
53.217551
 30
0.0
 10
50.090380
 20
53.202060
 30
0.0
 10
49.536099
 20
53.246982
 30
0.0
 10
48.908735
 20
53.430284
 30
0.0
 10
48.584802
 20
53.675848
 30
0.0
 10
48.428984
 20
53.793969
 30
0.0
 11
52.146589
 21
53.577961
 31
0.0
 11
51.825734
 21
53.466799
 31
0.0
 11
51.504880
 21
53.375849
 31
0.0
 11
51.184027
 21
53.305109
 31
0.0
 11
50.863174
 21
53.252476
 31
0.0
 11
50.542321
 21
53.220897
 31
0.0
 11
50.221467
 21
53.210370
 31
0.0
 11
49.510286
 21
53.275214
 31
0.0
 11
48.912791
 21
53.469748
 31
0.0
 11
48.428984
 21
53.793969
 31
0.0
  0
SPLINE
  5
254
100
AcDbEntity
  8
0
 62
7
100
AcDbSpline
 70
0
 71
3
 72
13
 73
9
 74
7
 40
0.000000
 40
0.000000
 40
0.000000
 40
0.000000
 40
0.567506
 40
1.155377
 40
1.811853
 40
2.458565
 40
3.041538
 40
3.606790
 40
3.606790
 40
3.606790
 40
3.606790
 10
48.428984
 20
53.793969
 30
0.0
 10
48.300699
 20
53.935182
 30
0.0
 10
48.039526
 20
54.222675
 30
0.0
 10
47.832482
 20
54.804596
 30
0.0
 10
47.771279
 20
55.435387
 30
0.0
 10
47.832105
 20
56.064617
 30
0.0
 10
48.035887
 20
56.640962
 30
0.0
 10
48.291688
 20
56.929791
 30
0.0
 10
48.417615
 20
57.071977
 30
0.0
 11
48.428984
 21
53.793969
 31
0.0
 11
48.075288
 21
54.237774
 31
0.0
 11
47.863070
 21
54.786003
 31
0.0
 11
47.792330
 21
55.438656
 31
0.0
 11
47.861806
 21
56.081626
 31
0.0
 11
48.070235
 21
56.626066
 31
0.0
 11
48.417615
 21
57.071977
 31
0.0
  0
SPLINE
  5
255
100
AcDbEntity
  8
0
 62
7
100
AcDbSpline
 70
0
 71
3
 72
13
 73
9
 74
7
 40
0.000000
 40
0.000000
 40
0.000000
 40
0.000000
 40
0.575898
 40
1.185104
 40
1.868753
 40
2.494681
 40
3.064335
 40
3.620230
 40
3.620230
 40
3.620230
 40
3.620230
 10
48.417615
 20
57.071977
 30
0.0
 10
48.569106
 20
57.192191
 30
0.0
 10
48.880850
 20
57.439570
 30
0.0
 10
49.486768
 20
57.628645
 30
0.0
 10
50.126294
 20
57.687260
 30
0.0
 10
50.753403
 20
57.628416
 30
0.0
 10
51.315606
 20
57.431089
 30
0.0
 10
51.602967
 20
57.185627
 30
0.0
 10
51.744891
 20
57.064397
 30
0.0
 11
48.417615
 21
57.071977
 31
0.0
 11
48.889211
 21
57.402515
 31
0.0
 11
49.465232
 21
57.600838
 31
0.0
 11
50.145677
 21
57.666946
 31
0.0
 11
50.768015
 21
57.599996
 31
0.0
 11
51.301086
 21
57.399146
 31
0.0
 11
51.744891
 21
57.064397
 31
0.0
  0
LWPOLYLINE
  5
256
100
AcDbEntity
  8
0
 62
7
100
AcDbPolyline
 90
2
 70
0
 10
52.146589
 20
54.623891
 30
0.0
 10
52.146589
 20
53.577961
 30
0.0
  0
SPLINE
  5
257
100
AcDbEntity
  8
0
 62
7
100
AcDbSpline
 70
0
 71
3
 72
10
 73
6
 74
4
 40
0.000000
 40
0.000000
 40
0.000000
 40
0.000000
 40
0.558250
 40
1.131452
 40
1.761986
 40
1.761986
 40
1.761986
 40
1.761986
 10
51.744891
 20
57.064397
 30
0.0
 10
51.865809
 20
56.921468
 30
0.0
 10
52.110883
 20
56.631782
 30
0.0
 10
52.313376
 20
56.065737
 30
0.0
 10
52.335728
 20
55.664164
 30
0.0
 10
52.347437
 20
55.453814
 30
0.0
 11
51.744891
 21
57.064397
 31
0.0
 11
52.079638
 21
56.617645
 31
0.0
 11
52.280487
 21
56.080784
 31
0.0
 11
52.347437
 21
55.453814
 31
0.0
  0
LWPOLYLINE
  5
258
100
AcDbEntity
  8
0
 62
7
100
AcDbPolyline
 90
1
 70
1
 10
52.347437
 20
55.453814
 30
0.0
  0
LWPOLYLINE
  5
259
100
AcDbEntity
  8
0
 62
7
100
AcDbPolyline
 90
2
 70
0
 10
49.190696
 20
55.904778
 30
0.0
 10
50.952863
 20
55.904778
 30
0.0
  0
SPLINE
  5
25a
100
AcDbEntity
  8
0
 62
7
100
AcDbSpline
 70
0
 71
3
 72
19
 73
15
 74
13
 40
0.000000
 40
0.000000
 40
0.000000
 40
0.000000
 40
0.242172
 40
0.462767
 40
0.677364
 40
0.888782
 40
1.100133
 40
1.328634
 40
1.576207
 40
1.802323
 40
2.021548
 40
2.242871
 40
2.478468
 40
2.741656
 40
2.741656
 40
2.741656
 40
2.741656
 10
50.952863
 20
55.904778
 30
0.0
 10
50.948599
 20
55.985725
 30
0.0
 10
50.940450
 20
56.140407
 30
0.0
 10
50.861864
 20
56.356182
 30
0.0
 10
50.732706
 20
56.531524
 30
0.0
 10
50.566564
 20
56.668321
 30
0.0
 10
50.361696
 20
56.750041
 30
0.0
 10
50.131658
 20
56.772683
 30
0.0
 10
49.897041
 20
56.750757
 30
0.0
 10
49.675707
 20
56.676043
 30
0.0
 10
49.490556
 20
56.548106
 30
0.0
 10
49.343159
 20
56.374487
 30
0.0
 10
49.238574
 20
56.155003
 30
0.0
 10
49.207233
 20
55.991207
 30
0.0
 10
49.190696
 20
55.904778
 30
0.0
 11
50.952863
 21
55.904778
 31
0.0
 11
50.927599
 21
56.145629
 31
0.0
 11
50.851806
 21
56.352794
 31
0.0
 11
50.725485
 21
56.526274
 31
0.0
 11
50.560848
 21
56.658910
 31
0.0
 11
50.365052
 21
56.738491
 31
0.0
 11
50.138097
 21
56.765018
 31
0.0
 11
49.891773
 21
56.740175
 31
0.0
 11
49.678292
 21
56.665646
 31
0.0
 11
49.497655
 21
56.541432
 31
0.0
 11
49.354071
 21
56.373005
 31
0.0
 11
49.251751
 21
56.160787
 31
0.0
 11
49.190696
 21
55.904778
 31
0.0
  0
LWPOLYLINE
  5
25b
100
AcDbEntity
  8
0
 62
7
100
AcDbPolyline
 90
3
 70
0
 10
56.163570
 20
59.216893
 30
0.0
 10
56.163570
 20
58.326335
 30
0.0
 10
55.413227
 20
58.326335
 30
0.0
  0
SPLINE
  5
25c
100
AcDbEntity
  8
0
 62
7
100
AcDbSpline
 70
0
 71
3
 72
13
 73
9
 74
7
 40
0.000000
 40
0.000000
 40
0.000000
 40
0.000000
 40
0.173040
 40
0.311532
 40
0.423472
 40
0.529753
 40
0.655598
 40
0.810644
 40
0.810644
 40
0.810644
 40
0.810644
 10
55.413227
 20
58.326335
 30
0.0
 10
55.355472
 20
58.324581
 30
0.0
 10
55.251492
 20
58.321423
 30
0.0
 10
55.112921
 20
58.288368
 30
0.0
 10
55.007644
 20
58.227361
 30
0.0
 10
54.939389
 20
58.131566
 30
0.0
 10
54.903148
 20
58.005762
 30
0.0
 10
54.899728
 20
57.911981
 30
0.0
 10
54.897840
 20
57.860216
 30
0.0
 11
55.413227
 21
58.326335
 31
0.0
 11
55.240590
 21
58.314545
 31
0.0
 11
55.106691
 21
58.279176
 31
0.0
 11
55.011529
 21
58.220226
 31
0.0
 11
54.948369
 21
58.134750
 31
0.0
 11
54.910472
 21
58.014746
 31
0.0
 11
54.897840
 21
57.860216
 31
0.0
  0
LWPOLYLINE
  5
25d
100
AcDbEntity
  8
0
 62
7
100
AcDbPolyline
 90
12
 70
0
 10
54.897840
 20
57.860216
 30
0.0
 10
54.897840
 20
57.564626
 30
0.0
 10
56.057459
 20
57.564626
 30
0.0
 10
56.057459
 20
56.594486
 30
0.0
 10
54.897840
 20
56.594486
 30
0.0
 10
54.897840
 20
53.320267
 30
0.0
 10
53.541163
 20
53.320267
 30
0.0
 10
53.541163
 20
56.594486
 30
0.0
 10
52.866613
 20
56.594486
 30
0.0
 10
52.866613
 20
57.564626
 30
0.0
 10
53.541163
 20
57.564626
 30
0.0
 10
53.541163
 20
57.860216
 30
0.0
  0
SPLINE
  5
25e
100
AcDbEntity
  8
0
 62
7
100
AcDbSpline
 70
0
 71
3
 72
13
 73
9
 74
7
 40
0.000000
 40
0.000000
 40
0.000000
 40
0.000000
 40
0.424089
 40
0.788679
 40
1.126064
 40
1.482800
 40
1.897161
 40
2.392042
 40
2.392042
 40
2.392042
 40
2.392042
 10
53.541163
 20
57.860216
 30
0.0
 10
53.547861
 20
58.002003
 30
0.0
 10
53.560318
 20
58.265686
 30
0.0
 10
53.690954
 20
58.625113
 30
0.0
 10
53.919150
 20
58.903731
 30
0.0
 10
54.244066
 20
59.092490
 30
0.0
 10
54.656410
 20
59.200676
 30
0.0
 10
54.959987
 20
59.211178
 30
0.0
 10
55.125218
 20
59.216893
 30
0.0
 11
53.541163
 21
57.860216
 31
0.0
 11
53.584111
 21
58.282124
 31
0.0
 11
53.712957
 21
58.623188
 31
0.0
 11
53.927700
 21
58.883407
 31
0.0
 11
54.232554
 21
59.068677
 31
0.0
 11
54.631726
 21
59.179839
 31
0.0
 11
55.125218
 21
59.216893
 31
0.0
  0
LWPOLYLINE
  5
25f
100
AcDbEntity
  8
0
 62
7
100
AcDbPolyline
 90
2
 70
0
 10
55.125218
 20
59.216893
 30
0.0
 10
56.163570
 20
59.216893
 30
0.0
  0
LWPOLYLINE
  5
260
100
AcDbEntity
  8
0
 62
7
100
AcDbPolyline
 90
3
 70
0
 10
59.358207
 20
55.074854
 30
0.0
 10
59.358207
 20
55.230228
 30
0.0
 10
58.653339
 20
55.230228
 30
0.0
  0
SPLINE
  5
261
100
AcDbEntity
  8
0
 62
7
100
AcDbSpline
 70
0
 71
3
 72
25
 73
21
 74
19
 40
0.000000
 40
0.000000
 40
0.000000
 40
0.000000
 40
0.260290
 40
0.479101
 40
0.664423
 40
0.826463
 40
0.984641
 40
1.158047
 40
1.318752
 40
1.465381
 40
1.611118
 40
1.764574
 40
1.932028
 40
2.122603
 40
2.366188
 40
2.599398
 40
2.840738
 40
3.087594
 40
3.333464
 40
3.595301
 40
3.595301
 40
3.595301
 40
3.595301
 10
58.653339
 20
55.230228
 30
0.0
 10
58.566468
 20
55.227753
 30
0.0
 10
58.406570
 20
55.223198
 30
0.0
 10
58.188648
 20
55.176587
 30
0.0
 10
58.014402
 20
55.098581
 30
0.0
 10
57.887755
 20
54.982144
 30
0.0
 10
57.813522
 20
54.831169
 30
0.0
 10
57.794599
 20
54.665964
 30
0.0
 10
57.811205
 20
54.505093
 30
0.0
 10
57.869642
 20
54.363298
 30
0.0
 10
57.967847
 20
54.248156
 30
0.0
 10
58.103931
 20
54.168064
 30
0.0
 10
58.269218
 20
54.120916
 30
0.0
 10
58.470102
 20
54.105774
 30
0.0
 10
58.693660
 20
54.130357
 30
0.0
 10
58.917182
 20
54.225325
 30
0.0
 10
59.105685
 20
54.379342
 30
0.0
 10
59.251216
 20
54.579020
 30
0.0
 10
59.343339
 20
54.817489
 30
0.0
 10
59.353148
 20
54.987286
 30
0.0
 10
59.358207
 20
55.074854
 30
0.0
 11
58.653339
 21
55.230228
 31
0.0
 11
58.393541
 21
55.214228
 31
0.0
 11
58.180060
 21
55.166226
 31
0.0
 11
58.012896
 21
55.086224
 31
0.0
 11
57.894998
 21
54.975062
 31
0.0
 11
57.824259
 21
54.833583
 31
0.0
 11
57.800679
 21
54.661787
 31
0.0
 11
57.819627
 21
54.502203
 31
0.0
 11
57.876471
 21
54.367041
 31
0.0
 11
57.971211
 21
54.256300
 31
0.0
 11
58.102163
 21
54.176297
 31
0.0
 11
58.262589
 21
54.128295
 31
0.0
 11
58.452491
 21
54.112295
 31
0.0
 11
58.694183
 21
54.142612
 31
0.0
 11
58.908926
 21
54.233562
 31
0.0
 11
59.096722
 21
54.385146
 31
0.0
 11
59.241992
 21
54.584732
 31
0.0
 11
59.329153
 21
54.814635
 31
0.0
 11
59.358207
 21
55.074854
 31
0.0
  0
SPLINE
  5
262
100
AcDbEntity
  8
0
 62
7
100
AcDbSpline
 70
0
 71
3
 72
16
 73
12
 74
10
 40
0.000000
 40
0.000000
 40
0.000000
 40
0.000000
 40
0.301512
 40
0.579546
 40
0.841170
 40
1.103498
 40
1.386176
 40
1.696267
 40
2.110678
 40
2.490248
 40
2.860209
 40
2.860209
 40
2.860209
 40
2.860209
 10
59.358207
 20
53.949343
 30
0.0
 10
59.297416
 20
53.869093
 30
0.0
 10
59.180567
 20
53.714840
 30
0.0
 10
58.972858
 20
53.524292
 30
0.0
 10
58.748406
 20
53.376302
 30
0.0
 10
58.496015
 20
53.278447
 30
0.0
 10
58.215653
 20
53.221644
 30
0.0
 10
57.879522
 20
53.201616
 30
0.0
 10
57.511286
 20
53.235226
 30
0.0
 10
57.136408
 20
53.360044
 30
0.0
 10
56.939232
 20
53.516094
 30
0.0
 10
56.841909
 20
53.593119
 30
0.0
 11
59.358207
 21
53.949343
 31
0.0
 11
59.168727
 21
53.714808
 31
0.0
 11
58.964087
 21
53.526591
 31
0.0
 11
58.744289
 21
53.384691
 31
0.0
 11
58.500492
 21
53.287846
 31
0.0
 11
58.223850
 21
53.229739
 31
0.0
 11
57.914365
 21
53.210370
 31
0.0
 11
57.502142
 21
53.252898
 31
0.0
 11
57.144656
 21
53.380481
 31
0.0
 11
56.841909
 21
53.593119
 31
0.0
  0
LWPOLYLINE
  5
263
100
AcDbEntity
  8
0
 62
7
100
AcDbPolyline
 90
4
 70
0
 10
60.726254
 20
55.741827
 30
0.0
 10
60.726254
 20
53.320267
 30
0.0
 10
59.358207
 20
53.320267
 30
0.0
 10
59.358207
 20
53.949343
 30
0.0
  0
SPLINE
  5
264
100
AcDbEntity
  8
0
 62
7
100
AcDbSpline
 70
0
 71
3
 72
16
 73
12
 74
10
 40
0.000000
 40
0.000000
 40
0.000000
 40
0.000000
 40
0.362995
 40
0.723307
 40
1.110003
 40
1.567042
 40
1.969973
 40
2.366598
 40
2.818632
 40
3.369162
 40
4.038098
 40
4.038098
 40
4.038098
 40
4.038098
 10
56.841909
 20
53.593119
 30
0.0
 10
56.759895
 20
53.683240
 30
0.0
 10
56.596473
 20
53.862815
 30
0.0
 10
56.459411
 20
54.215142
 30
0.0
 10
56.417679
 20
54.616678
 30
0.0
 10
56.462486
 20
55.034923
 30
0.0
 10
56.637209
 20
55.425404
 30
0.0
 10
56.946352
 20
55.720431
 30
0.0
 10
57.379225
 20
55.909849
 30
0.0
 10
57.928406
 20
56.020871
 30
0.0
 10
58.335364
 20
56.031554
 30
0.0
 10
58.558599
 20
56.037414
 30
0.0
 11
56.841909
 21
53.593119
 31
0.0
 11
56.614532
 21
53.876076
 31
0.0
 11
56.478105
 21
54.209562
 31
0.0
 11
56.432630
 21
54.593575
 31
0.0
 11
56.489474
 21
55.047065
 31
0.0
 11
56.660007
 21
55.412130
 31
0.0
 11
56.944228
 21
55.688770
 31
0.0
 11
57.352663
 21
55.882461
 31
0.0
 11
57.890786
 21
55.998676
 31
0.0
 11
58.558599
 21
56.037414
 31
0.0
  0
LWPOLYLINE
  5
265
100
AcDbEntity
  8
0
 62
7
100
AcDbPolyline
 90
3
 70
0
 10
58.558599
 20
56.037414
 30
0.0
 10
59.358207
 20
56.037414
 30
0.0
 10
59.358207
 20
56.143522
 30
0.0
  0
SPLINE
  5
266
100
AcDbEntity
  8
0
 62
7
100
AcDbSpline
 70
0
 71
3
 72
19
 73
15
 74
13
 40
0.000000
 40
0.000000
 40
0.000000
 40
0.000000
 40
0.197402
 40
0.375443
 40
0.559284
 40
0.777074
 40
1.045875
 40
1.373477
 40
1.657442
 40
1.929323
 40
2.190697
 40
2.444151
 40
2.692386
 40
2.937398
 40
2.937398
 40
2.937398
 40
2.937398
 10
59.358207
 20
56.143522
 30
0.0
 10
59.353691
 20
56.209775
 30
0.0
 10
59.345101
 20
56.335782
 30
0.0
 10
59.253295
 20
56.505265
 30
0.0
 10
59.099334
 20
56.628175
 30
0.0
 10
58.889015
 20
56.710249
 30
0.0
 10
58.620526
 20
56.756830
 30
0.0
 10
58.326781
 20
56.768751
 30
0.0
 10
58.032278
 20
56.758946
 30
0.0
 10
57.761120
 20
56.730281
 30
0.0
 10
57.503019
 20
56.682076
 30
0.0
 10
57.257737
 20
56.613862
 30
0.0
 10
57.023673
 20
56.527700
 30
0.0
 10
56.876913
 20
56.453321
 30
0.0
 10
56.804012
 20
56.416374
 30
0.0
 11
59.358207
 21
56.143522
 31
0.0
 11
59.329996
 21
56.338898
 31
0.0
 11
59.245361
 21
56.495536
 31
0.0
 11
59.104302
 21
56.613436
 31
0.0
 11
58.903453
 21
56.697648
 31
0.0
 11
58.639444
 21
56.748176
 31
0.0
 11
58.312275
 21
56.765018
 31
0.0
 11
58.028475
 21
56.755334
 31
0.0
 11
57.758150
 21
56.726281
 31
0.0
 11
57.501301
 21
56.677859
 31
0.0
 11
57.257081
 21
56.610067
 31
0.0
 11
57.024652
 21
56.522905
 31
0.0
 11
56.804012
 21
56.416374
 31
0.0
  0
SPLINE
  5
267
100
AcDbEntity
  8
0
 62
7
100
AcDbSpline
 70
0
 71
3
 72
16
 73
12
 74
10
 40
0.000000
 40
0.000000
 40
0.000000
 40
0.000000
 40
0.298095
 40
0.594678
 40
0.890215
 40
1.184975
 40
1.478650
 40
1.771781
 40
2.467956
 40
3.040409
 40
3.521740
 40
3.521740
 40
3.521740
 40
3.521740
 10
56.804012
 20
57.450937
 30
0.0
 10
56.900828
 20
57.473347
 30
0.0
 10
57.093970
 20
57.518053
 30
0.0
 10
57.386124
 20
57.570765
 30
0.0
 10
57.678980
 20
57.611388
 30
0.0
 10
57.971914
 20
57.643967
 30
0.0
 10
58.265243
 20
57.662568
 30
0.0
 10
58.693116
 20
57.672618
 30
0.0
 10
59.212129
 20
57.639623
 30
0.0
 10
59.792282
 20
57.508328
 30
0.0
 10
60.082221
 20
57.305045
 30
0.0
 10
60.214656
 20
57.212193
 30
0.0
 11
56.804012
 21
57.450937
 31
0.0
 11
57.094969
 21
57.515781
 31
0.0
 11
57.386768
 21
57.568835
 31
0.0
 11
57.679410
 21
57.610100
 31
0.0
 11
57.972473
 21
57.641681
 31
0.0
 11
58.265536
 21
57.660629
 31
0.0
 11
58.558599
 21
57.666946
 31
0.0
 11
59.252939
 21
57.616417
 31
0.0
 11
59.804957
 21
57.464833
 31
0.0
 11
60.214656
 21
57.212193
 31
0.0
  0
LWPOLYLINE
  5
268
100
AcDbEntity
  8
0
 62
7
100
AcDbPolyline
 90
2
 70
0
 10
56.804012
 20
56.416374
 30
0.0
 10
56.804012
 20
57.450937
 30
0.0
  0
LWPOLYLINE
  5
269
100
AcDbEntity
  8
0
 62
7
100
AcDbPolyline
 90
1
 70
1
 10
60.726254
 20
55.741827
 30
0.0
  0
SPLINE
  5
26a
100
AcDbEntity
  8
0
 62
7
100
AcDbSpline
 70
0
 71
3
 72
10
 73
6
 74
4
 40
0.000000
 40
0.000000
 40
0.000000
 40
0.000000
 40
0.461664
 40
0.980607
 40
1.599664
 40
1.599664
 40
1.599664
 40
1.599664
 10
60.214656
 20
57.212193
 30
0.0
 10
60.318380
 20
57.096505
 30
0.0
 10
60.538697
 20
56.850777
 30
0.0
 10
60.699742
 20
56.326719
 30
0.0
 10
60.716913
 20
55.947900
 30
0.0
 10
60.726254
 20
55.741827
 30
0.0
 11
60.214656
 21
57.212193
 31
0.0
 11
60.498877
 21
56.848391
 31
0.0
 11
60.669410
 21
56.358268
 31
0.0
 11
60.726254
 21
55.741827
 31
0.0
  0
LWPOLYLINE
  5
26b
100
AcDbEntity
  8
0
 62
7
100
AcDbPolyline
 90
5
 70
0
 10
66.262866
 20
55.904778
 30
0.0
 10
66.262866
 20
53.320267
 30
0.0
 10
64.898609
 20
53.320267
 30
0.0
 10
64.898609
 20
53.740913
 30
0.0
 10
64.898609
 20
55.298441
 30
0.0
  0
SPLINE
  5
26c
100
AcDbEntity
  8
0
 62
7
100
AcDbSpline
 70
0
 71
3
 72
25
 73
21
 74
19
 40
0.000000
 40
0.000000
 40
0.000000
 40
0.000000
 40
0.328447
 40
0.581242
 40
0.758704
 40
0.886916
 40
0.992941
 40
1.078846
 40
1.179830
 40
1.279013
 40
1.379805
 40
1.483867
 40
1.590486
 40
1.702805
 40
1.968093
 40
2.216097
 40
2.474238
 40
2.754269
 40
3.066811
 40
3.426151
 40
3.426151
 40
3.426151
 40
3.426151
 10
64.898609
 20
55.298441
 30
0.0
 10
64.898138
 20
55.407922
 30
0.0
 10
64.897304
 20
55.601669
 30
0.0
 10
64.889943
 20
55.854520
 30
0.0
 10
64.875525
 20
56.040220
 30
0.0
 10
64.856217
 20
56.176185
 30
0.0
 10
64.829982
 20
56.280054
 30
0.0
 10
64.788939
 20
56.369292
 30
0.0
 10
64.731881
 20
56.446462
 30
0.0
 10
64.658957
 20
56.516190
 30
0.0
 10
64.572861
 20
56.570586
 30
0.0
 10
64.477853
 20
56.613485
 30
0.0
 10
64.372464
 20
56.638698
 30
0.0
 10
64.211059
 20
56.649237
 30
0.0
 10
64.000801
 20
56.622475
 30
0.0
 10
63.765259
 20
56.507235
 30
0.0
 10
63.580399
 20
56.315205
 30
0.0
 10
63.445198
 20
56.062788
 30
0.0
 10
63.364963
 20
55.752568
 30
0.0
 10
63.356810
 20
55.528290
 30
0.0
 10
63.352450
 20
55.408341
 30
0.0
 11
64.898609
 21
55.298441
 31
0.0
 11
64.895661
 21
55.626874
 31
0.0
 11
64.886819
 21
55.879515
 31
0.0
 11
64.872082
 21
56.056363
 31
0.0
 11
64.852717
 21
56.183104
 31
0.0
 11
64.824926
 21
56.285423
 31
0.0
 11
64.788709
 21
56.363320
 31
0.0
 11
64.729339
 21
56.445008
 31
0.0
 11
64.657337
 21
56.513221
 31
0.0
 11
64.572703
 21
56.567959
 31
0.0
 11
64.477541
 21
56.610066
 31
0.0
 11
64.373958
 21
56.635330
 31
0.0
 11
64.261955
 21
56.643752
 31
0.0
 11
63.999208
 21
56.607119
 31
0.0
 11
63.776884
 21
56.497221
 31
0.0
 11
63.594983
 21
56.314057
 31
0.0
 11
63.460242
 21
56.068574
 31
0.0
 11
63.379398
 21
55.766668
 31
0.0
 11
63.352450
 21
55.408341
 31
0.0
  0
LWPOLYLINE
  5
26d
100
AcDbEntity
  8
0
 62
7
100
AcDbPolyline
 90
6
 70
0
 10
63.352450
 20
55.408341
 30
0.0
 10
63.352450
 20
53.320267
 30
0.0
 10
61.995770
 20
53.320267
 30
0.0
 10
61.995770
 20
57.564626
 30
0.0
 10
63.352450
 20
57.564626
 30
0.0
 10
63.352450
 20
56.943130
 30
0.0
  0
SPLINE
  5
26e
100
AcDbEntity
  8
0
 62
7
100
AcDbSpline
 70
0
 71
3
 72
19
 73
15
 74
13
 40
0.000000
 40
0.000000
 40
0.000000
 40
0.000000
 40
0.307498
 40
0.590861
 40
0.855457
 40
1.113118
 40
1.373870
 40
1.644500
 40
2.097819
 40
2.498469
 40
2.883385
 40
3.289603
 40
3.744912
 40
4.274640
 40
4.274640
 40
4.274640
 40
4.274640
 10
63.352450
 20
56.943130
 30
0.0
 10
63.420120
 20
57.020267
 30
0.0
 10
63.550150
 20
57.168487
 30
0.0
 10
63.769610
 20
57.352513
 30
0.0
 10
63.999071
 20
57.493787
 30
0.0
 10
64.240872
 20
57.595057
 30
0.0
 10
64.498382
 20
57.654764
 30
0.0
 10
64.826744
 20
57.676472
 30
0.0
 10
65.203416
 20
57.640136
 30
0.0
 10
65.594978
 20
57.488926
 30
0.0
 10
65.901338
 20
57.223966
 30
0.0
 10
66.116940
 20
56.862195
 30
0.0
 10
66.243595
 20
56.410606
 30
0.0
 10
66.256127
 20
56.081671
 30
0.0
 10
66.262866
 20
55.904778
 30
0.0
 11
63.352450
 21
56.943130
 31
0.0
 11
63.561298
 21
57.168823
 31
0.0
 11
63.778569
 21
57.350724
 31
0.0
 11
64.004261
 21
57.488833
 31
0.0
 11
64.242164
 21
57.587785
 31
0.0
 11
64.496068
 21
57.647155
 31
0.0
 11
64.765973
 21
57.666946
 31
0.0
 11
65.216514
 21
57.616838
 31
0.0
 11
65.587895
 21
57.466517
 31
0.0
 11
65.880115
 21
57.215982
 31
0.0
 11
66.092755
 21
56.869864
 31
0.0
 11
66.220339
 21
56.432796
 31
0.0
 11
66.262866
 21
55.904778
 31
0.0
  0
LWPOLYLINE
  5
26f
100
AcDbEntity
  8
0
 62
7
100
AcDbPolyline
 90
1
 70
1
 10
66.262866
 20
55.904778
 30
0.0
  0
ENDSEC
  0
SECTION
  2
OBJECTS
  0
DICTIONARY
  5
C
330
0
100
AcDbDictionary
  3
ACAD_GROUP
350
D
  3
ACAD_MLINESTYLE
350
17
  0
DICTIONARY
  5
D
330
C
100
AcDbDictionary
  0
DICTIONARY
  5
1A
330
C
100
AcDbDictionary
  0
DICTIONARY
  5
17
330
C
100
AcDbDictionary
  3
STANDARD
350
18
  0
DICTIONARY
  5
19
330
C
100
AcDbDictionary
  0
ENDSEC
  0
EOF
